<svg id="Layer_1" data-name="Layer 1" xmlns="http://www.w3.org/2000/svg" viewBox="0 0 46.41 60.89"><defs><style>.cls-1{fill:#33324e;}.cls-2{fill:#fff;}</style></defs><title>article</title><path class="cls-1" d="M53.88,1.56A2.27,2.27,0,0,1,55.2,4q0,28.13,0,56.24c0,1.63-.63,2.25-2.27,2.25H11c-1.55,0-2.2-.64-2.2-2.19q0-28.15,0-56.3a2.27,2.27,0,0,1,1.32-2.39Zm-2.3,57.29V5.17H12.41V58.85Z" transform="translate(-8.8 -1.56)"/><path class="cls-1" d="M32,16H46a1.84,1.84,0,0,1,2.1,2.11V38.8A1.84,1.84,0,0,1,46,40.92H18A1.83,1.83,0,0,1,16,38.83V18A1.83,1.83,0,0,1,18,16ZM44.46,31.19V19.55H19.56V31.24l3.76-3.78c1.09-1.09,2-1.09,3.11,0l2,2,.52-.49L34,23.9c1.1-1.1,2-1.1,3.11,0L44,30.74ZM24.91,31l-.5.47C23,32.87,21.52,34.35,20,35.77a1.49,1.49,0,0,0-.47,1.55H44.44A1.52,1.52,0,0,0,44,35.76c-2.66-2.6-5.28-5.25-7.92-7.89l-.48-.45-.46.43c-1.68,1.68-3.36,3.37-5.05,5-1.18,1.18-2.06,1.19-3.23,0Z" transform="translate(-8.8 -1.56)"/><path class="cls-1" d="M32,8.81H46.14a1.78,1.78,0,0,1,1.77,2.46,1.71,1.71,0,0,1-1.62,1.1c-.65,0-1.31,0-2,0H18.13a3.29,3.29,0,0,1-.77-.05A1.78,1.78,0,0,1,16,10.4,1.8,1.8,0,0,1,17.8,8.81H32Z" transform="translate(-8.8 -1.56)"/><path class="cls-1" d="M23.07,44.49c1.72,0,3.44,0,5.17,0a1.79,1.79,0,1,1,0,3.56q-5.14,0-10.27,0a1.79,1.79,0,1,1,0-3.56C19.67,44.48,21.37,44.49,23.07,44.49Z" transform="translate(-8.8 -1.56)"/><path class="cls-1" d="M40.85,48.05c-1.7,0-3.4,0-5.1,0a1.79,1.79,0,1,1,0-3.56c3.46,0,6.93,0,10.39,0a1.79,1.79,0,1,1,0,3.56C44.38,48.06,42.61,48.05,40.85,48.05Z" transform="translate(-8.8 -1.56)"/><path class="cls-1" d="M23.09,55.19H17.92a1.79,1.79,0,1,1,0-3.57H28.21a1.8,1.8,0,1,1,0,3.57Z" transform="translate(-8.8 -1.56)"/><path class="cls-1" d="M41,51.62h5.11a1.79,1.79,0,1,1,0,3.57H35.72a1.79,1.79,0,1,1,0-3.57Z" transform="translate(-8.8 -1.56)"/><path class="cls-2" d="M44.46,31.19,44,30.74l-6.85-6.85c-1.09-1.09-2-1.09-3.11,0L28.93,29l-.52.49-2-2c-1.1-1.1-2-1.1-3.11,0l-3.76,3.78V19.55h24.9Z" transform="translate(-8.8 -1.56)"/><path class="cls-2" d="M24.91,31l1.92,2c1.17,1.17,2.05,1.16,3.23,0,1.69-1.68,3.37-3.37,5.05-5l.46-.43.48.45c2.64,2.64,5.26,5.29,7.92,7.89a1.52,1.52,0,0,1,.47,1.56H19.56A1.49,1.49,0,0,1,20,35.77c1.49-1.42,2.92-2.9,4.38-4.35Z" transform="translate(-8.8 -1.56)"/></svg>