<svg id="Layer_1" data-name="Layer 1" xmlns="http://www.w3.org/2000/svg" viewBox="0 0 120 120"><defs><style>.cls-1{fill:#0071bc;}.cls-2{fill:#ec9700;}.cls-3{fill:none;}.cls-4{fill:#1b1464;}</style></defs><title>total</title><rect class="cls-1" x="29.89" y="65.16" width="62.48" height="24.33"/><path class="cls-2" d="M27.63,43.29A6.73,6.73,0,0,0,20.91,50v1.37H34.35V50A6.73,6.73,0,0,0,27.63,43.29Z"/><path class="cls-2" d="M93,43.29A6.73,6.73,0,0,0,86.25,50v1.37H99.69V50A6.73,6.73,0,0,0,93,43.29Z"/><circle class="cls-3" cx="27.63" cy="28.23" r="1.27"/><circle class="cls-3" cx="60.3" cy="28.23" r="1.27"/><circle class="cls-3" cx="92.97" cy="28.23" r="1.27"/><rect class="cls-3" x="34.97" y="81.5" width="53.22" height="2.1"/><circle class="cls-3" cx="60.3" cy="104.82" r="1.27"/><path class="cls-2" d="M60.3,43.29A6.73,6.73,0,0,0,53.58,50v1.37H67V50A6.73,6.73,0,0,0,60.3,43.29Z"/><rect class="cls-3" x="34.06" y="70.61" width="54.13" height="2.55"/><path class="cls-4" d="M34.35,28.23A6.72,6.72,0,1,0,27.63,35,6.73,6.73,0,0,0,34.35,28.23ZM27.63,32.4a4.17,4.17,0,1,1,4.17-4.17A4.17,4.17,0,0,1,27.63,32.4Z"/><path class="cls-4" d="M99.69,28.23A6.72,6.72,0,1,0,93,35,6.73,6.73,0,0,0,99.69,28.23ZM93,32.4a4.17,4.17,0,1,1,4.17-4.17A4.17,4.17,0,0,1,93,32.4Z"/><path class="cls-4" d="M67,28.23A6.72,6.72,0,1,0,60.3,35,6.73,6.73,0,0,0,67,28.23ZM60.3,32.4a4.17,4.17,0,1,1,4.17-4.17A4.17,4.17,0,0,1,60.3,32.4Z"/><path class="cls-4" d="M81.05,47.58l-.24,1.16H72.45l-.23-1.16a12.17,12.17,0,0,0-23.84,0l-.24,1.16H39.78l-.23-1.16A12.17,12.17,0,0,0,15.46,50v5.54a1.28,1.28,0,0,0,1.28,1.27H38.52a1.27,1.27,0,0,0,1.27-1.27V51.28h8.34v4.27a1.28,1.28,0,0,0,1.28,1.27H59v8.34H29.89a1.28,1.28,0,0,0-1.28,1.28V88.22a1.28,1.28,0,0,0,1.28,1.27H59v8.66l-1,.34a6.82,6.82,0,0,0-4.1,4.1l-.34,1H16.74a1.28,1.28,0,1,0,0,2.55H53.62l.34,1a6.72,6.72,0,0,0,12.67,0l.34-1h36.89a1.28,1.28,0,0,0,0-2.55H67l-.34-1a6.78,6.78,0,0,0-4.09-4.1l-1-.34V89.49H92.36a1.27,1.27,0,0,0,1.28-1.27V66.44a1.28,1.28,0,0,0-1.28-1.28H61.57V56.82h9.62a1.27,1.27,0,0,0,1.27-1.27V51.28H80.8v4.27a1.28,1.28,0,0,0,1.28,1.27h21.78a1.27,1.27,0,0,0,1.27-1.27V50a12.16,12.16,0,0,0-24.08-2.43ZM37.24,54.27H18V50a9.62,9.62,0,1,1,19.23,0Zm27.23,50.55a4.17,4.17,0,1,1-4.17-4.17A4.17,4.17,0,0,1,64.47,104.82ZM91.09,86.94H31.16V78.6H91.09Zm0-19.23v8.34H31.16V67.71ZM69.91,54.27H50.68V50a9.62,9.62,0,1,1,19.23,0ZM93,40.39A9.63,9.63,0,0,1,102.58,50v4.26H83.35V50A9.63,9.63,0,0,1,93,40.39Z"/><rect class="cls-4" x="75.54" y="44.78" width="2.13" height="9.82"/><rect class="cls-4" x="42.77" y="44.78" width="2.13" height="9.82"/></svg>