<?xml version="1.0" encoding="utf-8"?>
<!-- Generator: Adobe Illustrator 23.0.3, SVG Export Plug-In . SVG Version: 6.00 Build 0)  -->
<!DOCTYPE svg PUBLIC "-//W3C//DTD SVG 1.1//EN" "http://www.w3.org/Graphics/SVG/1.1/DTD/svg11.dtd" [
	<!ENTITY ns_extend "http://ns.adobe.com/Extensibility/1.0/">
	<!ENTITY ns_ai "http://ns.adobe.com/AdobeIllustrator/10.0/">
	<!ENTITY ns_graphs "http://ns.adobe.com/Graphs/1.0/">
	<!ENTITY ns_vars "http://ns.adobe.com/Variables/1.0/">
	<!ENTITY ns_imrep "http://ns.adobe.com/ImageReplacement/1.0/">
	<!ENTITY ns_sfw "http://ns.adobe.com/SaveForWeb/1.0/">
	<!ENTITY ns_custom "http://ns.adobe.com/GenericCustomNamespace/1.0/">
	<!ENTITY ns_adobe_xpath "http://ns.adobe.com/XPath/1.0/">
]>
<svg version="1.1" id="Layer_1" xmlns:x="&ns_extend;" xmlns:i="&ns_ai;" xmlns:graph="&ns_graphs;"
	 xmlns="http://www.w3.org/2000/svg" xmlns:xlink="http://www.w3.org/1999/xlink" x="0px" y="0px" viewBox="0 0 150 150"
	 style="enable-background:new 0 0 150 150;" xml:space="preserve">
<style type="text/css">
	.st0{fill:#0071BC;}
	.st1{fill:#1B1464;}
	.st2{fill:#FFFFFF;}
	.st3{fill:#EC9700;}
</style>
<metadata>
	<sfw  xmlns="&ns_sfw;">
		<slices></slices>
		<sliceSourceBounds  bottomLeftOrigin="true" height="119.1" width="123.8" x="13.7" y="16.2"></sliceSourceBounds>
	</sfw>
</metadata>
<g>
	<g>
		<path class="st0" d="M24.5,105.9h98.5c8,0,14.6-6.6,14.6-14.6v-7.5c0-4.2-3.4-7.7-7.7-7.7H20.8c-3.9,0-7.1,3.2-7.1,7.1v12
			C13.7,101,18.6,105.9,24.5,105.9z"/>
		<path class="st1" d="M133.1,78.5c1.1,0,2,0.9,2,2v12.4c0,5.8-4.7,10.5-10.5,10.5H23.6c-4.1,0-7.4-3.3-7.4-7.4V79.6
			c0-0.6,0.5-1.1,1.1-1.1H133.1 M133.1,76.1H17.3c-2,0-3.5,1.6-3.5,3.5v16.3c0,5.4,4.5,9.9,9.9,9.9h100.9c7.1,0,12.9-5.8,12.9-12.9
			V80.5C137.5,78.1,135.5,76.1,133.1,76.1L133.1,76.1z"/>
	</g>
	<g>
		<path class="st0" d="M24.9,133.8h101.6c6.1,0,11.1-5,11.1-11.1v-7.5c0-6.1-5-11.1-11.1-11.1H24.9c-6.1,0-11.1,5-11.1,11.1v7.5
			C13.7,128.8,18.7,133.8,24.9,133.8z"/>
		<path class="st1" d="M127.6,106.5c4.1,0,7.4,3.3,7.4,7.4v10c0,4.1-3.3,7.4-7.4,7.4h-104c-4.1,0-7.4-3.3-7.4-7.4v-10
			c0-4.1,3.3-7.4,7.4-7.4H127.6 M127.6,104h-104c-5.4,0-9.9,4.5-9.9,9.9v10c0,5.4,4.5,9.9,9.9,9.9h104c5.4,0,9.9-4.5,9.9-9.9v-10
			C137.5,108.4,133.1,104,127.6,104L127.6,104z"/>
	</g>
	<g>
		<path class="st2" d="M88.6,86.7H42.1c-1.4,0-2.5,1.1-2.5,2.5c0,1.4,1.1,2.5,2.5,2.5h46.5c1.4,0,2.5-1.1,2.5-2.5
			C91.1,87.8,90,86.7,88.6,86.7z"/>
		<path class="st2" d="M27.1,83.7c-3,0-5.5,2.5-5.5,5.5c0,3,2.5,5.5,5.5,5.5s5.5-2.5,5.5-5.5C32.6,86.1,30.1,83.7,27.1,83.7z
			 M27.1,91.6c-1.3,0-2.4-1.1-2.4-2.4c0-1.3,1.1-2.4,2.4-2.4c1.3,0,2.4,1.1,2.4,2.4C29.5,90.5,28.4,91.6,27.1,91.6z"/>
		<path class="st2" d="M101.3,84.8c-1.2,0-2.2,1-2.2,2.2v4.3c0,1.2,1,2.2,2.2,2.2c1.2,0,2.2-1,2.2-2.2V87
			C103.5,85.8,102.5,84.8,101.3,84.8z"/>
		<path class="st2" d="M110,84.8c-1.2,0-2.2,1-2.2,2.2v4.3c0,1.2,1,2.2,2.2,2.2c1.2,0,2.2-1,2.2-2.2V87
			C112.2,85.8,111.2,84.8,110,84.8z"/>
		<path class="st2" d="M118.7,84.8c-1.2,0-2.2,1-2.2,2.2v4.3c0,1.2,1,2.2,2.2,2.2c1.2,0,2.2-1,2.2-2.2V87
			C120.8,85.8,119.9,84.8,118.7,84.8z"/>
		<path class="st2" d="M125.2,87v4.3c0,1.2,1,2.2,2.2,2.2c1.2,0,2.2-1,2.2-2.2V87c0-1.2-1-2.2-2.2-2.2
			C126.2,84.8,125.2,85.8,125.2,87z"/>
	</g>
	<g>
		<path class="st2" d="M15,78.5l13.7-25.9c1.1-2.1,3.3-3.4,5.8-3.4h88.2c2.9,0,5.5,1.9,6.2,4.6l6.8,24.7H15z"/>
		<path class="st1" d="M135.7,79.8H15c-0.4,0-0.8-0.2-1.1-0.6c-0.2-0.4-0.2-0.8,0-1.2L27.6,52c1.3-2.5,3.9-4.1,6.9-4.1h88.2
			c3.5,0,6.5,2.3,7.4,5.5l6.8,24.7c0.1,0.4,0,0.8-0.2,1.1C136.4,79.6,136.1,79.8,135.7,79.8z M17,77.3h117l-6.4-23.1
			c-0.6-2.2-2.7-3.7-5-3.7H34.4c-2,0-3.8,1-4.7,2.7L17,77.3z"/>
	</g>
	<path class="st0" d="M22.4,77.2l12.7-23.9c1-1.9,3.1-3.1,5.3-3.1H122c2.7,0,5.1,1.7,5.8,4.2l6.3,22.8H22.4z"/>
	<g>
		<path class="st2" d="M89.6,116.4H43.1c-1.4,0-2.5,1.1-2.5,2.5s1.1,2.5,2.5,2.5h46.5c1.4,0,2.5-1.1,2.5-2.5S91,116.4,89.6,116.4z"
			/>
		<path class="st2" d="M28.1,113.4c-3,0-5.5,2.5-5.5,5.5s2.5,5.5,5.5,5.5s5.5-2.5,5.5-5.5S31.1,113.4,28.1,113.4z M28.1,121.3
			c-1.3,0-2.4-1.1-2.4-2.4s1.1-2.4,2.4-2.4c1.3,0,2.4,1.1,2.4,2.4S29.4,121.3,28.1,121.3z"/>
		<path class="st2" d="M102.3,114.6c-1.2,0-2.2,1-2.2,2.2v4.3c0,1.2,1,2.2,2.2,2.2c1.2,0,2.2-1,2.2-2.2v-4.3
			C104.5,115.6,103.5,114.6,102.3,114.6z"/>
		<path class="st2" d="M111,114.6c-1.2,0-2.2,1-2.2,2.2v4.3c0,1.2,1,2.2,2.2,2.2c1.2,0,2.2-1,2.2-2.2v-4.3
			C113.2,115.6,112.2,114.6,111,114.6z"/>
		<path class="st2" d="M119.7,114.6c-1.2,0-2.2,1-2.2,2.2v4.3c0,1.2,1,2.2,2.2,2.2c1.2,0,2.2-1,2.2-2.2v-4.3
			C121.8,115.6,120.9,114.6,119.7,114.6z"/>
		<path class="st2" d="M126.2,116.8v4.3c0,1.2,1,2.2,2.2,2.2c1.2,0,2.2-1,2.2-2.2v-4.3c0-1.2-1-2.2-2.2-2.2
			C127.1,114.6,126.2,115.6,126.2,116.8z"/>
	</g>
</g>
<path class="st2" d="M101.8,64.7c3.1-4.7,4.9-10.4,4.9-16.5c0-16.7-13.5-30.3-30.3-30.3S46.1,31.5,46.1,48.2
	c0,6.1,1.8,11.7,4.9,16.5L101.8,64.7z"/>
<g>
	<path class="st3" d="M103.4,65.5c3.3-5,5.2-11,5.2-17.5c0-17.7-14.4-32.1-32.1-32.1S44.4,30.3,44.4,48c0,6.5,1.9,12.5,5.2,17.5
		L103.4,65.5z"/>
	<path class="st1" d="M48.9,66.8l-0.4-0.6C45,60.8,43.1,54.5,43.1,48c0-18.4,15-33.4,33.4-33.4s33.4,15,33.4,33.4
		c0,6.5-1.9,12.7-5.4,18.1l-0.4,0.6L48.9,66.8z M76.5,17.2c-17,0-30.9,13.8-30.9,30.9c0,5.8,1.6,11.4,4.6,16.3l52.5,0
		c3-4.9,4.6-10.5,4.6-16.2C107.4,31,93.5,17.2,76.5,17.2z"/>
</g>
<g>
	<g>
		<g>
			<rect x="98" y="47.2" class="st1" width="7.3" height="2.5"/>
		</g>
		<g>
			<line class="st2" x1="101.6" y1="33.6" x2="95.4" y2="37.3"/>
			
				<rect x="94.9" y="34.2" transform="matrix(0.8559 -0.5171 0.5171 0.8559 -4.1412 56.0357)" class="st1" width="7.3" height="2.5"/>
		</g>
		<g>
			<line class="st2" x1="90.9" y1="22.8" x2="87.2" y2="29.1"/>
			
				<rect x="85.4" y="24.7" transform="matrix(0.5049 -0.8632 0.8632 0.5049 21.6511 89.7037)" class="st1" width="7.3" height="2.5"/>
		</g>
		<g>
			<line class="st2" x1="76.4" y1="19.2" x2="76.4" y2="26.5"/>
			
				<rect x="75.2" y="19.2" transform="matrix(1 -2.858324e-03 2.858324e-03 1 -6.491773e-02 0.2184)" class="st1" width="2.5" height="7.3"/>
		</g>
	</g>
	<g>
		<g>
			<line class="st2" x1="47.7" y1="48.4" x2="54.9" y2="48.4"/>
			<rect x="47.7" y="47.2" class="st1" width="7.3" height="2.5"/>
		</g>
		<g>
			<line class="st2" x1="51.3" y1="33.6" x2="57.5" y2="37.3"/>
			
				<rect x="53.2" y="31.8" transform="matrix(0.5171 -0.8559 0.8559 0.5171 -4.0527 63.7166)" class="st1" width="2.5" height="7.3"/>
		</g>
		<g>
			<line class="st2" x1="62.1" y1="22.8" x2="65.7" y2="29.1"/>
			
				<rect x="62.7" y="22.3" transform="matrix(0.8632 -0.5049 0.5049 0.8632 -4.372 35.8228)" class="st1" width="2.5" height="7.3"/>
		</g>
	</g>
</g>
<path class="st1" d="M88.3,38.9L81.4,43c-3.4-2.8-8.5-2.3-11.3,1.1s-2.3,8.5,1.1,11.3c3.4,2.8,8.5,2.3,11.3-1.1
	c1.5-1.9,2.2-4.4,1.7-6.7l6.9-4.2L88.3,38.9z M75.1,51.6c-1.3-0.7-1.8-2.3-1.1-3.6s2.3-1.8,3.6-1.1c1.3,0.7,1.8,2.3,1.1,3.6
	C78,51.8,76.4,52.3,75.1,51.6z"/>
</svg>
