<?xml version="1.0" encoding="utf-8"?>
<!-- Generator: Adobe Illustrator 23.1.0, SVG Export Plug-In . SVG Version: 6.00 Build 0)  -->
<svg version="1.1" id="Layer_1" xmlns="http://www.w3.org/2000/svg" xmlns:xlink="http://www.w3.org/1999/xlink" x="0px" y="0px"
	 viewBox="0 0 150 150" style="enable-background:new 0 0 150 150;" xml:space="preserve">
<style type="text/css">
	.st0{fill:#015129;}
	.st1{fill:url(#SVGID_1_);}
	.st2{fill:url(#SVGID_2_);}
	.st3{fill:#067239;}
	.st4{fill:#006837;}
	.st5{fill:url(#SVGID_3_);}
	.st6{fill:url(#SVGID_4_);}
	.st7{opacity:0.64;}
	.st8{enable-background:new    ;}
	.st9{clip-path:url(#SVGID_6_);enable-background:new    ;}
	.st10{fill:#8F8F8F;}
	.st11{fill:#8A8A8A;}
	.st12{fill:#858585;}
	.st13{clip-path:url(#SVGID_8_);enable-background:new    ;}
	.st14{clip-path:url(#SVGID_10_);enable-background:new    ;}
	.st15{fill:#FAFAFA;}
	.st16{clip-path:url(#SVGID_12_);enable-background:new    ;}
	.st17{clip-path:url(#SVGID_14_);enable-background:new    ;}
	.st18{clip-path:url(#SVGID_16_);enable-background:new    ;}
	.st19{fill:#808080;}
	.st20{fill:#9C9C9C;}
	.st21{fill:#AAA9A9;}
	.st22{fill:#2E355C;}
	.st23{fill:#03512A;}
	.st24{fill:#FFFFFF;}
	.st25{fill:url(#SVGID_17_);}
	.st26{opacity:0.15;fill:url(#SVGID_18_);enable-background:new    ;}
	.st27{opacity:0.22;fill:#FFFFFF;enable-background:new    ;}
	.st28{opacity:0.24;}
	.st29{opacity:0.34;fill:#010B16;enable-background:new    ;}
	.st30{opacity:0.47;}
	.st31{opacity:0.34;fill:#FFFFFF;enable-background:new    ;}
	.st32{fill:#39B54A;}
	.st33{fill:#01381D;}
	.st34{fill:#0A1C44;}
</style>
<path class="st0" d="M70.6,6.8c0,0-10.4,1.6-32.8,6.4c-21.2,4.6-28.6,6.4-28.6,6.4s-2.8,22.1,8.1,63.6c8.9,33.5,35.2,55.7,57.7,64.4
	c22-7,47-27.1,53.8-59.5c8.4-40,4.2-62.1,4.2-62.1s-7.6-2.6-29.1-9.3C81.1,9.5,70.6,6.8,70.6,6.8z"/>
<linearGradient id="SVGID_1_" gradientUnits="userSpaceOnUse" x1="77.4646" y1="73.3439" x2="141" y2="73.3439">
	<stop  offset="0" style="stop-color:#008C60"/>
	<stop  offset="0.2418" style="stop-color:#089B60"/>
	<stop  offset="0.7042" style="stop-color:#1EC261"/>
	<stop  offset="1" style="stop-color:#2DDE61"/>
</linearGradient>
<path class="st1" d="M81.9,143.8c22-7,47-27.1,53.8-59.5c8.4-40,4.2-62.1,4.2-62.1s-7.6-2.6-29.1-9.3C88,5.7,77.5,2.9,77.5,2.9"/>
<linearGradient id="SVGID_2_" gradientUnits="userSpaceOnUse" x1="15.7662" y1="73.3624" x2="81.9145" y2="73.3624">
	<stop  offset="0" style="stop-color:#008C60"/>
	<stop  offset="0.2418" style="stop-color:#089B60"/>
	<stop  offset="0.7042" style="stop-color:#1EC261"/>
	<stop  offset="1" style="stop-color:#2DDE61"/>
</linearGradient>
<path class="st2" d="M77.5,3c0,0-10.4,1.6-32.8,6.4c-21.2,4.5-28.6,6.4-28.6,6.4s-2.8,22.1,8.1,63.6c8.9,33.5,35.2,55.7,57.7,64.4"
	/>
<path class="st3" d="M81.6,133c18.6-5.9,39.8-22.9,45.5-50.3c7.1-33.9,3.6-52.6,3.6-52.6s-6.4-2.2-24.6-7.9
	c-19.3-6-28.2-8.3-28.2-8.3"/>
<path class="st4" d="M77.9,13.8c0,0-8.8,1.4-27.8,5.4c-17.9,3.9-24.2,5.5-24.2,5.5s-2.4,18.7,6.9,53.8c7.5,28.3,29.8,47.1,48.8,54.5
	"/>
<linearGradient id="SVGID_3_" gradientUnits="userSpaceOnUse" x1="78.0579" y1="73.3748" x2="125.9818" y2="73.3748">
	<stop  offset="0" style="stop-color:#00CA69"/>
	<stop  offset="0.147" style="stop-color:#08CD67"/>
	<stop  offset="0.3763" style="stop-color:#1ED463"/>
	<stop  offset="0.6589" style="stop-color:#42E05C"/>
	<stop  offset="0.9815" style="stop-color:#74F152"/>
	<stop  offset="1" style="stop-color:#77F251"/>
</linearGradient>
<path class="st5" d="M81.4,126.5c16.6-5.3,35.5-20.5,40.6-44.9c6.4-30.2,3.2-46.9,3.2-46.9s-5.7-2-22-7.1
	c-17.2-5.4-25.2-7.4-25.2-7.4"/>
<linearGradient id="SVGID_4_" gradientUnits="userSpaceOnUse" x1="31.3847" y1="73.3686" x2="81.3459" y2="73.3686">
	<stop  offset="0" style="stop-color:#008C60"/>
	<stop  offset="0.2418" style="stop-color:#089B60"/>
	<stop  offset="0.7042" style="stop-color:#1EC261"/>
	<stop  offset="1" style="stop-color:#2DDE61"/>
</linearGradient>
<path class="st6" d="M78.1,20.2c0,0-7.8,1.2-24.7,4.8c-16,3.4-21.7,4.9-21.7,4.9s-2.1,16.7,6.2,48c6.7,25.3,26.6,42,43.5,48.6"/>
<g class="st7">
	<g>
		<path class="st0" d="M59.2,56.3c0-1.2-0.4-2.2-1.2-2.9c-0.8-0.7-2.3-1.4-4.5-2.1c-2.2-0.7-3.9-1.5-5.1-2.2
			c-3.4-1.9-5.1-4.6-5.1-7.9c0-1.7,0.5-3.3,1.4-4.6c0.9-1.3,2.2-2.4,4-3.2c1.7-0.8,3.7-1.1,5.8-1.1c2.2,0,4.1,0.4,5.8,1.2
			c1.7,0.8,3,2,3.9,3.5c0.9,1.5,1.4,3.2,1.4,5.1h-6.2c0-1.5-0.4-2.6-1.3-3.4c-0.9-0.8-2.1-1.2-3.7-1.2c-1.5,0-2.7,0.3-3.5,1
			c-0.8,0.7-1.3,1.6-1.3,2.7c0,1,0.5,1.9,1.5,2.6c1,0.7,2.4,1.4,4.4,2c3.5,1.1,6.1,2.5,7.7,4.2c1.6,1.7,2.4,3.7,2.4,6.2
			c0,2.8-1,4.9-3,6.5c-2,1.6-4.6,2.3-8,2.3c-2.3,0-4.4-0.4-6.4-1.3c-1.9-0.9-3.4-2.1-4.4-3.7c-1-1.6-1.5-3.4-1.5-5.4h6.2
			c0,3.5,2,5.3,6,5.3c1.5,0,2.6-0.3,3.5-0.9C58.8,58.3,59.2,57.5,59.2,56.3z"/>
		<path class="st0" d="M85.3,55.7c0-1.2-0.4-2.1-1.2-2.7c-0.8-0.6-2.3-1.3-4.5-2c-2.2-0.7-3.9-1.4-5.1-2.1c-3.4-1.8-5.1-4.3-5.1-7.5
			c0-1.6,0.5-3.1,1.4-4.4c0.9-1.3,2.2-2.3,4-3c1.7-0.7,3.6-1.1,5.8-1.1c2.2,0,4.1,0.4,5.8,1.2c1.7,0.8,3,1.9,3.9,3.3
			c0.9,1.4,1.4,3,1.4,4.9h-6.2c0-1.4-0.4-2.5-1.3-3.2c-0.9-0.8-2.1-1.1-3.7-1.1c-1.5,0-2.7,0.3-3.5,1c-0.8,0.6-1.3,1.5-1.3,2.5
			c0,1,0.5,1.8,1.5,2.5c1,0.7,2.4,1.3,4.4,1.9c3.5,1.1,6.1,2.4,7.7,4c1.6,1.6,2.4,3.5,2.4,5.9c0,2.6-1,4.7-3,6.1
			c-2,1.5-4.6,2.2-8,2.2c-2.3,0-4.4-0.4-6.4-1.3c-1.9-0.9-3.4-2-4.4-3.5c-1-1.5-1.5-3.2-1.5-5.1h6.2c0,3.3,2,5,6,5
			c1.5,0,2.6-0.3,3.4-0.9C84.9,57.6,85.3,56.8,85.3,55.7z"/>
		<path class="st0" d="M100.9,58.6h13.2v5H94.7V33.5h6.2V58.6z"/>
	</g>
</g>
<g>
	<g>
		<g class="st8">
			<g class="st8">
				<defs>
					<path id="SVGID_5_" class="st8" d="M61.2,41.3l-1.8,0c0-1.4-0.4-2.4-1.2-3.2s-1.9-1.2-3.3-1.2l1.8,0c1.4,0,2.5,0.4,3.3,1.2
						C60.8,38.8,61.2,39.9,61.2,41.3z"/>
				</defs>
				<clipPath id="SVGID_6_">
					<use xlink:href="#SVGID_5_"  style="overflow:visible;"/>
				</clipPath>
				<g class="st9">
					<path class="st10" d="M61.2,41.3h-1.8c0-1.2-0.3-2.1-0.8-2.8h1.8C60.9,39.2,61.2,40.1,61.2,41.3"/>
					<path class="st11" d="M60.4,38.5l-1.8,0c-0.1-0.1-0.2-0.3-0.4-0.4c-0.2-0.2-0.5-0.4-0.8-0.6h1.8c0.3,0.2,0.5,0.4,0.8,0.6
						C60.2,38.2,60.3,38.3,60.4,38.5"/>
					<path class="st12" d="M59.3,37.5h-1.8c-0.7-0.4-1.5-0.6-2.5-0.6h1.8C57.7,36.9,58.6,37.1,59.3,37.5"/>
				</g>
			</g>
			<g class="st8">
				<defs>
					<path id="SVGID_7_" class="st8" d="M57,58.1l-1.8,0c1.3,0,2.4-0.3,3.1-0.9c0.7-0.6,1.1-1.4,1.1-2.5c0-1.2-0.4-2.1-1.1-2.7
						c-0.7-0.6-2.1-1.3-4-2s-3.5-1.4-4.6-2.1c-3.1-1.9-4.6-4.3-4.6-7.5c0-1.6,0.4-3.1,1.2-4.4s2-2.3,3.6-3c1.5-0.7,3.3-1.1,5.2-1.1
						l1.8,0c-1.9,0-3.7,0.4-5.2,1.1c-1.5,0.7-2.7,1.7-3.6,3s-1.2,2.7-1.2,4.4c0,3.1,1.5,5.6,4.6,7.5c1.1,0.7,2.7,1.4,4.6,2.1
						s3.3,1.4,4,2s1.1,1.5,1.1,2.7c0,1.1-0.4,1.9-1.1,2.5C59.3,57.8,58.3,58.1,57,58.1z"/>
				</defs>
				<clipPath id="SVGID_8_">
					<use xlink:href="#SVGID_7_"  style="overflow:visible;"/>
				</clipPath>
				<g class="st13">
					<path class="st12" d="M57,58.1h-1.8c1.3,0,2.4-0.3,3.1-0.9c0.2-0.2,0.4-0.3,0.5-0.5h1.8c-0.1,0.2-0.3,0.4-0.5,0.5
						C59.3,57.8,58.3,58.1,57,58.1"/>
					<path class="st11" d="M60.6,56.6h-1.8c0.2-0.3,0.4-0.6,0.5-1l1.8,0C61,56,60.8,56.3,60.6,56.6"/>
					<path class="st10" d="M61.1,55.6h-1.8c0.1-0.3,0.1-0.6,0.1-1c0-0.9-0.2-1.6-0.7-2.2h1.8c0.4,0.6,0.7,1.3,0.7,2.2
						C61.2,55,61.1,55.3,61.1,55.6"/>
					<path class="st11" d="M60.5,52.4l-1.8,0c-0.1-0.2-0.3-0.3-0.5-0.5c-0.3-0.2-0.6-0.5-1.1-0.7H59c0.4,0.2,0.8,0.5,1.1,0.7
						C60.2,52.1,60.4,52.3,60.5,52.4"/>
					<path class="st12" d="M59,51.2h-1.8c-0.7-0.4-1.7-0.8-3-1.3c-1.7-0.6-3.1-1.2-4.2-1.8h1.8c1.1,0.6,2.5,1.2,4.2,1.8
						C57.3,50.4,58.3,50.8,59,51.2"/>
					<path class="st11" d="M51.8,48.1h-1.8c-0.1-0.1-0.3-0.2-0.4-0.2c-1.3-0.8-2.3-1.6-3-2.6h1.8c0.7,1,1.8,1.9,3,2.6
						C51.6,48,51.7,48,51.8,48.1"/>
					<path class="st10" d="M48.4,45.3h-1.8c-1.1-1.4-1.6-3-1.6-4.9c0-0.8,0.1-1.5,0.3-2.1h1.8c-0.2,0.7-0.3,1.4-0.3,2.1
						C46.8,42.2,47.4,43.9,48.4,45.3"/>
					<path class="st11" d="M47.1,38.3h-1.8c0.2-0.8,0.5-1.5,1-2.2c0.1-0.1,0.2-0.3,0.3-0.4h1.8c-0.1,0.1-0.2,0.3-0.3,0.4
						C47.6,36.7,47.3,37.5,47.1,38.3"/>
					<path class="st12" d="M48.3,35.6h-1.8c0.8-1.1,1.9-2,3.3-2.6c1.5-0.7,3.3-1.1,5.2-1.1h1.8c-1.9,0-3.7,0.4-5.2,1.1
						C50.2,33.7,49.1,34.6,48.3,35.6"/>
				</g>
			</g>
			<g class="st8">
				<defs>
					<path id="SVGID_9_" class="st8" d="M57,63l-1.8,0c-2.1,0-4-0.4-5.7-1.3c-1.7-0.8-3-2-3.9-3.5c-0.9-1.5-1.4-3.2-1.4-5.1l1.8,0
						c0,1.9,0.5,3.7,1.4,5.1c0.9,1.5,2.2,2.6,3.9,3.5C53,62.5,54.9,63,57,63z"/>
				</defs>
				<clipPath id="SVGID_10_">
					<use xlink:href="#SVGID_9_"  style="overflow:visible;"/>
				</clipPath>
				<g class="st14">
					<path class="st12" d="M57,63h-1.8c-2.1,0-4-0.4-5.7-1.3c-0.2-0.1-0.3-0.2-0.5-0.3h1.8c0.2,0.1,0.3,0.2,0.5,0.3
						C53,62.5,54.9,63,57,63"/>
					<path class="st11" d="M50.8,61.4H49c-1.2-0.7-2.2-1.5-2.9-2.5h1.8C48.6,59.9,49.6,60.8,50.8,61.4"/>
					<path class="st10" d="M47.8,58.9h-1.8c-0.2-0.2-0.3-0.5-0.5-0.7c-0.9-1.5-1.4-3.2-1.4-5.1H46c0,1.9,0.5,3.7,1.4,5.1
						C47.5,58.5,47.7,58.7,47.8,58.9"/>
				</g>
			</g>
			<g>
				<path class="st15" d="M56.8,32c1.9,0,3.7,0.4,5.2,1.2c1.5,0.8,2.7,1.9,3.5,3.3s1.3,3,1.3,4.9h-5.6c0-1.4-0.4-2.4-1.2-3.2
					c-0.8-0.8-1.9-1.2-3.3-1.2c-1.4,0-2.4,0.3-3.2,1c-0.8,0.6-1.1,1.5-1.1,2.5c0,1,0.4,1.8,1.3,2.5c0.9,0.7,2.2,1.3,3.9,1.9
					c3.2,1.1,5.5,2.4,6.9,4c1.5,1.6,2.2,3.5,2.2,5.9c0,2.6-0.9,4.7-2.7,6.1C62.4,62.2,60,63,57,63c-2.1,0-4-0.4-5.7-1.3
					c-1.7-0.8-3-2-3.9-3.5C46.4,56.7,46,55,46,53.1h5.6c0,3.3,1.8,5,5.4,5c1.3,0,2.4-0.3,3.1-0.9c0.7-0.6,1.1-1.4,1.1-2.5
					c0-1.2-0.4-2.1-1.1-2.7s-2.1-1.3-4-2s-3.5-1.4-4.6-2.1c-3.1-1.9-4.6-4.3-4.6-7.5c0-1.6,0.4-3.1,1.2-4.4s2-2.3,3.6-3
					C53.2,32.3,54.9,32,56.8,32z"/>
			</g>
		</g>
		<g class="st8">
			<g class="st8">
				<defs>
					<path id="SVGID_11_" class="st8" d="M86.6,41.3h-1.8c0-1.4-0.4-2.4-1.2-3.2c-0.8-0.8-1.9-1.2-3.3-1.2l1.8,0
						c1.4,0,2.5,0.4,3.3,1.2S86.6,39.9,86.6,41.3z"/>
				</defs>
				<clipPath id="SVGID_12_">
					<use xlink:href="#SVGID_11_"  style="overflow:visible;"/>
				</clipPath>
				<g class="st16">
					<path class="st10" d="M86.6,41.3h-1.8c0-1.2-0.3-2.1-0.8-2.8h1.8C86.3,39.2,86.6,40.1,86.6,41.3"/>
					<path class="st11" d="M85.8,38.5l-1.8,0c-0.1-0.1-0.2-0.3-0.4-0.4c-0.2-0.2-0.5-0.4-0.8-0.6h1.8c0.3,0.2,0.5,0.4,0.8,0.6
						C85.5,38.2,85.7,38.3,85.8,38.5"/>
					<path class="st12" d="M84.6,37.5h-1.8c-0.7-0.4-1.5-0.6-2.5-0.6h1.8C83.1,36.9,83.9,37.1,84.6,37.5"/>
				</g>
			</g>
			<g class="st8">
				<defs>
					<path id="SVGID_13_" class="st8" d="M82.3,58.1h-1.8c1.3,0,2.4-0.3,3.1-0.9c0.7-0.6,1.1-1.4,1.1-2.5c0-1.2-0.4-2.1-1.1-2.7
						c-0.7-0.6-2.1-1.3-4-2c-1.9-0.7-3.5-1.4-4.6-2.1c-3.1-1.9-4.6-4.3-4.6-7.5c0-1.6,0.4-3.1,1.2-4.4c0.8-1.3,2-2.3,3.6-3
						c1.5-0.7,3.3-1.1,5.2-1.1l1.8,0c-1.9,0-3.7,0.4-5.2,1.1c-1.5,0.7-2.7,1.7-3.6,3c-0.8,1.3-1.2,2.7-1.2,4.4
						c0,3.1,1.5,5.6,4.6,7.5c1.1,0.7,2.7,1.4,4.6,2.1c1.9,0.7,3.3,1.4,4,2c0.7,0.6,1.1,1.5,1.1,2.7c0,1.1-0.4,1.9-1.1,2.5
						C84.7,57.8,83.7,58.1,82.3,58.1z"/>
				</defs>
				<clipPath id="SVGID_14_">
					<use xlink:href="#SVGID_13_"  style="overflow:visible;"/>
				</clipPath>
				<g class="st17">
					<path class="st12" d="M82.3,58.1h-1.8c1.3,0,2.4-0.3,3.1-0.9c0.2-0.2,0.4-0.4,0.5-0.6H86c-0.2,0.2-0.3,0.4-0.5,0.6
						C84.7,57.8,83.7,58.1,82.3,58.1"/>
					<path class="st11" d="M86,56.6h-1.8c0.2-0.3,0.4-0.6,0.5-1h1.8C86.3,56,86.2,56.3,86,56.6"/>
					<path class="st10" d="M86.4,55.6h-1.8c0.1-0.3,0.1-0.6,0.1-1c0-0.9-0.2-1.6-0.7-2.2h1.8c0.4,0.6,0.7,1.3,0.7,2.2
						C86.6,55,86.5,55.3,86.4,55.6"/>
					<path class="st11" d="M85.9,52.4l-1.8,0c-0.1-0.2-0.3-0.3-0.5-0.5c-0.3-0.2-0.6-0.5-1.1-0.7h1.8c0.4,0.2,0.8,0.5,1.1,0.7
						C85.6,52.1,85.8,52.3,85.9,52.4"/>
					<path class="st12" d="M84.4,51.2h-1.8c-0.7-0.4-1.7-0.8-3-1.3c-1.7-0.6-3.1-1.2-4.2-1.8h1.8c1.1,0.6,2.5,1.2,4.2,1.8
						C82.6,50.4,83.6,50.8,84.4,51.2"/>
					<path class="st11" d="M77.2,48.1h-1.8c-0.1-0.1-0.3-0.1-0.4-0.2c-1.3-0.8-2.3-1.6-3-2.6l1.8,0c0.7,1,1.8,1.9,3,2.6
						C76.9,48,77.1,48,77.2,48.1"/>
					<path class="st10" d="M73.8,45.3l-1.8,0c-1.1-1.4-1.6-3-1.6-4.9c0-0.8,0.1-1.5,0.3-2.1h1.8c-0.2,0.7-0.3,1.4-0.3,2.1
						C72.2,42.2,72.7,43.9,73.8,45.3"/>
					<path class="st11" d="M72.5,38.3h-1.8c0.2-0.8,0.5-1.5,1-2.2c0.1-0.1,0.2-0.3,0.3-0.4h1.8c-0.1,0.1-0.2,0.3-0.3,0.4
						C73,36.7,72.7,37.5,72.5,38.3"/>
					<path class="st12" d="M73.7,35.6h-1.8c0.8-1.1,1.9-2,3.3-2.6c1.5-0.7,3.3-1.1,5.2-1.1h1.8c-1.9,0-3.7,0.4-5.2,1.1
						C75.6,33.7,74.5,34.6,73.7,35.6"/>
				</g>
			</g>
			<g class="st8">
				<defs>
					<path id="SVGID_15_" class="st8" d="M82.3,63h-1.8c-2.1,0-4-0.4-5.7-1.3c-1.7-0.8-3-2-3.9-3.5c-0.9-1.5-1.4-3.2-1.4-5.1l1.8,0
						c0,1.9,0.5,3.7,1.4,5.1c0.9,1.5,2.2,2.6,3.9,3.5C78.3,62.5,80.2,63,82.3,63z"/>
				</defs>
				<clipPath id="SVGID_16_">
					<use xlink:href="#SVGID_15_"  style="overflow:visible;"/>
				</clipPath>
				<g class="st18">
					<path class="st12" d="M82.3,63h-1.8c-2.1,0-4-0.4-5.7-1.3c-0.2-0.1-0.3-0.2-0.5-0.3h1.8c0.2,0.1,0.3,0.2,0.5,0.3
						C78.3,62.5,80.2,63,82.3,63"/>
					<path class="st11" d="M76.1,61.4h-1.8c-1.2-0.7-2.2-1.5-2.9-2.5h1.8C74,59.9,74.9,60.8,76.1,61.4"/>
					<path class="st10" d="M73.2,58.9h-1.8c-0.2-0.2-0.3-0.5-0.5-0.7c-0.9-1.5-1.4-3.2-1.4-5.1h1.8c0,1.9,0.5,3.7,1.4,5.1
						C72.9,58.5,73,58.7,73.2,58.9"/>
				</g>
			</g>
			<g>
				<path class="st15" d="M82.2,32c1.9,0,3.7,0.4,5.2,1.2c1.5,0.8,2.7,1.9,3.5,3.3c0.8,1.4,1.3,3,1.3,4.9h-5.6
					c0-1.4-0.4-2.4-1.2-3.2s-1.9-1.2-3.3-1.2c-1.4,0-2.4,0.3-3.2,1c-0.8,0.6-1.1,1.5-1.1,2.5c0,1,0.4,1.8,1.3,2.5
					c0.9,0.7,2.2,1.3,3.9,1.9c3.2,1.1,5.5,2.4,6.9,4c1.5,1.6,2.2,3.5,2.2,5.9c0,2.6-0.9,4.7-2.7,6.1c-1.8,1.5-4.2,2.2-7.2,2.2
					c-2.1,0-4-0.4-5.7-1.3c-1.7-0.8-3-2-3.9-3.5c-0.9-1.5-1.4-3.2-1.4-5.1H77c0,3.3,1.8,5,5.4,5c1.3,0,2.4-0.3,3.1-0.9
					c0.7-0.6,1.1-1.4,1.1-2.5c0-1.2-0.4-2.1-1.1-2.7c-0.7-0.6-2.1-1.3-4-2c-1.9-0.7-3.5-1.4-4.6-2.1c-3.1-1.9-4.6-4.3-4.6-7.5
					c0-1.6,0.4-3.1,1.2-4.4c0.8-1.3,2-2.3,3.6-3C78.5,32.3,80.3,32,82.2,32z"/>
			</g>
		</g>
		<g class="st8">
			<g>
				<polygon class="st19" points="103.5,57.6 101.7,57.6 113.6,57.6 115.3,57.6 				"/>
			</g>
			<g>
				<rect x="96.1" y="32.4" class="st20" width="1.8" height="30.2"/>
			</g>
			<g>
				<polygon class="st15" points="103.5,32.4 103.5,57.6 115.3,57.6 115.3,62.6 97.9,62.6 97.9,32.4 				"/>
			</g>
		</g>
	</g>
</g>
<g>
	<g>
		<path class="st21" d="M70.1,80.6c0-5.9,4.5-10.7,10.3-11.2c-0.3,0-0.5,0-0.8,0c-6,0-10.4,5.1-10.4,11.2v7.8h0.9V80.6z"/>
		<path class="st4" d="M88.7,80.4c0-4.2-3.4-7.7-7.6-7.7c0,0,0,0-0.1,0c-0.2,0-0.4,0-0.6,0c3.9,0.4,6.9,3.7,6.9,7.7v7.8h1.4V80.4z"
			/>
		<path class="st22" d="M82.7,102.4c1.6-0.8,2.6-2.4,2.6-4.2c0.1-2.4-1.8-4.4-4.2-4.4c0,0-0.1,0-0.1,0c-0.2,0-0.4,0-0.6,0.1
			c2.1,0.4,3.6,2.2,3.6,4.4c0,1.8-1,3.4-2.6,4.2l1.6,7.9l-5.5,0.1v0l6.9-0.2L82.7,102.4z"/>
		<path class="st23" d="M65.2,103.7V89.4c0-1.5,1.2-2.1,2.7-2.1L93.1,87h-0.3l-26.2,0.2c-1.5,0-2.7,0.6-2.7,2.1v14.3
			c0,8.9,7.1,16.1,15.9,16h0.5C71.9,119.3,65.2,112.3,65.2,103.7z"/>
		<path class="st24" d="M91.8,88.2l-3.3,0v-7.8c0-4.2-3.4-7.7-7.6-7.7c0,0,0,0-0.1,0c-4.3,0.1-7.7,3.6-7.7,7.8v7.8l-3.3,0v-7.8
			c0-6.1,4.9-11.2,10.9-11.2c6,0,10.9,4.9,10.9,11c0,0,0,0.1,0,0.1L91.8,88.2z"/>
		<linearGradient id="SVGID_17_" gradientUnits="userSpaceOnUse" x1="64.7905" y1="103.3509" x2="96.4994" y2="103.3509">
			<stop  offset="0" style="stop-color:#008C60"/>
			<stop  offset="1" style="stop-color:#77F251"/>
		</linearGradient>
		<path class="st25" d="M93.8,87l-26.2,0.2c-1.5,0-2.7,0.6-2.7,2.1v14.3c0,8.9,7.1,16.1,15.9,16c8.7-0.1,15.9-7.4,15.8-16.3V89.1
			C96.5,87.6,95.3,87,93.8,87z M83.9,110.2l-6.9,0.2l1.6-8c-1.5-0.8-2.5-2.3-2.4-4c0-2.5,1.9-4.5,4.4-4.6c2.4,0,4.4,1.9,4.4,4.3
			c0,0,0,0.1,0,0.1c0,1.8-1,3.4-2.6,4.2L83.9,110.2z"/>
		
			<linearGradient id="SVGID_18_" gradientUnits="userSpaceOnUse" x1="65.8237" y1="51.1259" x2="94.4484" y2="51.1259" gradientTransform="matrix(1 0 0 -1 0 152)">
			<stop  offset="0.1" style="stop-color:#FFFFFF"/>
			<stop  offset="0.87" style="stop-color:#FFFFFF;stop-opacity:0.1"/>
		</linearGradient>
		<path class="st26" d="M92,88.2l-23.7,0.2c-1.4,0-2.5,0.6-2.5,1.9v12.9c0,3.8,1.5,7.5,4.2,10.3l24.4-23.4
			C94.5,88.8,93.3,88.2,92,88.2z M83.1,109.2l-6.2,0.1l1.4-7.2c-1.4-0.7-2.2-2.1-2.2-3.6c0-2.2,1.7-4.1,3.9-4.2
			c2.2,0,3.9,1.7,3.9,3.9c0,0,0,0.1,0,0.1c0,1.6-0.9,3.1-2.3,3.8L83.1,109.2z"/>
		<path class="st27" d="M71.6,80.2c0,0,0-0.2-0.1-0.6l0-0.3c0-0.1,0-0.3,0-0.4c0-0.1,0-0.3,0-0.5c0-0.2,0-0.3,0.1-0.5
			c0-0.2,0.1-0.4,0.1-0.6l0.2-0.6c0.1-0.4,0.3-0.8,0.5-1.2c0.2-0.4,0.4-0.8,0.7-1.2c0.3-0.4,0.6-0.8,0.9-1.1c0.3-0.3,0.7-0.7,1.1-1
			c0.4-0.3,0.8-0.5,1.2-0.8c0.4-0.2,0.8-0.4,1.2-0.5l0.6-0.2l0.5-0.1c0.3-0.1,0.6-0.1,1-0.1l0.4,0h0.3l0.7,0l-0.6,0.1l-0.3,0.1
			l-0.4,0.1c-0.3,0.1-0.6,0.2-0.9,0.3l-0.5,0.2l-0.5,0.2c-0.4,0.1-0.7,0.4-1.1,0.6c-0.4,0.2-0.7,0.5-1.1,0.8c-0.4,0.3-0.7,0.6-1,0.9
			c-0.3,0.3-0.6,0.7-0.9,1c-0.3,0.4-0.5,0.7-0.7,1.1c-0.1,0.2-0.2,0.4-0.3,0.6c-0.1,0.2-0.2,0.4-0.2,0.6c-0.1,0.2-0.1,0.4-0.2,0.5
			L72,77.9c-0.1,0.3-0.2,0.6-0.2,0.9c0,0.1-0.1,0.3-0.1,0.4c0,0.1,0,0.2,0,0.3C71.6,80,71.6,80.2,71.6,80.2z"/>
		<g class="st28">
			<polygon class="st29" points="76.7,91.8 76.3,91.8 76.2,87.2 76.6,87.2 			"/>
			<polygon class="st29" points="84,91.8 83.5,91.8 83.5,87.1 83.9,87.1 			"/>
		</g>
		<g class="st30">
			
				<rect x="64.8" y="99" transform="matrix(1 -5.235964e-03 5.235964e-03 1 -0.5184 0.3561)" class="st31" width="5.9" height="0.4"/>
			
				<rect x="64.8" y="98.5" transform="matrix(1 -5.235964e-03 5.235964e-03 1 -0.5158 0.3561)" class="st29" width="5.9" height="0.4"/>
		</g>
		<g class="st30">
			
				<rect x="90" y="98.9" transform="matrix(1 -3.839715e-03 3.839715e-03 1 -0.3798 0.3588)" class="st31" width="6.6" height="0.4"/>
			<polygon class="st29" points="96.5,98.8 90,98.8 90,98.4 96.5,98.4 			"/>
		</g>
		<path class="st32" d="M86.8,110.7l-12.8,0c-0.9,0-1.6-0.7-1.6-1.6c0,0,0,0,0,0L72.3,95c0-0.9,0.7-1.6,1.5-1.6l12.8-0.1
			c0.9,0,1.6,0.7,1.6,1.6c0,0,0,0,0,0l0,14.1C88.3,110,87.6,110.7,86.8,110.7z"/>
		<path class="st33" d="M83.2,107.7L83.2,107.7l-5.6,0.1l1.5-5.3c-0.6-0.3-1.1-0.8-1.4-1.4c-0.8-1.6-0.2-3.5,1.3-4.4
			c0.7-0.4,1.5-0.5,2.2-0.3c0.9,0.3,1.6,0.9,2,1.6c0.8,1.6,0.2,3.5-1.3,4.4c-0.1,0.1-0.2,0.1-0.2,0.2L83.2,107.7z"/>
		<path class="st34" d="M81.8,102.6c0.1,0,0.2-0.1,0.2-0.2c1.5-0.9,2.1-2.8,1.3-4.4c-0.4-0.8-1.1-1.4-2-1.6c-0.3-0.1-0.7-0.1-1-0.1
			c0.2,0,0.4,0,0.5,0.1c0.8,0.3,1.5,0.9,1.9,1.6c0.8,1.5,0,3.6-1.5,4.4c-0.1,0.1-0.2,0.1-0.2,0.1l1.5,5.2h0.7l0-0.1L81.8,102.6z"/>
		<path class="st29" d="M86.5,112.5L86.5,112.5l-12.3,0c-1.9,0-3.5-1.6-3.5-3.6l-0.1-13.5c0-1.9,1.5-3.5,3.4-3.6l12.3-0.1l0,0
			c0.9,0,1.8,0.4,2.4,1c0.7,0.7,1.1,1.6,1.1,2.6l0,13.6c0,0.9-0.4,1.8-1,2.5C88.4,112.1,87.5,112.5,86.5,112.5z M86.5,92.2
			L86.5,92.2l-12.3,0.1c-1.7,0-3,1.5-3,3.2l0.1,13.5c0,1.7,1.3,3.1,3,3.1l12.3,0l0,0c0.8,0,1.6-0.3,2.1-0.9c0.6-0.6,0.9-1.4,0.9-2.2
			l0-13.6c0-0.9-0.3-1.7-0.9-2.3C88,92.5,87.3,92.2,86.5,92.2z"/>
		<path class="st4" d="M87.6,110.4L87.6,110.4c0.8-0.5,0.8-1.1,0.8-2.4l0-12.8c0-1-0.8-1.9-1.8-1.9l-11.6,0.1c-1.5,0-1.8,0-2.4,0.9
			l14-0.1c0.6,0,1,0.5,1,1c0,0,0,0,0,0L87.6,110.4"/>
	</g>
</g>
</svg>
