<svg id="Layer_1" data-name="Layer 1" xmlns="http://www.w3.org/2000/svg" viewBox="0 0 120 120"><defs><style>.cls-1{fill:#0071bc;}.cls-2{fill:#fff;}.cls-3{fill:#1b1464;}.cls-4{fill:#ec9700;}</style></defs><title>total</title><path class="cls-1" d="M44,33.87H78.89a0,0,0,0,1,0,0v1.74a8.48,8.48,0,0,1-8.48,8.48H44a0,0,0,0,1,0,0V33.87A0,0,0,0,1,44,33.87Z"/><circle class="cls-1" cx="87.94" cy="49.4" r="11.25"/><circle class="cls-2" cx="87.94" cy="49.4" r="7.99"/><path class="cls-3" d="M99.82,97.17H89V83.83L94.43,87a1.26,1.26,0,0,0,1.88-1.08V61.68A15.05,15.05,0,0,0,99,39.51a1.26,1.26,0,0,0-1.89,1.65c7,8,1.25,20.74-9.39,20.71a12.48,12.48,0,1,1,4.48-24.14,1.26,1.26,0,0,0,.91-2.35,15.18,15.18,0,0,0-4.14-1v-4.3a8.71,8.71,0,0,0-8.7-8.7c-.31.05-55.17-.09-55.43.05a8.71,8.71,0,0,0-7.82,8.65,1.25,1.25,0,0,0,1.26,1.25H32V98.43a8.7,8.7,0,0,0,8.7,8.69H92.37a8.71,8.71,0,0,0,8.71-8.69,1.25,1.25,0,0,0-1.26-1.26ZM81.7,63.1a14.93,14.93,0,0,0,5.56,1.27v6.45L81.7,73.56ZM93.8,83.71l-7.23-4.19V74l2.49-1.23a1.26,1.26,0,0,0,.71-1.12V64.24a14.81,14.81,0,0,0,4-1.14ZM74.13,43.11H44V33.87H77.26v4.62a.91.91,0,0,0,0,.17,15.15,15.15,0,0,0-3.14,4.45ZM19.69,28.87a6.21,6.21,0,0,1,12.14,0Zm72.68,75.74H46.78a8.66,8.66,0,0,0,2.5-4.93h5.26a1.26,1.26,0,0,0,0-2.51H48.12a1.25,1.25,0,0,0-1.26,1.25,6.2,6.2,0,0,1-12.39,0V30.13a8.68,8.68,0,0,0-2.6-6.19H80.3a6.2,6.2,0,0,1,6.19,6.19v4.3a15,15,0,0,0-6.72,2.26V32.62a1.27,1.27,0,0,0-1.26-1.26H42.72a1.26,1.26,0,0,0-1.25,1.26V44.37a1.25,1.25,0,0,0,1.25,1.25H73.23a15.08,15.08,0,0,0,6,16.06V75.57A1.26,1.26,0,0,0,81,76.7l3.07-1.51v5.06a1.26,1.26,0,0,0,.62,1.08l1.81,1V97.17H61.22a1.26,1.26,0,0,0,0,2.51H98.44a6.2,6.2,0,0,1-6.07,4.93Z"/><path class="cls-3" d="M45,56.27H66.27a1.26,1.26,0,0,0,0-2.51H45A1.26,1.26,0,0,0,45,56.27Z"/><path class="cls-3" d="M45,64.5H59.5a1.26,1.26,0,0,0,0-2.51H45A1.26,1.26,0,0,0,45,64.5Z"/><path class="cls-3" d="M45,72.73H72.5a1.26,1.26,0,0,0,0-2.52H45A1.26,1.26,0,0,0,45,72.73Z"/><path class="cls-3" d="M63.18,89.45a22.14,22.14,0,0,0,2.69-1.29A1.26,1.26,0,0,0,64.6,86a18.13,18.13,0,0,1-2.07,1,7.17,7.17,0,0,1-1.42.47c-.14-1-.38-2.32-1.67-2.73a3.8,3.8,0,0,0-2.93.65c-.76.4-1.58.92-2.33,1.24.54-2.87-.65-5.55-4-3.79a20.83,20.83,0,0,0-6.15,5.57,1.29,1.29,0,0,0,0,1.77,1.26,1.26,0,0,0,1.77,0,21.4,21.4,0,0,1,5.11-4.85l1-.5c0,.33-.07.66-.11,1a4.85,4.85,0,0,0-.14,2.3c.8,2.61,4.19.49,5.57-.26.41-.22.81-.46,1.24-.65-.06,0,0,0,.1,0l0,.09a3,3,0,0,0,1,2.38c1.07.7,2.54.18,3.61-.25ZM58.51,87h0Z"/><path class="cls-3" d="M87.75,40.82a8.57,8.57,0,0,0-8.55,8.56c.47,11.35,16.63,11.35,17.1,0A8.57,8.57,0,0,0,87.75,40.82Zm0,14.61a6,6,0,1,1,6-6A6.06,6.06,0,0,1,87.75,55.43Z"/><circle class="cls-4" cx="87.7" cy="49.4" r="5.07"/></svg>