<?xml version="1.0" encoding="utf-8"?>
<!-- Generator: Adobe Illustrator 23.0.3, SVG Export Plug-In . SVG Version: 6.00 Build 0)  -->
<!DOCTYPE svg PUBLIC "-//W3C//DTD SVG 1.1//EN" "http://www.w3.org/Graphics/SVG/1.1/DTD/svg11.dtd" [
	<!ENTITY ns_extend "http://ns.adobe.com/Extensibility/1.0/">
	<!ENTITY ns_ai "http://ns.adobe.com/AdobeIllustrator/10.0/">
	<!ENTITY ns_graphs "http://ns.adobe.com/Graphs/1.0/">
	<!ENTITY ns_vars "http://ns.adobe.com/Variables/1.0/">
	<!ENTITY ns_imrep "http://ns.adobe.com/ImageReplacement/1.0/">
	<!ENTITY ns_sfw "http://ns.adobe.com/SaveForWeb/1.0/">
	<!ENTITY ns_custom "http://ns.adobe.com/GenericCustomNamespace/1.0/">
	<!ENTITY ns_adobe_xpath "http://ns.adobe.com/XPath/1.0/">
]>
<svg version="1.1" id="Layer_1" xmlns:x="&ns_extend;" xmlns:i="&ns_ai;" xmlns:graph="&ns_graphs;"
	 xmlns="http://www.w3.org/2000/svg" xmlns:xlink="http://www.w3.org/1999/xlink" x="0px" y="0px" viewBox="0 0 120 120"
	 style="enable-background:new 0 0 120 120;" xml:space="preserve">
<style type="text/css">
	.st0{fill:#FFFFFF;stroke:#1B1464;stroke-width:1.8;stroke-miterlimit:10;}
	.st1{fill:#0071BC;stroke:#1B1464;stroke-width:1.8;stroke-miterlimit:10;}
	.st2{opacity:0.42;fill:#D4E1F4;enable-background:new    ;}
	.st3{fill:#FFFFFF;}
	.st4{fill:#EC9700;stroke:#1B1464;stroke-width:1.8;stroke-linecap:round;stroke-miterlimit:10;}
	.st5{fill:#FFFFFF;stroke:#1B1464;stroke-width:1.8;stroke-linecap:round;stroke-miterlimit:10;}
	.st6{fill:#1B1464;}
	.st7{fill:#0071BC;}
</style>
<metadata>
	<sfw  xmlns="&ns_sfw;">
		<slices></slices>
		<sliceSourceBounds  bottomLeftOrigin="true" height="96.3" width="93.1" x="13.8" y="8.2"></sliceSourceBounds>
	</sfw>
</metadata>
<title>total</title>
<path class="st0" d="M76.7,94.1h5.5c1.5,0,2.7,1.2,2.7,2.7v11.3c0,1.5-1.2,2.7-2.7,2.7h-5.5c-1.5,0-2.7-1.2-2.7-2.7V96.8
	C74,95.3,75.2,94.1,76.7,94.1z"/>
<path class="st0" d="M37.3,94.1h5.5c1.5,0,2.7,1.2,2.7,2.7v11.3c0,1.5-1.2,2.7-2.7,2.7h-5.5c-1.5,0-2.7-1.2-2.7-2.7V96.8
	C34.5,95.3,35.8,94.1,37.3,94.1z"/>
<path class="st1" d="M27.7,28.3H91c1.9,0,3.4,1.5,3.4,3.4v69.9c0,1.9-1.5,3.4-3.4,3.4H27.7c-1.9,0-3.4-1.5-3.4-3.4V31.7
	C24.3,29.8,25.8,28.3,27.7,28.3z"/>
<path class="st2" d="M27.3,26.8h64.3c0.8,0,1.5,0.7,1.5,1.5v74c0,0.8-0.7,1.5-1.5,1.5H27.3c-0.8,0-1.5-0.7-1.5-1.5v-74
	C25.8,27.5,26.4,26.8,27.3,26.8z"/>
<path class="st1" d="M21.9,26.8h69.9c1.9,0,3.4,1.5,3.4,3.4v12.9c0,1.9-1.5,3.4-3.4,3.4H21.9c-1.9,0-3.4-1.5-3.4-3.4V30.3
	C18.5,28.4,20,26.8,21.9,26.8z"/>
<path class="st3" d="M82.7,41.8c2.7,0.2,5-1.8,5.2-4.5c0.2-2.7-1.8-5-4.5-5.2c-2.7-0.2-5,1.8-5.2,4.5c0,0,0,0,0,0c0,0.1,0,0.2,0,0.3
	C78.2,39.5,80.2,41.7,82.7,41.8z M82.7,34.9c1.1-0.1,2.1,0.8,2.2,1.9c0.1,1.1-0.8,2.1-1.9,2.2c-1.1,0.1-2.1-0.8-2.2-1.9c0,0,0,0,0,0
	c0-0.1,0-0.1,0-0.2C80.8,35.8,81.6,34.9,82.7,34.9C82.8,34.8,82.8,34.8,82.7,34.9L82.7,34.9L82.7,34.9z"/>
<path class="st3" d="M70.6,41.8c2.7,0.2,5-1.8,5.2-4.5c0.2-2.7-1.8-5-4.5-5.2s-5,1.8-5.2,4.5c0,0,0,0,0,0c0,0.1,0,0.2,0,0.3
	C66,39.5,68,41.7,70.6,41.8z M70.6,34.9c1.1-0.1,2.1,0.8,2.2,1.9s-0.8,2.1-1.9,2.2c-1.1,0.1-2.1-0.8-2.2-1.9c0,0,0,0,0,0
	c0-0.1,0-0.1,0-0.2C68.6,35.8,69.5,34.9,70.6,34.9C70.6,34.8,70.6,34.8,70.6,34.9L70.6,34.9L70.6,34.9z"/>
<path class="st1" d="M21.9,52h75.7c1.9,0,3.4,1.5,3.4,3.4v12.9c0,1.9-1.5,3.4-3.4,3.4H21.9c-1.9,0-3.4-1.5-3.4-3.4V55.5
	C18.5,53.6,20,52,21.9,52z"/>
<path class="st3" d="M29.5,66h4.4c0.8,0,1.4-0.6,1.4-1.4c0-0.8-0.6-1.4-1.4-1.4h-4.4c-0.8,0-1.4,0.6-1.4,1.4
	C28.1,65.4,28.8,66,29.5,66z"/>
<path class="st3" d="M40,66h4.4c0.8,0,1.4-0.6,1.4-1.4c0-0.8-0.6-1.4-1.4-1.4H40c-0.8,0-1.4,0.6-1.4,1.4S39.2,66,40,66
	C40,66,40,66,40,66z"/>
<path class="st3" d="M50.4,66h4.4c0.8,0,1.4-0.6,1.4-1.4c0-0.8-0.6-1.4-1.4-1.4h-4.4c-0.8,0-1.4,0.6-1.4,1.4
	C49,65.4,49.6,66,50.4,66z"/>
<path class="st3" d="M29.5,60.3h4.4c0.8,0,1.4-0.6,1.4-1.4c0-0.8-0.6-1.4-1.4-1.4h-4.4c-0.8,0-1.4,0.6-1.4,1.4
	C28.1,59.7,28.8,60.3,29.5,60.3z"/>
<path class="st3" d="M40,60.3h4.4c0.8,0,1.4-0.6,1.4-1.4c0-0.8-0.6-1.4-1.4-1.4H40c-0.8,0-1.4,0.6-1.4,1.4
	C38.6,59.7,39.2,60.3,40,60.3z"/>
<path class="st3" d="M50.4,60.3h4.4c0.8,0,1.4-0.6,1.4-1.4c0-0.8-0.6-1.4-1.4-1.4h-4.4c-0.8,0-1.4,0.6-1.4,1.4
	C49,59.7,49.6,60.3,50.4,60.3z"/>
<path class="st3" d="M87.6,66.6c2.7,0,4.8-2.2,4.8-4.8c0-2.7-2.2-4.8-4.8-4.8c-2.7,0-4.8,2.2-4.8,4.8C82.8,64.4,84.9,66.6,87.6,66.6
	L87.6,66.6z M87.6,59.7c1.1,0,2.1,0.9,2.1,2.1c0,1.1-0.9,2.1-2.1,2.1c-1.1,0-2.1-0.9-2.1-2.1l0,0C85.5,60.6,86.4,59.7,87.6,59.7
	C87.6,59.7,87.6,59.7,87.6,59.7L87.6,59.7L87.6,59.7z"/>
<path class="st3" d="M74.5,66.6c2.7,0,4.8-2.2,4.9-4.8c0-2.7-2.2-4.8-4.8-4.9c-2.7,0-4.8,2.2-4.9,4.8C69.7,64.4,71.9,66.6,74.5,66.6
	C74.5,66.6,74.5,66.6,74.5,66.6z M74.5,59.7c1.1,0,2.1,0.9,2.1,2.1c0,1.1-0.9,2.1-2.1,2.1c-1.1,0-2.1-0.9-2.1-2.1l0,0
	C72.5,60.6,73.4,59.7,74.5,59.7C74.5,59.7,74.5,59.7,74.5,59.7L74.5,59.7L74.5,59.7z"/>
<path class="st1" d="M21.9,77.3h75.7c1.9,0,3.4,1.5,3.4,3.4v12.9c0,1.9-1.5,3.4-3.4,3.4H21.9c-1.9,0-3.4-1.5-3.4-3.4V80.7
	C18.5,78.8,20,77.3,21.9,77.3z"/>
<path class="st3" d="M29.5,91.6h4.4c0.8,0,1.4-0.6,1.4-1.4c0-0.8-0.6-1.4-1.4-1.4h-4.4c-0.8,0-1.4,0.6-1.4,1.4
	C28.1,90.9,28.8,91.6,29.5,91.6z"/>
<path class="st3" d="M40,91.6h4.4c0.8,0,1.4-0.6,1.4-1.4c0-0.8-0.6-1.4-1.4-1.4H40c-0.8,0-1.4,0.6-1.4,1.4S39.2,91.6,40,91.6
	C40,91.6,40,91.6,40,91.6z"/>
<path class="st3" d="M50.4,91.6h4.4c0.8,0,1.4-0.6,1.4-1.4c0-0.8-0.6-1.4-1.4-1.4h-4.4c-0.8,0-1.4,0.6-1.4,1.4
	C49,90.9,49.6,91.6,50.4,91.6z"/>
<path class="st3" d="M29.5,85.9h4.4c0.8,0,1.4-0.6,1.4-1.4c0-0.8-0.6-1.4-1.4-1.4h-4.4c-0.8,0-1.4,0.6-1.4,1.4
	C28.1,85.3,28.8,85.9,29.5,85.9z"/>
<path class="st3" d="M40,85.9h4.4c0.8,0,1.4-0.6,1.4-1.4c0-0.8-0.6-1.4-1.4-1.4H40c-0.8,0-1.4,0.6-1.4,1.4
	C38.6,85.3,39.2,85.9,40,85.9z"/>
<path class="st3" d="M50.4,85.9h4.4c0.8,0,1.4-0.6,1.4-1.4c0-0.8-0.6-1.4-1.4-1.4h-4.4c-0.8,0-1.4,0.6-1.4,1.4
	C49,85.3,49.6,85.9,50.4,85.9z"/>
<path class="st3" d="M87.6,92.2c2.7,0,4.8-2.2,4.8-4.8c0-2.7-2.2-4.8-4.8-4.8c-2.7,0-4.8,2.2-4.8,4.8C82.8,90,84.9,92.2,87.6,92.2
	L87.6,92.2z M87.6,85.3c1.1,0,2.1,0.9,2.1,2.1c0,1.1-0.9,2.1-2.1,2.1c-1.1,0-2.1-0.9-2.1-2.1l0,0C85.5,86.2,86.4,85.3,87.6,85.3
	C87.6,85.3,87.6,85.3,87.6,85.3L87.6,85.3L87.6,85.3z"/>
<path class="st3" d="M74.5,92.2c2.7,0,4.8-2.2,4.9-4.8c0-2.7-2.2-4.8-4.8-4.9c-2.7,0-4.8,2.2-4.9,4.8C69.7,90,71.9,92.2,74.5,92.2
	C74.5,92.2,74.5,92.2,74.5,92.2z M74.5,85.3c1.1,0,2.1,0.9,2.1,2.1c0,1.1-0.9,2.1-2.1,2.1c-1.1,0-2.1-0.9-2.1-2.1l0,0
	C72.5,86.2,73.4,85.3,74.5,85.3C74.5,85.3,74.5,85.3,74.5,85.3L74.5,85.3L74.5,85.3z"/>
<path class="st4" d="M67,19.8c-2.4,2.8-3.1,6.6-1.9,10.1c-4.7,0.2-8.3,4.1-8.1,8.8c0.2,4.5,3.9,8.1,8.4,8.1h31.3
	c5.1,0,9.3-4.1,9.4-9.3c0-5.1-4.1-9.3-9.3-9.4c-0.7,0-1.3,0.1-2,0.2c-0.8-4.1-4.8-6.8-8.9-6c-0.6,0.1-1.2,0.3-1.7,0.6
	c-2.3-5-5.2-6.9-9.2-6.6"/>
<path class="st5" d="M71.4,16.4c-0.6,0.2-1.2,0.4-1.8,0.8"/>
<path class="st6" d="M74.4,32.5h2.4l-3.7,8.8h-2.4L67,32.5h2.7l2.4,5.7L74.4,32.5z"/>
<path class="st6" d="M82.8,32.5c0.7,0,1.4,0.1,2.1,0.4c0.5,0.2,1,0.6,1.3,1.1c0.3,0.5,0.5,1.1,0.5,1.7c0,0.9-0.4,1.8-1,2.3
	c-0.8,0.6-1.8,0.9-2.8,0.9h-1.5v2.3h-2.5v-8.8L82.8,32.5z M82.6,37.1c0.4,0,0.8-0.1,1.1-0.3c0.3-0.2,0.4-0.6,0.4-0.9
	c0-0.4-0.1-0.7-0.4-1c-0.3-0.2-0.7-0.4-1.1-0.3h-1.4v2.6H82.6z"/>
<path class="st6" d="M92.2,41.5c-0.7,0-1.4-0.1-2.1-0.3c-0.6-0.1-1.1-0.4-1.6-0.7l0.8-1.8c0.9,0.6,1.9,0.9,2.9,0.9
	c0.4,0,0.7,0,1.1-0.2c0.2-0.1,0.3-0.3,0.3-0.5c0-0.2-0.1-0.3-0.2-0.4c-0.2-0.1-0.4-0.2-0.6-0.3c-0.3-0.1-0.5-0.1-0.9-0.2l-0.9-0.2
	c-0.3-0.1-0.6-0.2-0.9-0.3c-0.3-0.1-0.5-0.3-0.7-0.5c-0.2-0.2-0.4-0.5-0.5-0.7c-0.1-0.3-0.2-0.7-0.2-1c0-0.5,0.1-1,0.4-1.5
	c0.3-0.5,0.8-0.8,1.3-1c0.7-0.3,1.4-0.4,2.2-0.4c0.6,0,1.1,0.1,1.7,0.2c0.5,0.1,1,0.3,1.5,0.6L95,34.9c-0.7-0.4-1.6-0.7-2.4-0.7
	c-0.3,0-0.6,0-0.8,0.1c-0.2,0-0.3,0.1-0.4,0.3c-0.1,0.1-0.1,0.3-0.1,0.4c0,0.2,0.1,0.3,0.2,0.4c0.2,0.1,0.4,0.2,0.6,0.3
	c0.3,0.1,0.5,0.1,0.8,0.2c0.3,0.1,0.6,0.1,0.9,0.2c0.3,0.1,0.6,0.2,0.9,0.3c0.3,0.1,0.5,0.3,0.7,0.5c0.2,0.2,0.4,0.4,0.5,0.7
	c0.1,0.3,0.2,0.7,0.2,1c0,0.4-0.1,0.7-0.2,1.1c-0.2,0.4-0.4,0.7-0.7,0.9c-0.4,0.3-0.8,0.5-1.2,0.6C93.4,41.4,92.8,41.5,92.2,41.5z"
	/>
<g>
	<path class="st6" d="M30.8,20.8c9.4,0,17,7.6,17,17.1c0,9.4-7.7,17-17.1,17c-9.4,0-17-7.6-17-17C13.8,28.4,21.4,20.8,30.8,20.8z
		 M21.6,37c0.1-2,0.5-4,1.1-5.9c-1.3-0.7-2.6-1.4-4-2.1c-1.7,2.4-2.6,5-2.8,7.9C17.9,37,19.7,37,21.6,37z M45.7,37
		c-0.2-2.9-1.1-5.6-2.8-7.9c-1.3,0.7-2.6,1.4-4,2.1c0.6,1.9,1,3.8,1.1,5.9C42,37,43.8,37,45.7,37z M43,46.5c1.7-2.3,2.6-5,2.8-7.9
		c-1.9,0-3.8,0-5.7,0c-0.1,2-0.4,4-1,5.9C40.4,45.1,41.7,45.8,43,46.5z M16,38.6c0.2,2.9,1.1,5.6,2.8,7.9c1.3-0.7,2.6-1.4,3.9-2
		c-0.6-1.9-0.9-3.9-1-5.9C19.7,38.6,17.9,38.6,16,38.6z M24.1,44c2-0.6,4-1,6-1.1c0-1.5,0-2.9,0-4.4c-2.3,0-4.6,0-7,0
		C23.2,40.4,23.5,42.2,24.1,44z M37.6,44c0.6-1.8,0.9-3.6,1-5.4c-2.3,0-4.7,0-7,0c0,1.5,0,2.9,0,4.4C33.7,43,35.6,43.4,37.6,44z
		 M30.1,37c0-1.5,0-2.9,0-4.4c-2-0.1-4-0.4-6-1c-0.6,1.8-0.9,3.6-1,5.4C25.5,37,27.8,37,30.1,37z M37.6,31.6c-2,0.6-3.9,1-6,1
		c0,1.5,0,2.9,0,4.4c2.3,0,4.6,0,7,0C38.5,35.2,38.2,33.4,37.6,31.6z M30.1,44.4c-1.9,0.1-3.7,0.4-5.5,1c0,0.1,0,0.1,0,0.2
		c1.1,2.7,2.8,5,4.9,7c0.1,0.1,0.3,0.2,0.5,0.3C30.1,49.9,30.1,47.2,30.1,44.4z M37.1,45.4c-1.8-0.6-3.6-0.9-5.5-1
		c0,2.8,0,5.5,0,8.3c0.2-0.1,0.4-0.2,0.6-0.3c0.7-0.7,1.4-1.4,2.1-2.2C35.4,48.8,36.4,47.2,37.1,45.4z M30.1,23c0,0-0.1,0-0.1-0.1
		c-2.3,2-4.1,4.4-5.3,7.3c1.2,0.5,4.5,1.1,5.4,0.9C30.1,28.4,30.1,25.7,30.1,23z M31.6,31.2c1.9-0.1,3.7-0.4,5.5-1
		c-1.2-2.9-3-5.3-5.5-7.4C31.6,25.7,31.6,28.4,31.6,31.2z M42,28c-1.7-2.1-5.8-4.6-7.7-4.6c1.8,1.9,3.1,4,4.1,6.4
		C39.7,29.2,40.8,28.6,42,28z M23.1,29.7c0.7-1.2,1.2-2.3,1.9-3.4c0.7-1.1,1.5-2,2.2-3c-3,0.8-5.5,2.3-7.6,4.6
		C20.9,28.6,22,29.2,23.1,29.7z M34.6,52.2c2.9-0.7,5.4-2.2,7.5-4.5c-1.2-0.6-2.3-1.2-3.5-1.8C37.5,48.2,36.2,50.3,34.6,52.2z
		 M23.2,45.8c-1.2,0.6-2.3,1.2-3.5,1.8c2.1,2.3,4.5,3.8,7.5,4.5C25.5,50.3,24.2,48.2,23.2,45.8z"/>
	<path class="st3" d="M21.6,37c-1.9,0-3.8,0-5.7,0c0.2-2.9,1.1-5.6,2.8-7.9c1.3,0.7,2.6,1.4,4,2.1C22.1,33.1,21.7,35,21.6,37z"/>
	<path class="st7" d="M45.7,37c-1.9,0-3.8,0-5.7,0c-0.1-2-0.4-4-1.1-5.9c1.3-0.7,2.6-1.4,4-2.1C44.6,31.5,45.6,34.1,45.7,37z"/>
	<path class="st7" d="M43,46.5c-1.3-0.7-2.6-1.3-3.9-2c0.6-1.9,1-3.8,1-5.9c1.9,0,3.8,0,5.7,0C45.6,41.5,44.6,44.1,43,46.5z"/>
	<path class="st3" d="M16,38.6c1.9,0,3.7,0,5.7,0c0.1,2,0.4,4,1,5.9c-1.3,0.7-2.6,1.4-3.9,2C17.1,44.1,16.1,41.5,16,38.6z"/>
	<path class="st7" d="M24.1,44c-0.6-1.8-0.9-3.6-1-5.4c2.3,0,4.6,0,7,0c0,1.4,0,2.9,0,4.4C28.1,43,26.1,43.4,24.1,44z"/>
	<path class="st7" d="M37.6,44c-2-0.6-4-1-6-1.1c0-1.5,0-2.9,0-4.4c2.3,0,4.6,0,7,0C38.5,40.4,38.2,42.2,37.6,44z"/>
	<path class="st7" d="M30.1,37c-2.3,0-4.6,0-7,0c0.1-1.9,0.4-3.6,1-5.4c2,0.6,3.9,1,6,1C30.1,34.1,30.1,35.6,30.1,37z"/>
	<path class="st7" d="M37.6,31.6c0.6,1.8,0.9,3.6,1,5.4c-2.3,0-4.6,0-7,0c0-1.5,0-2.9,0-4.4C33.7,32.6,35.6,32.2,37.6,31.6z"/>
	<path class="st7" d="M30.1,44.4c0,2.8,0,5.5,0,8.3c-0.2-0.1-0.4-0.1-0.5-0.3c-2.2-2-3.8-4.3-4.9-7c0,0,0-0.1,0-0.2
		C26.4,44.8,28.2,44.5,30.1,44.4z"/>
	<path class="st7" d="M37.1,45.4c-0.7,1.8-1.7,3.4-2.9,4.9c-0.6,0.8-1.4,1.5-2.1,2.2c-0.1,0.1-0.3,0.2-0.6,0.3c0-2.8,0-5.6,0-8.3
		C33.5,44.5,35.3,44.8,37.1,45.4z"/>
	<path class="st7" d="M30.1,23c0,2.7,0,5.4,0,8.2c-1,0.1-4.2-0.4-5.4-0.9c1.2-2.9,3-5.3,5.3-7.3C30,22.9,30.1,22.9,30.1,23z"/>
	<path class="st7" d="M31.6,31.2c0-2.8,0-5.5,0-8.4c2.4,2.1,4.2,4.5,5.5,7.4C35.3,30.8,33.5,31.1,31.6,31.2z"/>
	<path class="st7" d="M42,28c-1.2,0.6-2.3,1.2-3.5,1.8c-1-2.4-2.4-4.5-4.1-6.4C36.2,23.4,40.3,25.8,42,28z"/>
	<path class="st3" d="M23.1,29.7c-1.1-0.6-2.3-1.2-3.5-1.8c2.1-2.4,4.7-3.9,7.6-4.6c-0.8,1-1.6,2-2.2,3
		C24.4,27.4,23.8,28.5,23.1,29.7z"/>
	<path class="st7" d="M34.6,52.2c1.6-1.9,3-4,3.9-6.4c1.2,0.6,2.3,1.2,3.5,1.8C40,49.9,37.5,51.5,34.6,52.2z"/>
	<path class="st3" d="M23.2,45.8c1,2.4,2.3,4.5,4,6.4c-2.9-0.7-5.4-2.2-7.5-4.5C20.9,47,22,46.4,23.2,45.8z"/>
</g>
</svg>
