<svg id="Layer_1" data-name="Layer 1" xmlns="http://www.w3.org/2000/svg" viewBox="0 0 120 120"><defs><style>.cls-1{fill:none;}.cls-2{fill:#1b1464;}.cls-3{fill:#0071bc;}.cls-4{fill:#ec9700;}.cls-5{fill:#fff;}</style></defs><title>total</title><path class="cls-1" d="M18.24,82.71H9.81a.55.55,0,0,0-.55.56v22.14a.57.57,0,0,0,.55.55h8.43a.58.58,0,0,0,.56-.55V83.27A.59.59,0,0,0,18.24,82.71Z"/><path class="cls-2" d="M83.88,103.75a1.29,1.29,0,0,0-.92,2.19,1.33,1.33,0,0,0,1.82,0,1.29,1.29,0,0,0,0-1.82A1.27,1.27,0,0,0,83.88,103.75Z"/><path class="cls-2" d="M96.79,81.24l-17.3,8.88-.42-.44a6.91,6.91,0,0,0-5-2.14H62.58a3.71,3.71,0,0,1-1.06-.09l-.14-.06a4.57,4.57,0,0,1-.81-.68l-.1-.1c-9-8.43-16.55-7.9-25.18-4.49a6.93,6.93,0,0,1-3.18.69H28.88l-.19-.57A4.76,4.76,0,0,0,24.16,79H15.72A4.78,4.78,0,0,0,11,83.74v22.15a4.77,4.77,0,0,0,4.77,4.76h8.44a4.76,4.76,0,0,0,4.53-3.27l.19-.56h5.34a3.09,3.09,0,0,1,1.13.16l.67.19L57.85,113c.9.24,1.73.48,2.53.71l.18,0a26.9,26.9,0,0,0,7.37,1.46c2.85,0,5.63-1,9-3.27l4.2-3a1.28,1.28,0,0,0,.3-1.79,1.29,1.29,0,0,0-1.79-.3l-4.14,3c-5.87,3.91-8.49,3.15-14.24,1.48l-2.76-.78-22.4-6a5.14,5.14,0,0,0-1.9-.29H28.93V85.38h3.29a9,9,0,0,0,4-.87c7.93-3.13,14.46-3.56,22.48,4l.1.09a4.32,4.32,0,0,0,3.76,1.53H74.05a4.42,4.42,0,0,1,3.86,2.27,4.49,4.49,0,0,1,.55,2.14,4.41,4.41,0,0,1-4.41,4.4H55.45a1.29,1.29,0,0,0,0,2.57h18.6a7,7,0,0,0,7-7A7.08,7.08,0,0,0,80.86,93l-.14-.63L98,83.52a4.22,4.22,0,1,1,4.46,7.16l-15.53,11a1.29,1.29,0,0,0-.3,1.79,1.32,1.32,0,0,0,1.79.3l15.52-11a6.77,6.77,0,0,0-7.11-11.53ZM26.37,105.89a2.23,2.23,0,0,1-2.21,2.2H15.72a2.23,2.23,0,0,1-2.21-2.2V83.74a2.21,2.21,0,0,1,2.21-2.21h8.44a2.24,2.24,0,0,1,2.21,2.21Z"/><path class="cls-3" d="M84.69,52.25v16c0,3.23-5,6-12.37,7.43a58.5,58.5,0,0,1-10.87,1c-12.84,0-23.25-3.77-23.25-8.42V52.23c0,4.65,10.41,8.42,23.25,8.42S84.69,56.9,84.69,52.25Z"/><path class="cls-3" d="M84.69,51.91v.34c0,4.65-10.41,8.42-23.24,8.42S38.2,56.9,38.2,52.25v-16c0,4.65,10.41,8.42,23.25,8.42S84.69,41,84.69,36.3Z"/><path class="cls-3" d="M84.69,20.37V36.3c0,4.65-10.41,8.42-23.24,8.42S38.2,41,38.2,36.3V20.35c0,4.65,10.41,8.42,23.25,8.42S84.69,25,84.69,20.37Z"/><path class="cls-4" d="M61.21,14.15c11,0,20,2.67,20,6s-9,6-20,6-20-2.67-20-6S50.18,14.15,61.21,14.15Z"/><path class="cls-1" d="M39.87,20.35a3,3,0,0,0,1.28,2,8.79,8.79,0,0,0,.78.58,17.27,17.27,0,0,0,3.65,1.77,34.3,34.3,0,0,0,3.4,1c1.22.29,2.5.54,3.85.74a59,59,0,0,0,8.62.61,48.74,48.74,0,0,0,15.86-2.35c4.2-1.52,5.71-3.26,5.71-4.38S81.53,17.51,77.31,16a48.46,48.46,0,0,0-15.86-2.36A48.65,48.65,0,0,0,45.58,16a16.83,16.83,0,0,0-3.65,1.76,8.79,8.79,0,0,0-.78.58A2.94,2.94,0,0,0,39.87,20.35Z"/><path class="cls-1" d="M61.45,46.37a51.64,51.64,0,0,1-17-2.56,20.25,20.25,0,0,1-4.57-2.24V52.25c0,.7.59,1.64,2,2.62a17.07,17.07,0,0,0,3.65,1.76A43.5,43.5,0,0,0,57,58.84c1.44.1,2.92.15,4.43.15s3-.05,4.43-.15a43.5,43.5,0,0,0,11.45-2.21A17.07,17.07,0,0,0,81,54.87c1.47-1,2-1.92,2-2.62V41.57a21.26,21.26,0,0,1-4.56,2.24A51.68,51.68,0,0,1,61.45,46.37Z"/><path class="cls-1" d="M76.69,28.45a38.34,38.34,0,0,1-3.93.95c-.69.14-1.39.26-2.11.37-1.45.21-2.94.38-4.48.49s-3.12.17-4.72.17-3.19-.06-4.73-.17-3-.28-4.47-.49c-.73-.11-1.43-.23-2.12-.37a38.13,38.13,0,0,1-3.92-.95c-.62-.18-1.21-.38-1.78-.59a23,23,0,0,1-2.58-1.09,15.85,15.85,0,0,1-2-1.15V36.3c0,1.12,1.5,2.86,5.7,4.38A48.42,48.42,0,0,0,61.45,43a48.4,48.4,0,0,0,15.88-2.36c4.2-1.52,5.7-3.26,5.7-4.38V25.62a21.26,21.26,0,0,1-4.56,2.24C77.89,28.07,77.3,28.27,76.69,28.45Z"/><path class="cls-1" d="M61.45,62.34a51.64,51.64,0,0,1-17-2.56,20.68,20.68,0,0,1-4.57-2.24V68.31c0,1.11,1.5,2.85,5.7,4.37A48.42,48.42,0,0,0,61.45,75a56.88,56.88,0,0,0,10.56-1,37,37,0,0,0,4.76-1.21,22.26,22.26,0,0,0,2.86-1.18c.28-.15.54-.29.79-.44,1.66-1,2.61-2.06,2.61-3V57.54a21.26,21.26,0,0,1-4.56,2.24A51.68,51.68,0,0,1,61.45,62.34Z"/><path class="cls-2" d="M78.25,13.44a50.64,50.64,0,0,0-16.8-2.54,51,51,0,0,0-16.81,2.52c-4.91,1.78-7.51,4.19-7.51,7V68.31c0,2.77,2.6,5.17,7.51,7a51,51,0,0,0,16.81,2.53,59.88,59.88,0,0,0,11.07-1c8.42-1.61,13.24-4.7,13.24-8.48V20.37C85.76,17.6,83.17,15.21,78.25,13.44Zm-32.88,2A49,49,0,0,1,61.45,13a48.84,48.84,0,0,1,16.07,2.4c5.52,2,6.12,4.14,6.12,5,0,1.72-2.29,3.58-6.12,5a49.58,49.58,0,0,1-16.07,2.38,49.12,49.12,0,0,1-16.08-2.4c-3.83-1.39-6.12-3.25-6.12-5S41.48,16.81,45.37,15.4ZM83.66,57.54V68.31c0,1.15-1,2.38-2.92,3.49a27.34,27.34,0,0,1-8.62,2.9,57.53,57.53,0,0,1-10.67,1,49.4,49.4,0,0,1-16.1-2.39c-3.83-1.39-6.11-3.24-6.11-5V56.37l1,.65a20.64,20.64,0,0,0,4.44,2.18,51.3,51.3,0,0,0,16.81,2.52,51.28,51.28,0,0,0,16.8-2.52A21.1,21.1,0,0,0,82.69,57l1-.63Zm0-16V52.25c0,1.72-2.29,3.58-6.12,5a49.38,49.38,0,0,1-16.09,2.39,49.4,49.4,0,0,1-16.1-2.39c-3.83-1.39-6.11-3.25-6.11-5V40.41l1,.65a20.18,20.18,0,0,0,4.44,2.17,51,51,0,0,0,16.81,2.52,51,51,0,0,0,16.8-2.52,20.63,20.63,0,0,0,4.44-2.18l1-.63Zm0-15.95V36.3c0,1.72-2.29,3.58-6.12,5a49.38,49.38,0,0,1-16.09,2.39,49.4,49.4,0,0,1-16.1-2.39c-3.83-1.39-6.11-3.25-6.11-5V24.46l1,.65a20.18,20.18,0,0,0,4.44,2.17A51,51,0,0,0,61.45,29.8a51,51,0,0,0,16.8-2.52,20.63,20.63,0,0,0,4.44-2.18l1-.63Z"/><path class="cls-5" d="M65.29,34.79H57.6a1.68,1.68,0,1,0,0,3.35h7.69a1.68,1.68,0,1,0,0-3.35Z"/><path class="cls-5" d="M65.29,50.52H57.6a1.68,1.68,0,1,0,0,3.35h7.69a1.68,1.68,0,1,0,0-3.35Z"/><path class="cls-5" d="M65.29,66.76H57.6a1.68,1.68,0,1,0,0,3.35h7.69a1.68,1.68,0,1,0,0-3.35Z"/></svg>