<svg id="e2RuQ8rf6mi1" xmlns="http://www.w3.org/2000/svg" xmlns:xlink="http://www.w3.org/1999/xlink" viewBox="0 0 65 65" shape-rendering="geometricPrecision" text-rendering="geometricPrecision"><style><![CDATA[#e2RuQ8rf6mi13 {animation: e2RuQ8rf6mi13_c_o 4000ms linear infinite normal forwards}@keyframes e2RuQ8rf6mi13_c_o { 0% {opacity: 1} 30% {opacity: 1} 37.5% {opacity: 0} 45% {opacity: 1} 85% {opacity: 1} 92.5% {opacity: 0} 100% {opacity: 1}} #e2RuQ8rf6mi14 {animation: e2RuQ8rf6mi14_c_o 4000ms linear infinite normal forwards}@keyframes e2RuQ8rf6mi14_c_o { 0% {opacity: 1} 22.5% {opacity: 1} 30% {opacity: 0} 37.5% {opacity: 1} 80% {opacity: 1} 87.5% {opacity: 0} 95% {opacity: 1} 100% {opacity: 1}} #e2RuQ8rf6mi15 {animation: e2RuQ8rf6mi15_c_o 4000ms linear infinite normal forwards}@keyframes e2RuQ8rf6mi15_c_o { 0% {opacity: 1} 15% {opacity: 1} 22.5% {opacity: 0} 30% {opacity: 1} 72.5% {opacity: 1} 80% {opacity: 0} 87.5% {opacity: 1} 100% {opacity: 1}} #e2RuQ8rf6mi16 {animation: e2RuQ8rf6mi16_c_o 4000ms linear infinite normal forwards}@keyframes e2RuQ8rf6mi16_c_o { 0% {opacity: 1} 7.5% {opacity: 1} 15% {opacity: 0} 22.5% {opacity: 1} 65% {opacity: 1} 72.5% {opacity: 0} 80% {opacity: 1} 100% {opacity: 1}} #e2RuQ8rf6mi17 {animation: e2RuQ8rf6mi17_c_o 4000ms linear infinite normal forwards}@keyframes e2RuQ8rf6mi17_c_o { 0% {opacity: 1} 7.5% {opacity: 0} 15% {opacity: 1} 57.5% {opacity: 1} 65% {opacity: 0} 72.5% {opacity: 1} 100% {opacity: 1}} #e2RuQ8rf6mi22 {animation: e2RuQ8rf6mi22_c_o 4000ms linear infinite normal forwards}@keyframes e2RuQ8rf6mi22_c_o { 0% {opacity: 0} 50% {opacity: 0;animation-timing-function: cubic-bezier(0.42,0,0.58,1)} 60% {opacity: 1;animation-timing-function: cubic-bezier(0.42,0,0.58,1)} 92.5% {opacity: 1;animation-timing-function: cubic-bezier(0.42,0,0.58,1)} 100% {opacity: 0}} #e2RuQ8rf6mi29 {animation: e2RuQ8rf6mi29_c_o 4000ms linear infinite normal forwards}@keyframes e2RuQ8rf6mi29_c_o { 0% {opacity: 0;animation-timing-function: cubic-bezier(0.42,0,0.58,1)} 7.5% {opacity: 1;animation-timing-function: cubic-bezier(0.42,0,0.58,1)} 42.5% {opacity: 1;animation-timing-function: cubic-bezier(0.42,0,0.58,1)} 50% {opacity: 0} 100% {opacity: 0}} #e2RuQ8rf6mi37 {animation: e2RuQ8rf6mi37_c_o 4000ms linear infinite normal forwards}@keyframes e2RuQ8rf6mi37_c_o { 0% {opacity: 1} 7.5% {opacity: 0} 15% {opacity: 1} 50% {opacity: 1} 57.5% {opacity: 0} 65% {opacity: 1} 100% {opacity: 1}} #e2RuQ8rf6mi38 {animation: e2RuQ8rf6mi38_c_o 4000ms linear infinite normal forwards}@keyframes e2RuQ8rf6mi38_c_o { 0% {opacity: 1} 7.5% {opacity: 1} 15% {opacity: 0} 22.5% {opacity: 1} 57.5% {opacity: 1} 65% {opacity: 0} 72.5% {opacity: 1} 100% {opacity: 1}} #e2RuQ8rf6mi39 {animation: e2RuQ8rf6mi39_c_o 4000ms linear infinite normal forwards}@keyframes e2RuQ8rf6mi39_c_o { 0% {opacity: 1} 17.5% {opacity: 1} 25% {opacity: 0} 32.5% {opacity: 1} 65% {opacity: 1} 72.5% {opacity: 0} 80% {opacity: 1} 100% {opacity: 1}} #e2RuQ8rf6mi40 {animation: e2RuQ8rf6mi40_c_o 4000ms linear infinite normal forwards}@keyframes e2RuQ8rf6mi40_c_o { 0% {opacity: 1} 25% {opacity: 1} 32.5% {opacity: 0} 40% {opacity: 1} 72.5% {opacity: 1} 80% {opacity: 0} 87.5% {opacity: 1} 100% {opacity: 1}} #e2RuQ8rf6mi41 {animation: e2RuQ8rf6mi41_c_o 4000ms linear infinite normal forwards}@keyframes e2RuQ8rf6mi41_c_o { 0% {opacity: 1} 35% {opacity: 1} 42.5% {opacity: 0} 50% {opacity: 1} 80% {opacity: 1} 87.5% {opacity: 0} 95% {opacity: 1} 100% {opacity: 1}}]]></style><g transform="matrix(.441058 0 0 0.441058-1.253013 0.347574)"><path d="M109.2,38.4h-99.4c-1.8,0-3.3-1.5-3.3-3.3v-21.4c0-1.8,1.5-3.3,3.3-3.3h99.5c1.8,0,3.3,1.5,3.3,3.3v21.5c-.1,1.8-1.6,3.2-3.4,3.2Z" fill="#0071bc"/><path d="M109.2,75.4h-99.4c-1.8,0-3.3-1.5-3.3-3.3v-21.4c0-1.8,1.5-3.3,3.3-3.3h99.5c1.8,0,3.3,1.5,3.3,3.3v21.5c-.1,1.8-1.6,3.2-3.4,3.2Z" fill="#0071bc"/><g><path d="M13.9,73.2v-24.1c0-.6.5-1.1,1.2-1.1L9,48c-.6,0-1.2.5-1.2,1.1v24.1c0,.6.5,1.4,1.2,1.4h6c-.6-.1-1.1-.7-1.1-1.4v0Z" opacity="0.43" fill="#d4e1f4"/><path d="M13.9,37v-24.1c0-.6.5-1.1,1.2-1.1h-6.1c-.6,0-1.2.5-1.2,1.1v24.1c0,.6.5,1.4,1.2,1.4h6c-.6-.1-1.1-.8-1.1-1.4v0Z" opacity="0.42" fill="#d4e1f4"/><path d="M79.8,54.2c-2.8,0-5.3,1.6-6.4,4.3-1.1,2.6-.5,5.6,1.5,7.6s4.9,2.6,7.6,1.5c2.6-1.1,4.3-3.6,4.3-6.4c0-3.9-3.1-7-7-7v0Zm0,10.2c-1.4,0-2.6-.8-3.1-2-.5-1.3-.3-2.7.7-3.7.9-.9,2.4-1.2,3.7-.7s2,1.7,2,3.1c0,1.9-1.4,3.3-3.3,3.3v0Z" fill="#fff"/><path d="M97.3,54.2c-2.8,0-5.3,1.6-6.4,4.3-1.1,2.6-.5,5.6,1.5,7.6s4.9,2.6,7.6,1.5c2.6-1.1,4.3-3.6,4.3-6.4c0-3.9-3.2-7-7-7v0Zm0,10.2c-1.4,0-2.6-.8-3.1-2-.5-1.3-.3-2.7.7-3.7.9-.9,2.4-1.2,3.7-.7s2,1.7,2,3.1c.1,1.9-1.5,3.3-3.3,3.3v0Z" fill="#fff"/><path d="M79.8,18c-2.8,0-5.3,1.6-6.4,4.3-1.1,2.6-.5,5.6,1.5,7.6s4.9,2.6,7.6,1.5c2.6-1.1,4.3-3.6,4.3-6.4c0-3.9-3.1-7-7-7v0Zm0,10.2c-1.4,0-2.6-.8-3.1-2-.5-1.3-.3-2.7.7-3.7.9-.9,2.4-1.2,3.7-.7s2,1.7,2,3.1c0,1.9-1.4,3.3-3.3,3.3v0Z" fill="#fff"/><path d="M97.3,18c-2.8,0-5.3,1.6-6.4,4.3-1.1,2.6-.5,5.6,1.5,7.6s4.9,2.6,7.6,1.5c2.6-1.1,4.3-3.6,4.3-6.4c0-3.9-3.2-7-7-7v0Zm0,10.2c-1.4,0-2.6-.8-3.1-2-.5-1.3-.3-2.7.7-3.7.9-.9,2.4-1.2,3.7-.7s2,1.7,2,3.1c.1,1.9-1.5,3.3-3.3,3.3v0Z" fill="#fff"/><g><path id="e2RuQ8rf6mi13" d="M15.1,21.6c-1,0-1.8.8-1.8,1.8v6c0,2.4,3.7,2.4,3.7,0v-6c-.1-1-.9-1.8-1.9-1.8v0Z" fill="#fff"/><path id="e2RuQ8rf6mi14" d="M23.2,21.6c-1,0-1.8.8-1.8,1.8v6c0,2.4,3.7,2.4,3.7,0v-6c-.1-1-.9-1.8-1.9-1.8v0Z" fill="#fff"/><path id="e2RuQ8rf6mi15" d="M31.1,21.6c-1,0-1.8.8-1.8,1.8v6c0,2.4,3.7,2.4,3.7,0v-6c-.1-1-.9-1.8-1.9-1.8v0Z" fill="#fff"/><path id="e2RuQ8rf6mi16" d="M39.2,21.6c-1,0-1.8.8-1.8,1.8v6c0,2.4,3.7,2.4,3.7,0v-6c0-1-.9-1.8-1.9-1.8v0Z" fill="#fff"/><path id="e2RuQ8rf6mi17" d="M47.1,21.6c-1,0-1.8.8-1.8,1.8v6c0,2.4,3.7,2.4,3.7,0v-6c-.1-1-.9-1.8-1.9-1.8v0Z" fill="#fff"/></g><path d="M58.9,133.2c4.5,0,8.3-3.4,8.8-8c.5-4.5-2.6-8.6-7-9.5v-39.4h-3.7v39.4c-4.4.9-7.4,5-7,9.5.6,4.6,4.3,8,8.9,8v0Zm0-14c2.1,0,4,1.3,4.8,3.2s.4,4.2-1.1,5.7-3.8,1.9-5.7,1.1-3.2-2.7-3.2-4.8c0-2.9,2.3-5.2,5.2-5.2v0Z" fill="#1b1464"/><path d="M71.5,94.8h8.8v9.3c-4.1.8-7.1,4.4-7,8.6c0,3.4,1.9,6.5,5,8s6.7,1,9.3-1.1c2.7-2.1,3.8-5.6,3-9-.8-3.3-3.4-5.9-6.8-6.6v-11c0-1-.8-1.8-1.9-1.9h-8.7v-14.8h-3.7v16.7c.2,1,1,1.8,2,1.8v0Zm15.7,17.9c0,2.1-1.3,4-3.2,4.8s-4.2.4-5.7-1.1-1.9-3.8-1.1-5.7s2.7-3.2,4.8-3.2c2.9,0,5.2,2.3,5.2,5.2v0Z" fill="#1b1464"/><path d="M44.3,91.1h-8.7c-1,0-1.8.8-1.9,1.9v4c-3.3.7-5.9,3.3-6.8,6.6-.8,3.3.4,6.8,3,9c2.7,2.1,6.3,2.6,9.3,1.1c3.1-1.5,5-4.6,5-8c.1-4.2-2.9-7.9-7-8.6v-2.3h8.8c1,0,1.7-.7,1.7-1.7v-16.8h-3.7v14.8h.3Zm-3.4,14.6c0,2.1-1.3,4-3.2,4.8s-4.2.4-5.7-1.1-1.9-3.8-1.1-5.7s2.7-3.2,4.8-3.2c2.9,0,5.2,2.3,5.2,5.2v0Z" fill="#1b1464"/><path d="M108.6,8.2L9,8.2c-1.3,0-2.5.5-3.4,1.4s-1.5,2.1-1.5,3.4v24.1C4.2,39.7,6.4,42,9,42h10.2v2.4h-10.2c-1.3,0-2.5.5-3.4,1.4s-1.5,2.1-1.5,3.4v24.1c0,2.7,2.2,4.9,4.8,4.9h99.6c2.7,0,4.8-2.3,4.8-4.9v-24.2c0-1.3-.5-2.5-1.5-3.4-.9-.9-2.1-1.4-3.4-1.4h-10v-2.4h10.2c2.7,0,4.8-2.3,4.8-4.9v-24.1c0-1.3-.5-2.5-1.5-3.4-.8-.9-2-1.4-3.3-1.3v0Zm-13.9,37h-71.8v-4.5h71.8v4.5Zm15.1,3.9v24.1c0,.6-.5,1.4-1.2,1.4h-99.6c-.6,0-1.2-.6-1.2-1.4v-24.1c.1-.7.6-1.1,1.2-1.1h10.5c.3.3.9.9,1.6.9h75.5c.6,0,1.3-.6,1.6-.9h10.5c.6,0,1.1.4,1.1,1.1v0Zm0-12.1c0,.6-.5,1.4-1.2,1.4h-10.3c-.3-.9-.9-1.2-1.7-1.2h-75.5c-.8,0-1.5.3-1.7,1.2h-10.4c-.6,0-1.2-.6-1.2-1.4v-24.1c0-.6.5-1.1,1.2-1.1h99.6c.6,0,1.2.5,1.2,1.1v24.1v0Z" fill="#1b1464"/></g><g id="e2RuQ8rf6mi22" transform="translate(0 7.143983)" opacity="0"><polygon points="141.2,60.4 69,70.6 69,124.8 142,135" fill="#fff"/><g><polygon points="99,99 71.5,98.8 71.5,121.7 99,125.5 99,99" fill="#1b1464"/><polygon points="138.7,63.6 102.3,68.9 102.3,68.9 102.3,95.8 138.7,95.6" fill="#1b1464"/><polygon points="102.2,99.1 102.3,125.9 138.7,131 138.7,99.2" fill="#ec9700"/><polygon points="71.5,73.1 71.5,73.1 71.5,96.1 99,95.9 99,69.4" fill="#1b1464"/></g></g><g id="e2RuQ8rf6mi29" opacity="0"><path d="M88.3,61l-.2-11.8l7-4.1l10.5-7l4.3-.2l4.5,4.8l2.4,16-3.3,5.8-13.5-.4L88.3,61v0Z" clip-rule="evenodd" fill="#fff" fill-rule="evenodd"/><path d="M74.4,94.8L78,84.7l7-8.4l3.6-7.2l1.6-2.4l25.8-4l5.2,8.1l14.4,34.5-5,6.2-13.1,21.8-3.1.7-23.9.7-16.7-18.6-2.7-15.5l3.3-5.8v0Z" clip-rule="evenodd" fill="#fff" fill-rule="evenodd"/><path d="M107.4,68.5c0,0-.9-.2,1.5-.7s2.4-1,3.1-1.7s1-2.2,1-4s.9-6.7.7-8.1-3.1-6.5-4.3-7.2-14.6-1.9-14.6-1.9l-4.1,3.3-3.1,2.9.7,9.3c0,0-.9,2.9-.7,4.1s1.9,2.6,2.6,3.3s3.3,3.5,4.1,4.3c.9.9,1,1.7,3.1,1s3.3-.7,4.8-1.9c1.6-1.1,5.2-2.7,5.2-2.7Z" clip-rule="evenodd" fill="#ec9700" fill-rule="evenodd"/><path d="M99.5,53.9c.5-1.4,1.2-4,2.4-4.8c1.2-.9,3.8-1.6,5.3-1.4c1.6.2,4.5,1.7,5.2,2.9s.7,6,.7,6l-.3,4-2.4-.2-5.2-2.1h-.9c0,0-.9.3-3.4-1-2.6-1.3-2-2-1.4-3.4v0ZM94,57.7c.1-.1.2-.2.5-.3c1-.6,3.3-1.4,3.3-1.4s2.2-5.7.3-7.9-6-1.9-6-1.9-4.5,2.6-4.3,3.6.3,4.6.5,5.1.9,6,.9,6l1.5-.7l2.2-1.7c0,.1.6-.3,1.1-.8v0Z" clip-rule="evenodd" fill="#fff" fill-rule="evenodd"/><path d="M126.8,109.6l2.5.2c.4,0,.7,0,1.1.1c1.8.1,3.5.3,5.2.6c1.1.1,3,.9,3.2,2.3.2,2.1-.4,4.4,1.4,5.3c1.8,1.2,5.9,4.1,5.9,4.1l1.2,2.2-3.6,3.3L126,138.4l-8.1-2.7v-6.7l.3-8.8-.9-7.9l1.4-3.1l3.4-1l4.7,1.4v0Zm-51.2-3.8c-.2-.2-3.3.8-3.5.8-1.5.2-3.3,1.2-3.3,2.8c0,.8-.1,1.7-.4,2.4-.3.6-1,1.4-1,1.6-.2.6-.6,1.5-1.2,1.9-.7.1-3.6.3-3.6.3h-2.6l-1.5,1.9l1.2,5-.3,3.9-1.2,4.5l2.9,1.5l22,5.8l5-1.5l2.6-6.4L90,128l-2.4-4.8c0,0-10.4-15.2-12-17.4v0Z" clip-rule="evenodd" fill="#ec9700" fill-rule="evenodd"/><path d="M86.8,51.8c-.4-12,4.3-17.3,14-17.5s15.8,4.9,17,11.6.5,15.5,3,20.1s4,8.1,8.3,13.4c4.2,5.3,6.9,10.7,8.1,17.2s1.9,9.6-1.2,13c-3.2,3.4-8.8,8.8-13.1,2.6-2.1-3.1-2.4-6.9,1.2-7.8c2.3-.5,3.9-.4,5.6.5s2.1.5.1-1.1c-2.1-1.5-2.5-.1-1.8-2.6s1.6-6.9-.3-11.8c-.9-2.3-3.9-8.4-6.8-9.9-.3-.1-1-.5-.5.2.8,1,4.9,7,6,10.6c1.2,3.9,1.4,7.6.8,9.9-.6,2.4-1.8,3.3-3.1,3.3s-2.6.6-2.6-2.5.3-7.8-1.4-11.8-3.7-6.7-4.2-8.4c-.4-1.7-1.4-6.2-3.4-8.7-2-2.6-2.9-4.2-1.9-7.2c1.1-2.9.3-3.7-1.8-4.3s-4.9-1.5-5.6-2.9-.3-4.2,1.3-4.9s4.2.3,4.3,2.3-.9,3.1-.6,3.5s1.7,1.2,2.4.4.9-3.3.2-5.6-1.1-3.9-3.6-4.4c-2.6-.5-3.7-.4-4.9,1.2s-1.8,4.1-1.4,6c.3,1.8-.4.8-1.6.7s-.9-.2-2.1-.1-.8-.7-.9-2-.3-4.1-2.1-5.1c-1.8-1.1-5,.2-4.9,4.6s1.6,6.5,2.5,4.9.4-.8-.4-1.5c-.9-.7-1.5-3.6-.5-4.5s2.1-.9,2.7-.4s1.6,2.3,1.4,3.4c-.2,1.2-.3,1.2-1.4,2-1.2.8-1.6,1.5-2.9,2.4s-1.8,2.9-.8,3.4c1.1.5,1.2.4,2,1.8.9,1.3,2.4,1.9,6.1,1.3s5.2-1.5,8-2.5c2-.7,1.3-.6,2-1.4s1.8.3.8,1.1c-1.1.7-3.4,1.4-5.2,2s-3.8,2.4-7.5,2.2-1.2-.1-2.3-.2-1.7.1-.4,1c1.2.9,1.2,1.2,2.2,1.5c1.1.4,2.5.4,4.2-.3c1.7-.6,5.9-2.5,7.2-3.4s2.4.3,1.1,1.2-1.7.6-2.9,1.4-3.5,2.1-5,3.5-1.8,1.5-3.7,1.6c-1.8.1-3-1.8-3.8-2.7s-.7-1.4-1.7-2.5-1.1-.8-1.2.3c-.2,1.2-1.5,4.1-2.7,6-1.1,1.9-1.2,4.3-1.1,6s-.3,1.8-1.6,3.8c-1.3,1.9-3.5,7.7-3.9,9.5-.3,1.8-.8,5.7-.6,7.9s-.4,2.7-2,1.2-2.1-3.2-2-5.4c.1-1.9.3-3.2.6-3.9.2-.7,0-1.2-.5-.3-1.1,1.9-1.1,5.1-.9,6.3.3,1.1.3,3.2,3.3,5.9c2.9,2.7,7.2,6.5,10.7,9.1s4.8,5.7-.4,8c3.3,4.4,5,6.7,3.6,9.6c2.9-1.7,1.8-5.6.4-6.7s-.6-1.9.7-1.1c1.2.8,1.7,2.4,6.5,2.3c4.9-.1,10.1-.6,13-4.8s3.5-.7,2.8,1.8-2.4,8,.3,7.5c.3-3.3,1.2-6.1,1.2-9.6s.3-5.2.1-10.4c-.3-4.9,1.9-5.3,4.1-5.3s1.5,1.4.1,1.3-2.9.4-3,4.1c-.1,3.6,0,3.3.6,6.5.6,3.3.7,4.2.2,7.9-.5,3.6-1,5.6,1.4,7.8s6,1.6,7.9.2c1.8-1.4,5.4-4.7,8.6-5.7c3.2-1.1,6.5-1.8,8.3-3.6s1.3-3-.5-4-3.6-.5-5-2.1-2.1-5.1-1.6-7c.5-1.8,1.2-1.1,1.2.3c0,1.3.1,2.6,1.4,4.2c1.3,1.7,2.6,2.5,4.7,3.8s3.4,3.4.8,5.3c-2.6,1.8-4.1,2.9-6.4,3.8-2.2.9-5.8,3-8,5.2s-3.4,4.2-7.8,4.2c-4.3,0-6.3-1-7.6-3.6-.9-1.8-1.3-1.5-3.4-1.6-2-.1-8.8-.2-14.1-.1s-7.1,1-9.4,2.9c-2.4,1.9-3.3,3.4-7.8,1.9s-6.9-3.2-13.6-4.5-3.1-.7-7.2-1.6-3.8-2.8-3.3-4.4s1.8-4.1.7-7.3c-1.1-3.3-.7-6.6,2.4-6.6s6,.6,7.2-3.4c1.2-4.1,1.6-.9,1.2.2-.3,1.1-.5,4-3.3,4.4-2.7.4-3.4-.2-5-.2-1.7,0-2.4,1.2-1.5,3.1s1.9,4,1.7,5.6c-.2,1.7-.4,2.3-1.6,3.9s-1.1,2.4,1.2,2.9c2.2.5,6.2,1.6,9.9,2.5s4,.9,10.4,2.6s8.2-1.3,8.7-4.9-1.9-7.1-4.2-10.5-4.8-7.4-7.8-11-4.8-3.9-6.3-3.1-1.8.6-1.8-1.4c-.1-2-.3-3.4,1.4-6.4s3.2-6.3,4.9-11.3c1.8-5,3.4-6,6.4-10.3s1.7-2.6,3.8-5.5s1.5-2.4,1.3-7c-.4-4.3-.6-7-.8-13v0ZM78.4,87.7c.5.5,1.1-.8,1.8-1.2.6-.5.9-1.3.7-2.1-.1-.4-.7-.3-.9-.1-.4.4-.3,1.1-.6,1.7-.4.6-1.5,1.1-1,1.7v0Zm37.9-18.4c1,.8,1.5,1.5,2.1.3.5-1.2.5-1.7-.7-2.2-1.3-.5-1.8-1-2.4-1.7s-.8.5-.3,1.6c.5,1.4.8,1.5,1.3,2v0Zm-19.9-11c-.7-.1-1.4-.1-1.9.4-.2.2-.1.7.2.8.4.2.7-.2.8-.5c0-.1.1-.3.2-.3.2-.1.4,0,.6-.1.3-.1.2-.3.1-.3v0Zm3.1.1c.3.4.8.4,1.2.6.2.1.7.2.8-.1.3-1-1-.7-1.6-.7-.2.1-.5,0-.4.2v0Zm6.5-4.2c.6,0,1.4,1.1,1.5,2.3c0,.2.5.2.6,0c.3-.5.1-1-.1-1.6-.1-.5-.7-1-1.2-1.2-.3-.2-.7-.2-1.1-.2c0,.1-.4.6.3.7v0Zm-13.2-.4c-.5,0-.3.5-.3.8.8.4.8,1.4,1,2.2c0,.3.5.2.5.1.3-.6-.1-1.3-.2-2-.1-.4-.4-.8-.7-1.1-.1-.1-.2,0-.3,0v0Zm16.9-13.5c-.5-.4-1.4-.6-1.7.1-.3.6-.2,1.2-.3,1.9c0,.2-.3.3-.4.5-.2.3-.2.6-.1.7.5.5,1.4-.5,2.1-.9.5-.3,1.2.1,1.8-.3.2-.1.2-.4.1-.6-.3-.5-.9-.9-1.5-1.4Z" clip-rule="evenodd" fill="#1b1464" fill-rule="evenodd"/></g><g transform="translate(0 36.343985)"><path id="e2RuQ8rf6mi37" d="M15.1,21.6c-1,0-1.8.8-1.8,1.8v6c0,2.4,3.7,2.4,3.7,0v-6c-.1-1-.9-1.8-1.9-1.8v0Z" fill="#fff"/><path id="e2RuQ8rf6mi38" d="M23.2,21.6c-1,0-1.8.8-1.8,1.8v6c0,2.4,3.7,2.4,3.7,0v-6c-.1-1-.9-1.8-1.9-1.8v0Z" fill="#fff"/><path id="e2RuQ8rf6mi39" d="M31.1,21.6c-1,0-1.8.8-1.8,1.8v6c0,2.4,3.7,2.4,3.7,0v-6c-.1-1-.9-1.8-1.9-1.8v0Z" fill="#fff"/><path id="e2RuQ8rf6mi40" d="M39.2,21.6c-1,0-1.8.8-1.8,1.8v6c0,2.4,3.7,2.4,3.7,0v-6c0-1-.9-1.8-1.9-1.8v0Z" fill="#fff"/><path id="e2RuQ8rf6mi41" d="M47.1,21.6c-1,0-1.8.8-1.8,1.8v6c0,2.4,3.7,2.4,3.7,0v-6c-.1-1-.9-1.8-1.9-1.8v0Z" fill="#fff"/></g></g></svg>