<svg id="esk2wzo58inb1" xmlns="http://www.w3.org/2000/svg" xmlns:xlink="http://www.w3.org/1999/xlink" viewBox="0 0 782.300000 646.500000" shape-rendering="geometricPrecision" text-rendering="geometricPrecision"><style><![CDATA[#esk2wzo58inb51_ts {animation: esk2wzo58inb51_ts__ts 10000ms linear infinite normal forwards}@keyframes esk2wzo58inb51_ts__ts { 0% {transform: translate(262.613776px,186.771075px) scale(0,0);animation-timing-function: cubic-bezier(0.420000,0,0.580000,1)} 26% {transform: translate(262.613776px,186.771075px) scale(0,0);animation-timing-function: cubic-bezier(0.420000,0,0.580000,1)} 32% {transform: translate(262.613776px,186.771075px) scale(1,1)} 100% {transform: translate(262.613776px,186.771075px) scale(1,1)} }#esk2wzo58inb51 {animation: esk2wzo58inb51_c_o 10000ms linear infinite normal forwards}@keyframes esk2wzo58inb51_c_o { 0% {opacity: 0} 39% {opacity: 0} 47% {opacity: 1} 100% {opacity: 1} }#esk2wzo58inb52_tr {animation: esk2wzo58inb52_tr__tr 10000ms linear infinite normal forwards}@keyframes esk2wzo58inb52_tr__tr { 0% {transform: translate(329.550003px,176.350006px) rotate(0deg)} 47% {transform: translate(329.550003px,176.350006px) rotate(0deg);animation-timing-function: cubic-bezier(0.420000,0,0.580000,1)} 80% {transform: translate(329.550003px,176.350006px) rotate(361deg)} 100% {transform: translate(329.550003px,176.350006px) rotate(361deg)} }#esk2wzo58inb72_tr {animation: esk2wzo58inb72_tr__tr 10000ms linear infinite normal forwards}@keyframes esk2wzo58inb72_tr__tr { 0% {transform: translate(355.100037px,214.634171px) rotate(361deg)} 47% {transform: translate(355.100037px,214.634171px) rotate(361deg);animation-timing-function: cubic-bezier(0.420000,0,0.580000,1)} 80% {transform: translate(355.100037px,214.634171px) rotate(0deg)} 100% {transform: translate(355.100037px,214.634171px) rotate(0deg)} }#esk2wzo58inb81_tr {animation: esk2wzo58inb81_tr__tr 10000ms linear infinite normal forwards}@keyframes esk2wzo58inb81_tr__tr { 0% {transform: translate(570.496824px,277.218122px) rotate(0deg)} 1% {transform: translate(570.496824px,277.218122px) rotate(0deg);animation-timing-function: cubic-bezier(0.420000,0,0.580000,1)} 10% {transform: translate(570.496824px,277.218122px) rotate(7.760178deg);animation-timing-function: cubic-bezier(0.420000,0,0.580000,1)} 20% {transform: translate(570.496824px,277.218122px) rotate(0deg);animation-timing-function: cubic-bezier(0.420000,0,0.580000,1)} 30% {transform: translate(570.496824px,277.218122px) rotate(7.760178deg);animation-timing-function: cubic-bezier(0.420000,0,0.580000,1)} 38% {transform: translate(570.496824px,277.218122px) rotate(0deg)} 100% {transform: translate(570.496824px,277.218122px) rotate(0deg)} }#esk2wzo58inb88 {
           animation-name: esk2wzo58inb88__m, esk2wzo58inb88_c_o;
           animation-duration: 10000ms;
           animation-fill-mode: forwards;
           animation-timing-function: linear;
           animation-direction: normal;
           animation-iteration-count: infinite;  
        }@keyframes esk2wzo58inb88__m { 0% {d: path('M343.306166,251.162512C336.165487,258.322610,341.406542,252.595526,336.170044,260.762512C331.290580,268.258239,320.443254,263.768917,324.846672,271.600274C330.083171,280.774150,304.259832,277.368686,313.423704,282.962512C322.468564,288.556338,294.163686,282.155900,302.970524,288.085356C317.251882,297.818614,320.817583,293.633093,336.170044,302.023833C354.378776,311.980844,374.729712,321.154719,394.723614,316.455905C397.103841,309.072054,391.867343,301.688203,387.344912,295.646871C382.822482,289.605538,378.657086,280.991046,382.703471,274.502207C388.177992,265.887714,402.697373,270.922158,408.409916,262.531419C412.932347,255.930704,408.290905,246.197446,402.340339,241.274879C396.270761,236.240435,388.654037,232.996016,384.726663,225.947794C381.275335,219.682709,381.394346,211.851352,379.966210,204.691254C375.800814,183.658467,393.241331,216.690782,373.247428,206.062512C366.582794,202.482463,380.745142,202.236082,373.247428,203.914230C366.106749,205.480501,375.571949,207.051045,370.097428,211.414230C351.071195,216.787138,368.061300,222.064884,358.897428,231.462512C360.723519,229.212024,375.457367,269.591814,343.306166,251.162512Z')} 1% {d: path('M343.306166,251.162512C336.165487,258.322610,341.406542,252.595526,336.170044,260.762512C331.290580,268.258239,320.443254,263.768917,324.846672,271.600274C330.083171,280.774150,304.259832,277.368686,313.423704,282.962512C322.468564,288.556338,294.163686,282.155900,302.970524,288.085356C317.251882,297.818614,320.817583,293.633093,336.170044,302.023833C354.378776,311.980844,374.729712,321.154719,394.723614,316.455905C397.103841,309.072054,391.867343,301.688203,387.344912,295.646871C382.822482,289.605538,378.657086,280.991046,382.703471,274.502207C388.177992,265.887714,402.697373,270.922158,408.409916,262.531419C412.932347,255.930704,408.290905,246.197446,402.340339,241.274879C396.270761,236.240435,388.654037,232.996016,384.726663,225.947794C381.275335,219.682709,381.394346,211.851352,379.966210,204.691254C375.800814,183.658467,393.241331,216.690782,373.247428,206.062512C366.582794,202.482463,380.745142,202.236082,373.247428,203.914230C366.106749,205.480501,375.571949,207.051045,370.097428,211.414230C351.071195,216.787138,368.061300,222.064884,358.897428,231.462512C360.723519,229.212024,375.457367,269.591814,343.306166,251.162512Z')} 10% {d: path('M253.525901,158.762512C246.385222,165.922610,230.185708,169.584954,223.230798,185.547484C218.351333,193.043211,195.728057,193.647863,208.224618,204.862512C202.260438,220.471802,194.500266,220.353968,203.664138,225.947794C200.951670,232.700022,234.005580,247.252088,242.812418,253.181544C257.093776,262.914802,320.817583,293.633093,336.170044,302.023833C354.378776,311.980844,374.729712,321.154719,394.723614,316.455905C397.103841,309.072054,391.867343,301.688203,387.344912,295.646871C382.822482,289.605538,378.657086,280.991046,382.703471,274.502207C388.177992,265.887714,402.697373,270.922158,408.409916,262.531419C412.932347,255.930704,408.290905,246.197446,402.340339,241.274879C396.270761,236.240435,388.654037,232.996016,384.726663,225.947794C381.275335,219.682709,381.394346,211.851352,379.966210,204.691254C375.800814,183.658467,369.204760,177.750678,349.210858,167.122408C342.546224,163.542359,326.681251,132.284364,319.183538,133.962512C312.042858,135.528783,309.426070,123.799327,303.951550,128.162512C284.925317,133.535420,300.775849,124.564884,291.611978,133.962512C278.448573,130.890370,259.310617,140.061022,253.525901,158.762512Z')} 23% {d: path('M253.525901,158.762512C246.385222,165.922610,230.185708,169.584954,223.230798,185.547484C218.351333,193.043211,195.728057,193.647863,208.224618,204.862512C202.260438,220.471802,194.500266,220.353968,203.664138,225.947794C200.951670,232.700022,234.005580,247.252088,242.812418,253.181544C257.093776,262.914802,320.817583,293.633093,336.170044,302.023833C354.378776,311.980844,346.165783,302.570737,366.159685,297.871922C368.539911,290.488072,380.496615,283.403844,375.974185,277.362512C371.451755,271.321180,378.657086,280.991046,382.703471,274.502207C388.177992,265.887714,379.382601,265.853252,385.095145,257.462512C389.617575,250.861797,408.290905,246.197446,402.340339,241.274879C396.270761,236.240435,399.410028,222.510733,395.482655,215.462512C392.031326,209.197426,381.394346,211.851352,379.966210,204.691254C375.800814,183.658467,369.204760,177.750678,349.210858,167.122408C342.546224,163.542359,326.681251,132.284364,319.183538,133.962512C312.042858,135.528783,309.426070,123.799327,303.951550,128.162512C284.925317,133.535420,300.775849,124.564884,291.611978,133.962512C278.448573,130.890370,259.310617,140.061022,253.525901,158.762512Z')} 31% {d: path('M233.797428,150.505487C226.656749,157.665584,209.106638,143.792859,202.151728,159.755389C174.416613,157.711791,177.800868,186.547863,190.297428,197.762512C184.333249,213.371802,194.500266,220.353968,203.664138,225.947794C200.951670,232.700022,234.005580,247.252088,242.812418,253.181544C257.093776,262.914802,289.973962,262.798909,305.326423,271.189649C323.535155,281.146659,320.320147,277.844480,340.314049,273.145665C344.806563,268.858442,347.667060,273.268377,353.985958,268.962512C358.788979,264.499737,358.420761,270.339410,362.467146,263.850572C367.941667,255.236079,370.798168,258.041487,376.510712,249.650747C381.033142,243.050032,395.178097,235.523285,389.227531,230.600718C383.157954,225.566274,387.788639,216.204851,383.861265,209.156630C380.409937,202.891544,386.053012,202.706221,380.654416,189.672269C376.489019,168.639482,369.204760,177.750678,349.210858,167.122408C342.546224,163.542359,326.681251,132.284364,319.183538,133.962512C312.042858,135.528783,309.426070,123.799327,303.951550,128.162512C284.925317,133.535420,300.775849,124.564884,291.611978,133.962512C278.448573,130.890370,239.582144,131.803997,233.797428,150.505487Z')} 38% {d: path('M231.397428,143.023122C210.023971,146.986330,216.951465,151.159878,209.996554,167.122408C205.117090,174.618135,195.728057,193.647863,208.224618,204.862512C202.260438,220.471802,194.500266,220.353968,203.664138,225.947794C200.951670,232.700022,234.005580,247.252088,242.812418,253.181544C257.093776,262.914802,288.046236,260.871772,303.398696,269.262512C321.607429,279.219523,318.704794,276.299088,338.698696,271.600274C342.673749,269.354892,343.127973,275.807633,349.210858,271.600274C348.598681,265.775882,357.155991,269.673683,361.202375,263.184844C366.676896,254.570352,370.261641,257.553252,375.974185,249.162512C380.496615,242.561797,394.358547,234.856150,388.407980,229.933583C382.338403,224.899139,387.062302,215.810733,383.134928,208.762512C379.683600,202.497426,386.344178,202.134650,380.697428,188.733583C376.532032,167.700796,369.204760,177.750678,349.210858,167.122408C342.546224,163.542359,326.681251,132.284364,319.183538,133.962512C312.042858,135.528783,309.426070,123.799327,303.951550,128.162512C284.925317,133.535420,285.462568,118.182853,276.298696,127.580482C263.135292,124.508340,242.574927,130.143608,231.397428,143.023122Z')} 100% {d: path('M231.397428,143.023122C210.023971,146.986330,216.951465,151.159878,209.996554,167.122408C205.117090,174.618135,195.728057,193.647863,208.224618,204.862512C202.260438,220.471802,194.500266,220.353968,203.664138,225.947794C200.951670,232.700022,234.005580,247.252088,242.812418,253.181544C257.093776,262.914802,288.046236,260.871772,303.398696,269.262512C321.607429,279.219523,318.704794,276.299088,338.698696,271.600274C342.673749,269.354892,343.127973,275.807633,349.210858,271.600274C348.598681,265.775882,357.155991,269.673683,361.202375,263.184844C366.676896,254.570352,370.261641,257.553252,375.974185,249.162512C380.496615,242.561797,394.358547,234.856150,388.407980,229.933583C382.338403,224.899139,387.062302,215.810733,383.134928,208.762512C379.683600,202.497426,386.344178,202.134650,380.697428,188.733583C376.532032,167.700796,369.204760,177.750678,349.210858,167.122408C342.546224,163.542359,326.681251,132.284364,319.183538,133.962512C312.042858,135.528783,309.426070,123.799327,303.951550,128.162512C284.925317,133.535420,285.462568,118.182853,276.298696,127.580482C263.135292,124.508340,242.574927,130.143608,231.397428,143.023122Z')} }@keyframes esk2wzo58inb88_c_o { 0% {opacity: 1} 38.500000% {opacity: 1} 46% {opacity: 0} 100% {opacity: 0} }#esk2wzo58inb113_tr {animation: esk2wzo58inb113_tr__tr 10000ms linear infinite normal forwards}@keyframes esk2wzo58inb113_tr__tr { 0% {transform: translate(594.896027px,272.496454px) rotate(0deg)} 21% {transform: translate(594.896027px,272.496454px) rotate(0deg);animation-timing-function: cubic-bezier(0.420000,0,0.580000,1)} 24% {transform: translate(594.896027px,272.496454px) rotate(-5.826299deg);animation-timing-function: cubic-bezier(0.420000,0,0.580000,1)} 45% {transform: translate(594.896027px,272.496454px) rotate(-5.826299deg);animation-timing-function: cubic-bezier(0.420000,0,0.580000,1)} 47% {transform: translate(594.896027px,272.496454px) rotate(0deg)} 100% {transform: translate(594.896027px,272.496454px) rotate(0deg)} }#esk2wzo58inb117 {animation: esk2wzo58inb117__m 10000ms linear infinite normal forwards}@keyframes esk2wzo58inb117__m { 0% {d: path('M591.500000,240.100000C591.500000,240.100000,589.352721,240.383325,586.252721,239.483325C583.052721,238.583325,583.300000,237,583.300000,237C583.300000,237,586.300000,237.400000,591.500000,240.100000Z')} 47% {d: path('M591.500000,240.100000C591.500000,240.100000,589.352721,240.383325,586.252721,239.483325C583.052721,238.583325,583.300000,237,583.300000,237C583.300000,237,586.300000,237.400000,591.500000,240.100000Z')} 53% {d: path('M591.500000,240.100000C591.500000,240.100000,589.352721,242.800000,586.252721,241.900000C583.052721,241,583.300000,237,583.300000,237C583.300000,237,586.300000,237.400000,591.500000,240.100000Z')} 100% {d: path('M591.500000,240.100000C591.500000,240.100000,589.352721,242.800000,586.252721,241.900000C583.052721,241,583.300000,237,583.300000,237C583.300000,237,586.300000,237.400000,591.500000,240.100000Z')} }#esk2wzo58inb118_to {animation: esk2wzo58inb118_to__to 10000ms linear infinite normal forwards}@keyframes esk2wzo58inb118_to__to { 0% {transform: translate(490.194067px,342.635206px)} 1% {transform: translate(490.194067px,342.635206px);animation-timing-function: cubic-bezier(0.420000,0,0.580000,1)} 11% {transform: translate(413.509892px,280.919387px);animation-timing-function: cubic-bezier(0.420000,0,0.580000,1)} 20% {transform: translate(451.844067px,311.054945px);animation-timing-function: cubic-bezier(0.420000,0,0.580000,1)} 31% {transform: translate(413.509892px,280.919387px);animation-timing-function: cubic-bezier(0.420000,0,0.580000,1)} 38% {transform: translate(490.194067px,342.635206px)} 100% {transform: translate(490.194067px,342.635206px)} }#esk2wzo58inb125_tr {animation: esk2wzo58inb125_tr__tr 10000ms linear infinite normal forwards}@keyframes esk2wzo58inb125_tr__tr { 0% {transform: translate(633.376490px,286.047709px) rotate(-12.315898deg)} 1% {transform: translate(633.376490px,286.047709px) rotate(-12.315898deg);animation-timing-function: cubic-bezier(0.420000,0,0.580000,1)} 11% {transform: translate(633.376490px,286.047709px) rotate(0deg);animation-timing-function: cubic-bezier(0.420000,0,0.580000,1)} 20% {transform: translate(633.376490px,286.047709px) rotate(-12.315898deg);animation-timing-function: cubic-bezier(0.420000,0,0.580000,1)} 31% {transform: translate(633.376490px,286.047709px) rotate(0deg);animation-timing-function: cubic-bezier(0.420000,0,0.580000,1)} 38% {transform: translate(633.376490px,286.047709px) rotate(-12.315898deg)} 100% {transform: translate(633.376490px,286.047709px) rotate(-12.315898deg)} }]]></style><defs><path id="esk2wzo58inb2" d="M60.400000,70.800000L71,451.800000C72,475,90.400000,493.700000,113.500000,495L701.200000,520.200000C722.200000,521.500000,740.200000,505.600000,741.600000,484.700000C741.700000,483.400000,741.700000,482.100000,741.600000,480.800000L731.200000,103.500000"/><path id="esk2wzo58inb3" d="M60.400000,70.800000L71,451.800000C72,475,90.400000,493.700000,113.500000,495L701.200000,520.200000C722.200000,521.500000,740.200000,505.600000,741.600000,484.700000C741.700000,483.400000,741.700000,482.100000,741.600000,480.800000L731.200000,103.500000"/><path id="esk2wzo58inb4" d="M551.600000,388.300000C551.600000,388.300000,551.800000,483.800000,557.500000,516.700000C559.900000,530.700000,577,575.900000,576.800000,601.400000C578.400000,605.800000,592.200000,604.100000,592.200000,601.400000C593,579.600000,599.300000,546.100000,596.400000,527.600000C595.800000,523.500000,590,517.300000,586.200000,511.700000C588.500000,495.100000,599.200000,432.600000,599.200000,432.600000L564.400000,366.600000L551.600000,388.300000Z"/><path id="esk2wzo58inb5" d="M250.300000,181.300000C250.300000,195.100000,238.800000,206.500000,224.500000,207.300000L200.100000,207.300000L200.100000,237.800000L222.800000,237.800000L224.500000,237.800000L224.500000,237.800000C256.500000,236.900000,282.400000,211.900000,282.400000,181.400000L250.300000,181.400000Z"/><path id="esk2wzo58inb6" d="M259.500000,146C226.700000,146,199.900000,171.400000,199.900000,202.500000L232,202.500000C232,188.700000,243.500000,177.300000,257.800000,176.500000C271.500000,165.900000,277.800000,154.500000,280.700000,146L259.500000,146Z"/><path id="esk2wzo58inb7" d="M318.500000,146L292.100000,146L288.100000,146C285.300000,154.400000,279.300000,165.800000,266.500000,176.400000L287.500000,176.400000C287.500000,184.900000,287.200000,193.600000,287.200000,202.500000L287.500000,232.900000L287.500000,232.900000L287.500000,239.500000L319.300000,239.500000L319.300000,216L319.300000,187.600000L319.300000,187.600000L319.300000,168L319.300000,168L319.300000,146L318.500000,146Z"/><linearGradient id="esk2wzo58inb8-fill" x1="395.796857" y1="548.187605" x2="398.003348" y2="509.919152" spreadMethod="pad" gradientUnits="userSpaceOnUse"><stop id="esk2wzo58inb8-fill-0" offset="0%" stop-color="rgba(255,255,255,0)"/><stop id="esk2wzo58inb8-fill-1" offset="66.410000%" stop-color="rgba(83,83,83,0.3966)"/><stop id="esk2wzo58inb8-fill-2" offset="99.360000%" stop-color="rgba(0,0,0,0.6)"/></linearGradient><linearGradient id="esk2wzo58inb13-fill" x1="59.901200" y1="58.187100" x2="731.354600" y2="58.187100" spreadMethod="pad" gradientUnits="userSpaceOnUse"><stop id="esk2wzo58inb13-fill-0" offset="0%" stop-color="rgb(200,15,14)"/><stop id="esk2wzo58inb13-fill-1" offset="100%" stop-color="rgb(141,15,28)"/></linearGradient><linearGradient id="esk2wzo58inb54-fill" x1="360.377858" y1="167.728472" x2="299.145984" y2="184.858137" spreadMethod="pad" gradientUnits="userSpaceOnUse"><stop id="esk2wzo58inb54-fill-0" offset="0%" stop-color="rgb(200,15,14)"/><stop id="esk2wzo58inb54-fill-1" offset="26.070000%" stop-color="rgb(170,15,21)"/><stop id="esk2wzo58inb54-fill-2" offset="50.120000%" stop-color="rgb(149,15,26)"/><stop id="esk2wzo58inb54-fill-3" offset="65.920000%" stop-color="rgb(141,15,28)"/><stop id="esk2wzo58inb54-fill-4" offset="100%" stop-color="rgb(200,15,14)"/></linearGradient><linearGradient id="esk2wzo58inb58-fill" x1="207.679057" y1="156.332387" x2="257.486519" y2="236.854582" spreadMethod="pad" gradientUnits="userSpaceOnUse"><stop id="esk2wzo58inb58-fill-0" offset="0%" stop-color="rgb(200,15,14)"/><stop id="esk2wzo58inb58-fill-1" offset="100%" stop-color="rgb(141,15,28)"/></linearGradient><linearGradient id="esk2wzo58inb63-fill" x1="224.182436" y1="148.585551" x2="272.527883" y2="226.744254" spreadMethod="pad" gradientUnits="userSpaceOnUse"><stop id="esk2wzo58inb63-fill-0" offset="0%" stop-color="rgb(200,15,14)"/><stop id="esk2wzo58inb63-fill-1" offset="100%" stop-color="rgb(141,15,28)"/></linearGradient><linearGradient id="esk2wzo58inb68-fill" x1="-0.067771" y1="47.044393" x2="52.679289" y2="47.044393" spreadMethod="pad" gradientUnits="userSpaceOnUse"><stop id="esk2wzo58inb68-fill-0" offset="0%" stop-color="rgb(200,15,14)"/><stop id="esk2wzo58inb68-fill-1" offset="26.070000%" stop-color="rgb(170,15,21)"/><stop id="esk2wzo58inb68-fill-2" offset="50.120000%" stop-color="rgb(149,15,26)"/><stop id="esk2wzo58inb68-fill-3" offset="65.920000%" stop-color="rgb(141,15,28)"/><stop id="esk2wzo58inb68-fill-4" offset="100%" stop-color="rgb(200,15,14)"/></linearGradient><linearGradient id="esk2wzo58inb75-fill" x1="95.940000" y1="486.204100" x2="255.125400" y2="486.204100" spreadMethod="pad" gradientUnits="userSpaceOnUse"><stop id="esk2wzo58inb75-fill-0" offset="0%" stop-color="rgb(200,15,14)"/><stop id="esk2wzo58inb75-fill-1" offset="100%" stop-color="rgb(141,15,28)"/></linearGradient><linearGradient id="esk2wzo58inb88-fill" x1="264.464508" y1="225.712020" x2="410.382875" y2="227.128821" spreadMethod="pad" gradientUnits="userSpaceOnUse"><stop id="esk2wzo58inb88-fill-0" offset="0%" stop-color="rgb(200,15,14)"/><stop id="esk2wzo58inb88-fill-1" offset="100%" stop-color="rgb(141,15,28)"/></linearGradient></defs><polygon id="esk2wzo58inb8" points="707.500000,531.900000 66.400000,494.500000 92,532.300000 727.800000,556" fill="url(#esk2wzo58inb8-fill)" stroke="none" stroke-width="1"/><g id="esk2wzo58inb9"><path id="esk2wzo58inb10" d="M45.800000,87L56.400000,467.900000C57.400000,491.200000,75.900000,509.900000,99.100000,511.200000L686.800000,536.400000C707.800000,537.700000,725.900000,521.800000,727.200000,500.800000C727.300000,499.500000,727.300000,498.300000,727.200000,497L716.700000,119.800000" fill="rgb(127,3,3)" stroke="none" stroke-width="1"/><path id="esk2wzo58inb11" d="M45.800000,87L45.300000,68.700000C44.400000,47.800000,60.600000,30.100000,81.600000,29.100000C83,29,84.400000,29.100000,85.700000,29.100000L673.500000,56.600000C696.700000,57.900000,715.100000,76.600000,716.200000,99.800000L716.800000,119.500000" fill="rgb(127,3,3)" stroke="none" stroke-width="1"/><path id="esk2wzo58inb12" d="M60.400000,70.800000L71,451.800000C72,475,90.400000,493.700000,113.500000,495L701.200000,520.200000C722.200000,521.500000,740.200000,505.600000,741.600000,484.700000C741.700000,483.400000,741.700000,482.100000,741.600000,480.800000L731.200000,103.500000" fill="rgb(255,253,253)" stroke="none" stroke-width="1"/><path id="esk2wzo58inb13" d="M60.400000,70.800000L59.900000,52.500000C59,31.600000,75.300000,13.900000,96.200000,13C97.600000,12.900000,99,13,100.300000,13L688.100000,40.500000C711.300000,41.800000,729.800000,60.500000,730.800000,83.700000L731.300000,103.400000" fill="url(#esk2wzo58inb13-fill)" stroke="none" stroke-width="1"/><path id="esk2wzo58inb14" d="M245.100000,60.700000L509.200000,73C514.300000,73.300000,518.700000,69.400000,519,64.200000C519,63.900000,519,63.600000,519,63.300000L519,63.300000C518.700000,57.600000,514.200000,53.100000,508.600000,52.700000L244.500000,40.500000C239.400000,40.200000,235,44.100000,234.600000,49.200000C234.600000,49.500000,234.600000,49.900000,234.600000,50.200000L234.600000,50.200000C234.900000,55.800000,239.400000,60.400000,245.100000,60.700000Z" fill="rgb(255,255,255)" stroke="none" stroke-width="1"/><path id="esk2wzo58inb15" d="M684,84.500000L684,84.500000C676.800000,84.100000,671,78.200000,670.700000,71L670.700000,71C670.500000,64.500000,675.600000,59,682.100000,58.700000C682.500000,58.700000,682.900000,58.700000,683.300000,58.700000L683.300000,58.700000C690.500000,59.100000,696.300000,65,696.600000,72.200000L696.600000,72.200000C696.800000,78.700000,691.700000,84.200000,685.200000,84.500000C684.800000,84.500000,684.400000,84.500000,684,84.500000Z" fill="rgb(230,128,19)" stroke="none" stroke-width="1"/><path id="esk2wzo58inb16" d="M600.700000,80.600000L600.700000,80.600000C593.500000,80.200000,587.700000,74.300000,587.400000,67.100000L587.400000,67.100000C587.200000,60.500000,592.300000,55,598.800000,54.800000C599.200000,54.800000,599.600000,54.800000,600,54.800000L600,54.800000C607.200000,55.200000,613,61.100000,613.300000,68.300000L613.300000,68.300000C613.500000,74.900000,608.400000,80.400000,601.900000,80.600000C601.500000,80.700000,601.100000,80.700000,600.700000,80.600000Z" opacity="0.9" fill="rgb(255,0,0)" stroke="none" stroke-width="1"/><path id="esk2wzo58inb17" d="M642,82.600000L642,82.600000C634.700000,82.200000,629,76.400000,628.600000,69.100000L628.600000,69.100000C628.400000,62.500000,633.500000,57,640,56.800000C640.400000,56.800000,640.800000,56.800000,641.200000,56.800000L641.200000,56.800000C648.400000,57.300000,654.100000,63.100000,654.500000,70.300000L654.500000,70.300000C654.800000,76.900000,649.700000,82.400000,643.100000,82.600000C642.800000,82.600000,642.400000,82.600000,642,82.600000Z" fill="rgb(108,204,230)" stroke="none" stroke-width="1"/><path id="esk2wzo58inb18" d="M123.700000,256.300000L678,279.400000C684.500000,279.800000,690,274.900000,690.400000,268.400000C690.400000,268,690.400000,267.600000,690.400000,267.200000L686.700000,150.100000C686.400000,142.900000,680.600000,137.200000,673.500000,136.800000L119.200000,113C112.700000,112.600000,107.200000,117.500000,106.800000,124C106.800000,124.400000,106.800000,124.800000,106.800000,125.300000L110.500000,243C110.700000,250.100000,116.500000,255.900000,123.700000,256.300000Z" fill="none" stroke="rgb(128,128,128)" stroke-width="2" stroke-miterlimit="10"/><path id="esk2wzo58inb19" d="M681.500000,473.300000C681.200000,473.300000,680.800000,473.300000,680.500000,473.300000L449.800000,464C440.200000,463.500000,432.500000,455.900000,432,446.300000L427.800000,311.100000C427.800000,310.600000,427.800000,310,427.800000,309.400000C428.300000,300.600000,435.900000,293.900000,444.700000,294.500000L675.400000,304.100000C685.100000,304.600000,692.700000,312.200000,693.200000,321.900000L697.400000,456.800000C697.400000,457.300000,697.400000,457.900000,697.400000,458.500000C697.100000,462.700000,695.200000,466.600000,692.100000,469.500000C689.100000,471.900000,685.400000,473.300000,681.500000,473.300000ZM449.900000,461.800000L680.600000,471.100000C684.300000,471.300000,687.800000,470.100000,690.600000,467.700000C693.400000,465.300000,695,461.900000,695.200000,458.200000C695.200000,457.700000,695.200000,457.200000,695.200000,456.800000L691,322C690.600000,313.500000,683.800000,306.700000,675.200000,306.300000L444.500000,296.700000C436.900000,296.200000,430.400000,302,429.900000,309.600000C429.900000,310.100000,429.900000,310.600000,429.900000,311.100000L434.100000,446.300000C434.700000,454.700000,441.400000,461.400000,449.900000,461.800000L449.900000,461.800000Z" fill="rgb(153,153,153)" stroke="none" stroke-width="1"/><line id="esk2wzo58inb20" x1="384.500000" y1="298.900000" x2="111.800000" y2="287.600000" fill="none" stroke="rgb(153,153,153)" stroke-width="2" stroke-miterlimit="10"/><line id="esk2wzo58inb21" x1="386.800000" y1="372" x2="114.100000" y2="360.900000" fill="none" stroke="rgb(153,153,153)" stroke-width="2" stroke-miterlimit="10"/><line id="esk2wzo58inb22" x1="389.400000" y1="454.600000" x2="116.700000" y2="443.700000" fill="none" stroke="rgb(153,153,153)" stroke-width="2" stroke-miterlimit="10"/><line id="esk2wzo58inb23" x1="385.600000" y1="334.300000" x2="113" y2="323.100000" fill="none" stroke="rgb(153,153,153)" stroke-width="2" stroke-miterlimit="10"/><line id="esk2wzo58inb24" x1="388" y1="412.100000" x2="115.400000" y2="401.100000" fill="none" stroke="rgb(153,153,153)" stroke-width="2" stroke-miterlimit="10"/><g id="esk2wzo58inb25"><g id="esk2wzo58inb26"><clipPath id="esk2wzo58inb27"><use id="esk2wzo58inb28" width="681.275024" height="449.474365" xlink:href="#esk2wzo58inb2" fill="rgb(0,0,0)" stroke="none" stroke-width="1"/></clipPath></g></g><g id="esk2wzo58inb29"><g id="esk2wzo58inb30"><clipPath id="esk2wzo58inb31"><use id="esk2wzo58inb32" width="681.275024" height="449.474365" xlink:href="#esk2wzo58inb3" fill="rgb(0,0,0)" stroke="none" stroke-width="1"/></clipPath></g></g></g><g id="esk2wzo58inb33"><path id="esk2wzo58inb34" d="M595.500000,624C597.200000,623.300000,597.900000,627.700000,597.300000,628.200000C593.500000,631.400000,582.900000,633.900000,574.600000,636.300000C565,639,554.800000,640.600000,553.600000,639.300000C552.600000,638.200000,551,635.800000,554.200000,633.300000C555.600000,632.200000,577.600000,626.200000,578.100000,626.200000C578.600000,626.200000,595.500000,624,595.500000,624Z" fill="rgb(7,43,69)" stroke="none" stroke-width="1"/><path id="esk2wzo58inb35" d="M578.100000,595.600000C579.100000,602.100000,578,615.100000,577.400000,617.700000C577.100000,618.700000,573.500000,625.200000,576.700000,627.400000C581.600000,630.800000,591.900000,629.300000,592.300000,618.700000C587.400000,608.500000,592.700000,597.500000,592,594.300000C591.400000,591.100000,577.600000,592.100000,578.100000,595.600000Z" fill="rgb(247,182,144)" stroke="none" stroke-width="1"/><path id="esk2wzo58inb36" d="M591.300000,613.700000C592.300000,619.800000,596.100000,620.300000,595.700000,625.300000C595.500000,627.900000,560.800000,639.400000,555,637.100000C551.900000,635.900000,553.900000,633.400000,556.700000,631.500000C560,629.300000,567.900000,623.900000,570.900000,621.700000C575,618.800000,575.200000,614.700000,576.300000,615.200000C578.800000,616.300000,579.300000,623.700000,581.300000,624.200000C585.200000,625.300000,589.500000,615.300000,590.600000,613.500000C590.700000,613.100000,591.200000,613.200000,591.300000,613.700000Z" fill="rgb(230,128,19)" stroke="none" stroke-width="1"/><g id="esk2wzo58inb37"><g id="esk2wzo58inb38"><g id="esk2wzo58inb39" clip-path="url(#esk2wzo58inb49)"><rect id="esk2wzo58inb40" width="58.600000" height="238" rx="0" ry="0" transform="matrix(0.97880000000000 -0.20490000000000 0.20490000000000 0.97880000000000 527.25260999999989 374.41201999999998)" fill="rgb(0,87,158)" stroke="none" stroke-width="1"/><path id="esk2wzo58inb41" d="M599.700000,465.100000C604.400000,465.300000,607.900000,470.500000,607.700000,476.800000C607.400000,483,603.400000,487.900000,598.700000,487.700000C594,487.500000,590.500000,482.300000,590.700000,476C591,469.800000,595,464.900000,599.700000,465.100000Z" fill="rgb(36,84,122)" stroke="none" stroke-width="1"/><path id="esk2wzo58inb42" d="M599.600000,466.500000C603.700000,466.700000,606.800000,471.200000,606.600000,476.700000C606.400000,482.200000,602.900000,486.400000,598.800000,486.200000C594.700000,486,591.600000,481.500000,591.800000,476C592,470.600000,595.500000,466.300000,599.600000,466.500000Z" fill="rgb(36,83,121)" stroke="none" stroke-width="1"/><path id="esk2wzo58inb43" d="M599.600000,467.900000C603.100000,468.100000,605.800000,472,605.600000,476.600000C605.400000,481.300000,602.400000,484.900000,598.900000,484.800000C595.400000,484.600000,592.700000,480.700000,592.900000,476.100000C593,471.400000,596.100000,467.800000,599.600000,467.900000Z" fill="rgb(35,82,120)" stroke="none" stroke-width="1"/><path id="esk2wzo58inb44" d="M599.500000,469.300000C602.400000,469.400000,604.700000,472.700000,604.500000,476.600000C604.300000,480.500000,601.800000,483.500000,598.900000,483.400000C596,483.300000,593.700000,480,593.900000,476.100000C594.100000,472.300000,596.600000,469.200000,599.500000,469.300000Z" fill="rgb(35,82,119)" stroke="none" stroke-width="1"/><path id="esk2wzo58inb45" d="M599.400000,470.700000C601.700000,470.800000,603.500000,473.400000,603.400000,476.500000C603.300000,479.600000,601.300000,482.100000,598.900000,482C596.600000,481.900000,594.800000,479.300000,594.900000,476.200000C595.100000,473.100000,597.100000,470.600000,599.400000,470.700000Z" fill="rgb(35,81,118)" stroke="none" stroke-width="1"/><path id="esk2wzo58inb46" d="M599.400000,472.200000C601.200000,472.300000,602.500000,474.200000,602.400000,476.600000C602.300000,478.900000,600.800000,480.800000,599,480.700000C597.200000,480.600000,595.900000,478.700000,596,476.300000C596.100000,473.900000,597.600000,472.100000,599.400000,472.200000Z" fill="rgb(35,80,117)" stroke="none" stroke-width="1"/><path id="esk2wzo58inb47" d="M599.300000,473.600000C600.500000,473.700000,601.400000,475,601.300000,476.500000C601.200000,478.100000,600.200000,479.300000,599.100000,479.200000C597.900000,479.100000,597,477.800000,597.100000,476.300000C597.100000,474.700000,598.100000,473.500000,599.300000,473.600000Z" fill="rgb(34,80,116)" stroke="none" stroke-width="1"/><path id="esk2wzo58inb48" d="M599.300000,475C599.900000,475,600.300000,475.700000,600.300000,476.500000C600.300000,477.300000,599.800000,477.900000,599.200000,477.900000C598.600000,477.900000,598.200000,477.200000,598.200000,476.400000C598.200000,475.600000,598.700000,475,599.300000,475Z" fill="rgb(34,79,115)" stroke="none" stroke-width="1"/><clipPath id="esk2wzo58inb49"><use id="esk2wzo58inb50" width="47.600037" height="237.499634" xlink:href="#esk2wzo58inb4" fill="rgb(0,0,0)" stroke="none" stroke-width="1"/></clipPath></g></g></g></g><g id="esk2wzo58inb51_ts" transform="translate(262.613776,186.771075) scale(0,0)"><g id="esk2wzo58inb51" transform="translate(-273.312508,-192.200005)" opacity="0"><g id="esk2wzo58inb52_tr" transform="translate(329.550003,176.350006) rotate(0)"><g id="esk2wzo58inb52" transform="translate(-329.550003,-176.350006)"><g id="esk2wzo58inb53"><path id="esk2wzo58inb54" d="M302.100000,190.200000L307.700000,189.300000C308.800000,191.200000,310.200000,193,311.800000,194.500000L309.600000,199.800000C309.300000,200.600000,309.600000,201.600000,310.400000,202L317.600000,206.100000C318.400000,206.500000,319.400000,206.300000,319.900000,205.600000L323.300000,201C325.400000,201.500000,327.600000,201.800000,329.800000,201.800000L332,207.100000C332.300000,207.900000,333.300000,208.400000,334.100000,208.100000L342.100000,205.900000C342.900000,205.700000,343.500000,204.800000,343.400000,203.900000L342.500000,198.300000C344.400000,197.200000,346.200000,195.800000,347.700000,194.200000L353,196.400000C353.800000,196.700000,354.800000,196.400000,355.200000,195.600000L359.300000,188.400000C359.700000,187.600000,359.500000,186.600000,358.800000,186.100000L354.200000,182.700000C354.700000,180.600000,355,178.400000,355,176.100000L360.300000,173.900000C361.100000,173.600000,361.600000,172.600000,361.300000,171.800000L359.100000,163.800000C358.900000,163,358,162.400000,357.100000,162.500000L351.500000,163.400000C350.400000,161.500000,349,159.700000,347.400000,158.200000L349.600000,152.900000C349.900000,152.100000,349.600000,151.100000,348.800000,150.700000L341.600000,146.600000C340.800000,146.200000,339.800000,146.400000,339.300000,147.100000L335.900000,151.700000C333.800000,151.200000,331.600000,150.900000,329.300000,150.900000L327.100000,145.600000C326.800000,144.800000,325.800000,144.300000,325,144.600000L317,146.800000C316.200000,147,315.600000,147.900000,315.700000,148.800000L316.600000,154.400000C314.700000,155.500000,312.900000,156.900000,311.400000,158.500000L306.100000,156.300000C305.300000,156,304.300000,156.300000,303.900000,157.100000L299.800000,164.300000C299.400000,165.100000,299.600000,166.100000,300.300000,166.600000L304.900000,170C304.400000,172.100000,304.100000,174.300000,304.100000,176.600000L298.800000,178.800000C298,179.100000,297.500000,180.100000,297.800000,180.900000L300,188.900000C300.300000,189.800000,301.200000,190.400000,302.100000,190.200000ZM327,167.400000C332,166,337.200000,168.900000,338.600000,173.900000C340,178.900000,337.100000,184.100000,332.100000,185.500000C327.100000,186.900000,321.900000,184,320.500000,179C319.100000,174,322,168.700000,327,167.400000Z" fill="url(#esk2wzo58inb54-fill)" stroke="none" stroke-width="1"/></g><path id="esk2wzo58inb55" d="M329.600000,184.400000C329.300000,184.400000,329,184.400000,328.700000,184.400000C326.600000,184.200000,324.700000,183.100000,323.300000,181.500000C322,179.800000,321.400000,177.800000,321.600000,175.600000C321.800000,173.500000,322.900000,171.600000,324.500000,170.200000C326.200000,168.900000,328.200000,168.300000,330.400000,168.500000C334.800000,169,337.900000,172.900000,337.500000,177.300000C337,181.300000,333.600000,184.400000,329.600000,184.400000ZM329.500000,170.200000C328.100000,170.200000,326.800000,170.700000,325.600000,171.600000C324.300000,172.600000,323.500000,174.100000,323.300000,175.700000L323.300000,175.700000C323.100000,177.300000,323.600000,178.900000,324.600000,180.200000C325.600000,181.500000,327.100000,182.300000,328.700000,182.500000C332.100000,182.900000,335.100000,180.400000,335.500000,177C335.900000,173.600000,333.400000,170.600000,330,170.200000C330,170.300000,329.800000,170.200000,329.500000,170.200000Z" fill="rgb(193,39,45)" stroke="none" stroke-width="1"/></g></g><g id="esk2wzo58inb56"><g id="esk2wzo58inb57" clip-path="url(#esk2wzo58inb59)"><polygon id="esk2wzo58inb58" points="259.600000,144.500000 307.600000,222.200000 222.800000,274.600000 174.800000,197" fill="url(#esk2wzo58inb58-fill)" stroke="none" stroke-width="1"/><clipPath id="esk2wzo58inb59"><use id="esk2wzo58inb60" width="82.299988" height="56.500000" xlink:href="#esk2wzo58inb5" fill="rgb(0,0,0)" stroke="none" stroke-width="1"/></clipPath></g></g><g id="esk2wzo58inb61"><g id="esk2wzo58inb62" clip-path="url(#esk2wzo58inb64)"><polygon id="esk2wzo58inb63" points="258.400000,109.800000 306.100000,186.800000 222.300000,238.600000 174.700000,161.600000" fill="url(#esk2wzo58inb63-fill)" stroke="none" stroke-width="1"/><clipPath id="esk2wzo58inb64"><use id="esk2wzo58inb65" width="80.799988" height="56.500000" xlink:href="#esk2wzo58inb6" fill="rgb(0,0,0)" stroke="none" stroke-width="1"/></clipPath></g></g><g id="esk2wzo58inb66"><g id="esk2wzo58inb67" clip-path="url(#esk2wzo58inb69)"><rect id="esk2wzo58inb68" width="52.700000" height="93.400000" rx="0" ry="0" transform="matrix(1 0 0 1 266.39999999999998 146)" fill="url(#esk2wzo58inb68-fill)" stroke="none" stroke-width="1"/><clipPath id="esk2wzo58inb69"><use id="esk2wzo58inb70" width="52.799988" height="93.500000" xlink:href="#esk2wzo58inb7" fill="rgb(0,0,0)" stroke="none" stroke-width="1"/></clipPath></g></g><g id="esk2wzo58inb71"><g id="esk2wzo58inb72_tr" transform="translate(355.100037,214.634171) rotate(361)"><path id="esk2wzo58inb72" d="M358.700000,230.900000C357.600000,230.900000,356.600000,230.300000,356.100000,229.200000L355.800000,228.500000C355.500000,227.700000,354.700000,227.200000,353.800000,227.100000C352.900000,227,352.100000,227.400000,351.500000,228.100000L351,228.700000C350.600000,229.300000,349.900000,229.700000,349.200000,229.800000C348.500000,229.900000,347.700000,229.700000,347.100000,229.300000L343.500000,226.700000C342.200000,225.800000,342,224,342.900000,222.800000L343.400000,222.200000C343.900000,221.500000,344,220.600000,343.600000,219.700000C343.200000,218.900000,342.500000,218.300000,341.600000,218.200000L340.800000,218.100000C340.100000,218,339.400000,217.700000,338.900000,217.100000C338.400000,216.500000,338.200000,215.800000,338.300000,215L338.800000,210.600000C338.900000,209.900000,339.200000,209.200000,339.800000,208.700000C340.400000,208.200000,341.100000,208,341.900000,208.100000L342.700000,208.200000C343.600000,208.300000,344.400000,207.900000,344.900000,207.200000C345.400000,206.500000,345.600000,205.500000,345.200000,204.800000L344.900000,204.100000C344.300000,202.700000,344.900000,201,346.300000,200.400000L350.400000,198.600000C351.800000,198,353.500000,198.600000,354.100000,200L354.400000,200.700000C354.700000,201.500000,355.500000,202,356.400000,202.100000C357.300000,202.200000,358.100000,201.800000,358.700000,201.100000L359.200000,200.500000C360.100000,199.200000,361.900000,199,363.100000,199.900000L366.700000,202.500000C368,203.400000,368.200000,205.200000,367.300000,206.400000L366.800000,207C366.300000,207.700000,366.200000,208.600000,366.600000,209.500000C367,210.300000,367.700000,210.900000,368.600000,211L369.400000,211.100000C370.100000,211.200000,370.800000,211.500000,371.300000,212.100000C371.800000,212.700000,372,213.400000,371.900000,214.200000L371.400000,218.600000C371.300000,219.300000,371,220,370.400000,220.500000C369.800000,221,369.100000,221.200000,368.300000,221.100000L367.500000,221C366.600000,220.900000,365.800000,221.300000,365.300000,222C364.800000,222.700000,364.600000,223.700000,365,224.400000L365.300000,225.100000C365.900000,226.500000,365.300000,228.200000,363.900000,228.800000L359.800000,230.600000C359.400000,230.800000,359,230.900000,358.700000,230.900000ZM353.500000,225.100000C353.700000,225.100000,353.800000,225.100000,354,225.100000C355.600000,225.300000,357,226.200000,357.600000,227.700000L357.900000,228.400000C358.100000,228.800000,358.600000,229,359,228.800000L363.100000,227C363.500000,226.800000,363.700000,226.300000,363.500000,225.900000L363.200000,225.200000C362.600000,223.800000,362.800000,222.100000,363.700000,220.800000C364.700000,219.500000,366.200000,218.800000,367.700000,219L368.500000,219.100000C368.700000,219.100000,368.900000,219.100000,369.100000,218.900000C369.300000,218.800000,369.400000,218.600000,369.400000,218.300000L369.900000,213.900000C369.900000,213.700000,369.900000,213.500000,369.700000,213.300000C369.600000,213.100000,369.400000,213,369.100000,213L368.300000,212.900000C366.700000,212.700000,365.400000,211.700000,364.800000,210.300000C364.100000,208.800000,364.300000,207.200000,365.200000,205.900000L365.700000,205.300000C366,204.900000,365.900000,204.400000,365.500000,204.100000L361.900000,201.500000C361.500000,201.200000,361,201.300000,360.700000,201.700000L360.200000,202.300000C359.300000,203.600000,357.700000,204.200000,356.100000,204.100000C354.500000,203.900000,353.100000,203,352.500000,201.500000L352.200000,200.800000C352,200.400000,351.500000,200.200000,351.100000,200.400000L347,202.200000C346.600000,202.400000,346.400000,202.900000,346.600000,203.300000L346.900000,204C347.500000,205.400000,347.300000,207.100000,346.400000,208.400000C345.400000,209.700000,343.900000,210.400000,342.400000,210.200000L341.600000,210.100000C341.400000,210.100000,341.200000,210.100000,341,210.300000C340.800000,210.400000,340.700000,210.600000,340.700000,210.900000L340.200000,215.300000C340.200000,215.500000,340.200000,215.700000,340.400000,215.900000C340.500000,216.100000,340.700000,216.200000,341,216.200000L341.800000,216.300000C343.400000,216.500000,344.700000,217.500000,345.300000,218.900000C346,220.400000,345.800000,222,344.900000,223.300000L344.400000,223.900000C344.100000,224.300000,344.200000,224.800000,344.600000,225.100000L348.200000,227.700000C348.400000,227.800000,348.600000,227.900000,348.800000,227.900000C349,227.900000,349.200000,227.700000,349.400000,227.600000L349.900000,227C350.700000,225.700000,352,225.100000,353.500000,225.100000ZM355.100000,223.300000C354.800000,223.300000,354.500000,223.300000,354.200000,223.200000C349.400000,222.700000,346,218.400000,346.500000,213.600000L346.500000,213.600000C347,208.800000,351.300000,205.400000,356.100000,205.900000C360.900000,206.400000,364.300000,210.700000,363.800000,215.500000C363.600000,217.800000,362.400000,219.900000,360.600000,221.300000C359,222.600000,357.100000,223.300000,355.100000,223.300000ZM348.400000,213.800000C348,217.500000,350.700000,220.800000,354.400000,221.200000C356.200000,221.400000,357.900000,220.900000,359.300000,219.800000C360.700000,218.700000,361.600000,217.100000,361.800000,215.300000C362.200000,211.600000,359.500000,208.300000,355.800000,207.900000C352.100000,207.500000,348.800000,210.200000,348.400000,213.800000L348.400000,213.800000Z" transform="translate(-355.100037,-214.634171)" fill="rgb(193,39,45)" stroke="none" stroke-width="1"/></g></g></g></g><ellipse id="esk2wzo58inb73" rx="95.100000" ry="34.600000" transform="matrix(1 0 0 1 185.90000000000001 582.50000000000000)" fill="rgb(230,230,230)" stroke="none" stroke-width="1"/><g id="esk2wzo58inb74"><path id="esk2wzo58inb75" d="M240.900000,592.600000C197,607.300000,154.400000,607.300000,113.300000,593.900000C102.900000,590.500000,95.900000,580.800000,95.900000,569.900000L95.900000,368.600000C146.400000,379.700000,199.300000,380.300000,255.100000,368.600000L255.100000,573C255.100000,581.900000,249.400000,589.800000,240.900000,592.600000Z" fill="url(#esk2wzo58inb75-fill)" stroke="none" stroke-width="1"/><ellipse id="esk2wzo58inb76" rx="79.600000" ry="16" transform="matrix(1 0 0 1 175.50000000000000 367)" fill="rgb(102,0,0)" stroke="none" stroke-width="1"/><path id="esk2wzo58inb77" d="M255.100000,523.600000C202,542.100000,149,542.100000,95.900000,523.600000L95.900000,443.300000C149.400000,456.500000,202.500000,457.200000,255.100000,443.300000L255.100000,523.600000Z" opacity="0.45" fill="rgb(102,0,0)" stroke="none" stroke-width="1"/><path id="esk2wzo58inb78" d="M104.500000,386.900000C106.200000,393.300000,113.500000,397.600000,119.900000,396C124.400000,394.900000,128.200000,391.400000,132.900000,391.300000C138.200000,391.200000,142.300000,395.500000,145.400000,399.800000C151,407.600000,155.200000,416.300000,157.900000,425.400000C158.800000,428.500000,159.600000,431.700000,161.700000,434C166.300000,439,175,437.400000,180.100000,432.900000C185.200000,428.400000,188,421.900000,191.800000,416.300000C195.600000,410.700000,201.400000,405.400000,208.200000,405.800000C210.500000,405.900000,212.700000,406.700000,215,406.800000C220,407,225,403.400000,226.400000,398.600000C226.800000,397.100000,227,395.500000,227.700000,394.200000C230,390.200000,236.100000,389.800000,239.200000,386.500000C241.200000,384.400000,241.900000,381.400000,244.200000,379.400000C245.100000,378.600000,251.100000,376.100000,251.200000,375.800000C252.300000,372.600000,248.900000,369.600000,245.800000,368.200000C227.500000,360.100000,206.600000,368.200000,186.700000,371C167.200000,373.700000,148.600000,369.300000,129.300000,369.500000C118.400000,369.500000,100.500000,372.100000,104.500000,386.900000Z" opacity="0.9" fill="rgb(255,0,0)" stroke="none" stroke-width="1"/><ellipse id="esk2wzo58inb79" rx="79.600000" ry="16" transform="matrix(1 0 0 1 176.50000000000000 367.50000000000000)" opacity="0.19" fill="rgb(255,255,255)" stroke="none" stroke-width="1"/><ellipse id="esk2wzo58inb80" rx="65.500000" ry="9.700000" transform="matrix(1 0 0 1 174.30000000000001 367.50000000000000)" fill="rgb(102,0,0)" stroke="none" stroke-width="1"/></g><g id="esk2wzo58inb81_tr" transform="translate(570.496824,277.218122) rotate(0)"><g id="esk2wzo58inb81" transform="translate(-570.496824,-277.218122)"><path id="esk2wzo58inb82" d="M554.800000,313.900000C544.500000,328.900000,525.200000,337.200000,507.300000,334.200000C497,332.500000,487.600000,327.500000,478.400000,322.600000C472.900000,319.700000,467.300000,316.700000,463.100000,312.100000C459.900000,308.700000,455.900000,302.300000,457.200000,297.300000C458.600000,291.800000,466.300000,296.500000,470.200000,297.700000C482.300000,301.500000,494.400000,305.200000,506.400000,309C509,309.800000,511.600000,310.600000,514.300000,310.400000C519.300000,309.900000,523.200000,305.900000,526.500000,302.100000C530.200000,297.900000,534,294.300000,536.600000,289.300000C539.200000,284.300000,542,279.400000,545.400000,274.800000C550.100000,268.600000,557.200000,259.700000,565.600000,260.500000C568.500000,261,571,263.200000,571.800000,266.100000C573.200000,271.100000,569.800000,274.300000,567.800000,278.300000C566,281.900000,565.400000,286.400000,564.300000,290.300000C562.200000,298.600000,559.700000,306.800000,554.800000,313.900000Z" fill="rgb(42,149,191)" stroke="none" stroke-width="1"/><g id="esk2wzo58inb83"><path id="esk2wzo58inb84" d="M453.700000,297.300000C448.500000,298,432.500000,299.700000,430.600000,300.700000C429.600000,301.200000,427.800000,304.200000,425.400000,306.900000C423,309.500000,419.900000,311.800000,419.600000,312.400000C419,313.800000,420.600000,314.500000,423.800000,313.100000C427,311.700000,430.100000,307.600000,431.400000,307.300000C432.700000,306.900000,424.600000,318.700000,424,319.800000C423.300000,320.900000,427.900000,322.100000,431.700000,319.300000C435.500000,316.500000,437.800000,312.800000,438.500000,312.200000C439.200000,311.500000,436.700000,320.100000,436.100000,321.200000C435.600000,322.300000,437.300000,322.600000,438.800000,321.400000C440.300000,320.200000,442.100000,312.800000,442.700000,312.600000C443.300000,312.400000,449.500000,314,451.500000,313.100000C456.100000,311,455.700000,309.600000,457.500000,308.500000C460.400000,306.800000,456.800000,296.900000,453.700000,297.300000Z" fill="rgb(179,116,75)" stroke="none" stroke-width="1"/><g id="esk2wzo58inb85"><path id="esk2wzo58inb86" d="M433.500000,310.700000C432.900000,310.100000,432.900000,309.600000,433,309.300000C433.100000,308.800000,433.700000,308.400000,434.500000,307.800000C435.700000,307,437.400000,305.700000,438.500000,303.800000C439.900000,301.300000,450,297.900000,450.100000,297.900000C450.400000,297.800000,450.800000,298,450.900000,298.300000C451,298.600000,450.800000,299,450.500000,299.100000C446.400000,300.400000,440.400000,303.100000,439.600000,304.500000C438.400000,306.600000,436.500000,307.900000,435.200000,308.800000C434.800000,309.100000,434.300000,309.400000,434.200000,309.600000C434.300000,309.700000,434.600000,310,435.100000,310.300000C436,310.800000,437,311,437.700000,310.700000C438.700000,310.400000,439.900000,309.400000,440.900000,308.500000C441.500000,308,442.100000,307.500000,442.500000,307.300000C443.200000,306.900000,444.100000,307.200000,445.400000,307.700000C447.200000,308.300000,449.700000,309.100000,451.800000,308.100000C454.900000,306.700000,456,302.400000,456,302.400000C456.100000,302.100000,456.400000,301.900000,456.700000,302C457,302.100000,457.200000,302.400000,457.100000,302.700000C457.100000,302.900000,455.900000,307.500000,452.200000,309.200000C449.600000,310.400000,446.900000,309.500000,444.900000,308.800000C444.200000,308.600000,443.200000,308.200000,443,308.300000C442.700000,308.500000,442.100000,308.900000,441.500000,309.400000C440.400000,310.300000,439.100000,311.400000,437.900000,311.800000C437,312.100000,436.100000,311.900000,435.300000,311.700000C434.600000,311.500000,433.900000,311.100000,433.500000,310.700000ZM434.100000,309.700000L434.100000,309.700000L434.100000,309.700000Z" fill="rgb(135,88,57)" stroke="none" stroke-width="1"/></g></g><path id="esk2wzo58inb87" d="M462.400000,295.200000C460,294.700000,453.700000,294.400000,453.500000,295.300000C453.200000,296.200000,453.900000,309.100000,454.700000,310C455.500000,310.900000,460.700000,311.300000,462.300000,310.900000C464,310.300000,463.100000,295.300000,462.400000,295.200000Z" fill="rgb(106,181,207)" stroke="none" stroke-width="1"/></g></g><path id="esk2wzo58inb88" d="M343.306166,251.162512C336.165487,258.322610,341.406542,252.595526,336.170044,260.762512C331.290580,268.258239,320.443254,263.768917,324.846672,271.600274C330.083171,280.774150,304.259832,277.368686,313.423704,282.962512C322.468564,288.556338,294.163686,282.155900,302.970524,288.085356C317.251882,297.818614,320.817583,293.633093,336.170044,302.023833C354.378776,311.980844,374.729712,321.154719,394.723614,316.455905C397.103841,309.072054,391.867343,301.688203,387.344912,295.646871C382.822482,289.605538,378.657086,280.991046,382.703471,274.502207C388.177992,265.887714,402.697373,270.922158,408.409916,262.531419C412.932347,255.930704,408.290905,246.197446,402.340339,241.274879C396.270761,236.240435,388.654037,232.996016,384.726663,225.947794C381.275335,219.682709,381.394346,211.851352,379.966210,204.691254C375.800814,183.658467,393.241331,216.690782,373.247428,206.062512C366.582794,202.482463,380.745142,202.236082,373.247428,203.914230C366.106749,205.480501,375.571949,207.051045,370.097428,211.414230C351.071195,216.787138,368.061300,222.064884,358.897428,231.462512C360.723519,229.212024,375.457367,269.591814,343.306166,251.162512Z" transform="matrix(1 0 0 1 17.90257156999991 -8.66251200499997)" fill="url(#esk2wzo58inb88-fill)" stroke="none" stroke-width="1"/><g id="esk2wzo58inb89"><g id="esk2wzo58inb90"><g id="esk2wzo58inb91"><path id="esk2wzo58inb92" d="M645.400000,595.700000C648.500000,603.900000,647.400000,615,646.500000,617.400000C646,618.600000,641.900000,631.700000,653.500000,628.100000C661.100000,625.800000,662.600000,623.200000,661.600000,621.600000C656.900000,613.900000,659.500000,599.600000,659.500000,596.500000C659.600000,593.300000,644.300000,592.700000,645.400000,595.700000Z" fill="rgb(247,182,144)" stroke="none" stroke-width="1"/><path id="esk2wzo58inb93" d="M663.500000,627.200000C665,626.900000,664.400000,632,664,632.600000C663.600000,633.100000,655.700000,634.900000,647.200000,634.700000C639.500000,634.500000,634.600000,634.100000,634,632.700000C633.700000,632,634.200000,628.600000,635.700000,627.700000C637,626.900000,649.700000,626.100000,650.100000,626.200000C650.500000,626.100000,663.500000,627.200000,663.500000,627.200000Z" fill="rgb(7,43,69)" stroke="none" stroke-width="1"/><path id="esk2wzo58inb94" d="M648.600000,613.500000C646.900000,613.600000,644.500000,617.300000,643.100000,621.200000C641.500000,622.900000,638.700000,623.500000,637.200000,625.700000C636.200000,627.200000,634.800000,630,635.400000,630.700000C637.400000,633.300000,662.300000,632.800000,663.200000,630.500000C664.400000,627.500000,661.900000,624.800000,661.600000,621.800000C661.300000,619.100000,661.600000,617.700000,660.700000,616.300000C660.400000,615.900000,659.700000,616.100000,659.700000,617C659.800000,618.900000,660,622.200000,657.300000,622.500000C655,615.700000,651.400000,613.400000,648.600000,613.500000Z" fill="rgb(230,128,19)" stroke="none" stroke-width="1"/><path id="esk2wzo58inb95" d="M634,389C640.300000,419.500000,643.700000,475.400000,643.800000,502.600000C652.600000,509.300000,658.400000,517.600000,659.300000,521.500000C664.100000,540.900000,660.500000,597.900000,660.500000,600.200000C658.900000,603.200000,645.200000,606.300000,645.400000,601.100000C627.700000,526.500000,621.400000,526.300000,616.400000,512.900000C595.700000,458.500000,569.600000,397,569.600000,397L634,389Z" fill="rgb(0,87,158)" stroke="none" stroke-width="1"/></g><g id="esk2wzo58inb96"><g id="esk2wzo58inb97"><path id="esk2wzo58inb98" d="M580,251.100000C585.400000,241.700000,631.500000,240.900000,647.100000,260.600000C656.300000,272.200000,652.900000,293.400000,636.200000,291.700000C628.300000,290.800000,580,251.100000,580,251.100000Z" fill="rgb(106,181,207)" stroke="none" stroke-width="1"/><path id="esk2wzo58inb99" d="M606.200000,253.700000C609.300000,254.700000,633.200000,262.800000,642.900000,275.200000C652.700000,287.700000,632.500000,315,628.900000,328.200000C623.800000,346.800000,626,387.500000,628,400.100000C629.300000,408.100000,567.700000,402.100000,567.700000,402.100000C567.700000,402.100000,543.100000,277,563.800000,259C568.100000,255.200000,602.500000,252.500000,606.200000,253.700000Z" fill="rgb(247,147,30)" stroke="none" stroke-width="1"/><path id="esk2wzo58inb100" d="M619.400000,256.600000C626.300000,264,612.300000,269.900000,608.100000,273.700000C601.100000,280,595.700000,288,592.500000,296.800000C589.200000,305.800000,588.200000,315.500000,587.500000,325.200000C585.600000,351.300000,585.900000,377.500000,588.200000,403.500000C588.600000,407.900000,589.200000,412.600000,592.200000,415.900000C595.900000,420,601.900000,420.500000,607.400000,420.800000C617,421.300000,626.600000,421.800000,636.200000,422.300000C638.400000,422.400000,640.700000,422.500000,642.600000,421.300000C648.200000,417.700000,642.200000,403.600000,641.300000,398.700000C639.300000,388.100000,637.200000,377.400000,635.300000,366.800000C633.900000,358.700000,631.400000,349.700000,631.800000,341.400000C632.500000,327.300000,646.300000,316.600000,650.200000,303.200000C653.300000,292.700000,651.400000,279.500000,643.600000,271.700000C639.500000,267.600000,634,263.600000,629.100000,260.400000C626.200000,258.500000,622.400000,258.300000,619.400000,256.600000Z" fill="rgb(43,71,139)" stroke="none" stroke-width="1"/><path id="esk2wzo58inb101" d="M588,253C579.900000,257.700000,577.500000,268.700000,577.700000,277.400000C578.100000,291,577.400000,304.700000,577.300000,318.300000C577,345.600000,576.500000,372.900000,576,400.200000C575.900000,404.500000,575.700000,409,573.100000,412.400000C571.500000,414.600000,568.400000,415.900000,565.700000,415.400000C563,415,559,413.900000,556.400000,412.900000C545.300000,408.800000,547,413.500000,547.700000,404.400000C548.700000,392,550.700000,362.800000,552.800000,350.500000C554.200000,342,555.400000,333.500000,556,324.900000C556.500000,317.100000,554.600000,309.700000,554.800000,301.900000C555,296,555.200000,290.100000,555.400000,284.100000C555.600000,279,555.200000,273.700000,556.100000,268.700000C556.700000,265.300000,557.900000,261.700000,560.400000,259.300000C564.400000,255.500000,569.400000,256.900000,574,255C576.500000,254,578.600000,252.500000,581.400000,252.100000C582.600000,251.900000,583.900000,251.800000,585.200000,251.900000C585.700000,252,588.200000,252.800000,588.500000,252.700000C588.300000,252.900000,588.200000,252.900000,588,253Z" fill="rgb(43,71,139)" stroke="none" stroke-width="1"/><path id="esk2wzo58inb102" d="M645.300000,269.700000C641.900000,277.700000,634.400000,273.400000,621,274.300000C614.200000,274.700000,604.700000,288.700000,604.900000,285.600000C605,283.900000,608,271,614.800000,266.900000C625.100000,260.700000,616.600000,256.500000,613.400000,254.100000C614.800000,252.100000,618.100000,252.300000,618.100000,252.300000L635.600000,260.300000L645.300000,269.700000Z" fill="rgb(106,181,207)" stroke="none" stroke-width="1"/><path id="esk2wzo58inb103" d="M589.700000,252.900000C581.400000,255.500000,580.700000,266.800000,576.800000,276.300000C574.400000,282.200000,574.300000,258,580,251.100000C585.400000,244.700000,589.700000,252.900000,589.700000,252.900000Z" fill="rgb(106,181,207)" stroke="none" stroke-width="1"/><path id="esk2wzo58inb104" d="M636.900000,256.100000C633.200000,252.500000,613.100000,246.900000,613,248.700000C612.900000,249.500000,626.400000,253.700000,630.100000,255.500000C642.800000,261.500000,632.100000,265.200000,634.100000,265.800000C640,267.600000,643,262,636.900000,256.100000Z" fill="rgb(60,121,167)" stroke="none" stroke-width="1"/><g id="esk2wzo58inb105"><path id="esk2wzo58inb106" d="M605.700000,337.200000C605.700000,337.200000,605.800000,337.200000,605.700000,337.200000C606.200000,337.200000,606.500000,336.900000,606.500000,336.400000C606.500000,336,606.700000,334.900000,607,333.500000C607.800000,329.300000,609.400000,321.500000,608.800000,312.800000C608.600000,309.600000,608.300000,306.300000,607.900000,303C607.100000,294.500000,606.200000,285.700000,608,282C608.200000,281.600000,608,281.200000,607.700000,281C607.300000,280.800000,606.900000,281,606.700000,281.300000C604.700000,285.500000,605.500000,294.100000,606.400000,303.200000C606.700000,306.400000,607.100000,309.800000,607.300000,312.900000C607.800000,321.500000,606.300000,329.100000,605.500000,333.200000C605.200000,334.800000,605,335.800000,605,336.400000C605,336.800000,605.300000,337.100000,605.700000,337.200000Z" fill="rgb(204,204,204)" stroke="none" stroke-width="1"/></g><g id="esk2wzo58inb107"><path id="esk2wzo58inb108" d="M564.900000,327.600000C565,327.600000,565,327.600000,565.100000,327.600000C565.500000,327.500000,565.800000,327.100000,565.700000,326.700000C565.100000,324.100000,565.700000,322,566.500000,319.300000C567.400000,316.200000,568.500000,312.300000,567.700000,306.300000C566.300000,295.600000,571.400000,281.700000,576.900000,274.900000C577.200000,274.600000,577.100000,274.100000,576.800000,273.800000C576.500000,273.500000,576,273.600000,575.700000,273.900000C569.900000,281.100000,564.700000,295.200000,566.200000,306.500000C567,312.100000,565.900000,315.700000,565,318.900000C564.200000,321.700000,563.500000,324,564.200000,327.100000C564.300000,327.400000,564.500000,327.600000,564.900000,327.600000Z" fill="rgb(204,204,204)" stroke="none" stroke-width="1"/></g><path id="esk2wzo58inb109" d="M605.900000,335.300000C607,335.800000,607.200000,341.200000,606.600000,342.100000C606.100000,343,603.600000,342.600000,603.400000,342.100000C603.200000,341.600000,604.400000,334.600000,605.900000,335.300000Z" fill="rgb(247,147,30)" stroke="none" stroke-width="1"/><path id="esk2wzo58inb110" d="M564.700000,325.500000C565.900000,325.700000,567.200000,331,566.900000,332C566.600000,332.900000,564,333.100000,563.700000,332.700000C563.400000,332.300000,563.100000,325.200000,564.700000,325.500000Z" fill="rgb(247,147,30)" stroke="none" stroke-width="1"/><g id="esk2wzo58inb111" opacity="0.34"><path id="esk2wzo58inb112" d="M556.200000,298.700000C556.600000,298.700000,557,298.400000,557,298C557.800000,287.100000,559.700000,279.200000,562.900000,273.900000C563.100000,273.500000,563,273.100000,562.600000,272.900000C562.200000,272.700000,561.800000,272.800000,561.600000,273.200000C558.200000,278.800000,556.200000,286.900000,555.400000,298C555.500000,298.300000,555.800000,298.700000,556.200000,298.700000C556.200000,298.700000,556.200000,298.700000,556.200000,298.700000Z" fill="rgb(0,77,82)" stroke="none" stroke-width="1"/></g></g></g><g id="esk2wzo58inb113_tr" transform="translate(594.896027,272.496454) rotate(0)"><g id="esk2wzo58inb113" transform="translate(-594.896027,-272.496454)"><g id="esk2wzo58inb114"><path id="esk2wzo58inb115" d="M617.700000,206.800000C612.200000,202.900000,605.100000,201.400000,598.500000,200.100000C593.900000,199.200000,590.800000,192,590.500000,187.300000C590.200000,189,590.500000,198,589.900000,199.600000C586.700000,197.300000,583.800000,189,580.700000,186.100000C580.600000,193.400000,578.800000,203.700000,582.900000,210C585.900000,214.600000,586.400000,217.300000,586.300000,222.800000C586.200000,229,590.100000,234.400000,595.400000,237.400000C598.300000,239,601.100000,239.500000,604.300000,240.200000C605.500000,240.400000,606.100000,240.800000,606.700000,241.900000C607.300000,243.100000,607.300000,245.600000,609.200000,244C609.700000,243.600000,610,243,610.300000,242.500000C611.900000,239.900000,613.900000,237.600000,616.200000,235.600000C618.500000,233.700000,620.700000,232.800000,622.300000,230.100000C624.900000,225.700000,626.600000,219.600000,624.300000,214.700000C622.100000,209.800000,617.600000,206,612.800000,203.800000C610.300000,202.700000,608,201.100000,605.700000,199.500000C604.700000,198.800000,603.700000,198.100000,602.700000,197.400000C600.100000,195.600000,597.600000,193,596.600000,189.100000C597.200000,192,596.500000,197.700000,597.900000,200.300000" fill="rgb(43,71,139)" stroke="none" stroke-width="1"/><path id="esk2wzo58inb116" d="M590.100000,213.700000C590.100000,213.700000,590.100000,213.700000,590.100000,213.700000C592.400000,217.900000,597.200000,223.600000,607.700000,227.500000C609.400000,228.100000,606.200000,233.200000,605.700000,234.200000C606.800000,234.500000,607.600000,235.800000,607.300000,236.900000C608,234.100000,609.500000,231.800000,611.600000,229.700000C614.500000,226.800000,616.300000,229.200000,612.800000,233.600000C611.100000,235.800000,609.800000,236,609,236.800000C607.500000,238.300000,609.300000,246.900000,609.400000,248.800000C609.800000,255,611.300000,257.900000,606.200000,262.300000C601.400000,266.400000,597,270.900000,593,275.700000C594,274.400000,587.300000,263.400000,587.300000,260.800000C587.300000,256.400000,590.500000,251.900000,591.700000,247.700000C589.600000,248.300000,585.500000,248.300000,581.600000,245.300000C578,242.300000,581.300000,223.200000,590.100000,213.700000Z" fill="rgb(179,116,75)" stroke="none" stroke-width="1"/></g><path id="esk2wzo58inb117" d="M591.500000,240.100000C591.500000,240.100000,589.352721,240.383325,586.252721,239.483325C583.052721,238.583325,583.300000,237,583.300000,237C583.300000,237,586.300000,237.400000,591.500000,240.100000Z" fill="rgb(255,255,255)" stroke="none" stroke-width="1"/></g></g></g></g><g id="esk2wzo58inb118_to" transform="translate(490.194067,342.635206)"><g id="esk2wzo58inb118" transform="translate(-427.021362,-292.083488)"><path id="esk2wzo58inb119" d="M392.300000,156C392.700000,155.500000,392.600000,154.700000,392.100000,154.300000L389.500000,152.200000L389.400000,152.300000L374.500000,141.100000C374,140.700000,373.200000,140.800000,372.800000,141.300000L371.500000,143C371.100000,143.500000,371.200000,144.300000,371.700000,144.700000L385.400000,155.100000C385.900000,155.500000,386,156.300000,385.600000,156.800000L334.100000,220C333.700000,220.500000,333.800000,221.300000,334.300000,221.700000L336.900000,223.800000L336.900000,223.800000L373.300000,253.600000C373.800000,254,374.600000,253.900000,375,253.400000L376.400000,251.700000C376.800000,251.200000,376.700000,250.400000,376.200000,250L340.800000,221C340.300000,220.600000,340.200000,219.800000,340.600000,219.300000L392.300000,156Z" fill="rgb(51,51,51)" stroke="none" stroke-width="1"/><rect id="esk2wzo58inb120" width="38.400000" height="169" rx="0" ry="0" transform="matrix(-0.77390000000000 -0.63340000000000 0.63340000000000 -0.77390000000000 267.99131000000006 270.50773999999996)" fill="rgb(234,0,5)" stroke="none" stroke-width="1"/><path id="esk2wzo58inb121" d="M617.900000,463.100000C621.300000,468.500000,622.700000,474.300000,613.300000,473.500000C605.900000,472.900000,598.700000,462.100000,593.600000,457.500000C548.900000,417.400000,504.200000,377.400000,459.500000,337.300000C428.300000,309.300000,397.100000,281.400000,365.900000,253.400000C365.700000,253.200000,365.600000,252.800000,365.900000,252.600000L374,243.500000C374.200000,243.300000,374.600000,243.200000,374.800000,243.500000C379.500000,247.700000,384.100000,251.800000,388.700000,256C434.200000,296.800000,479.700000,337.600000,525.200000,378.400000C547.500000,398.400000,569.800000,418.300000,592.100000,438.300000C598.800000,444.300000,605.500000,450.200000,612.100000,456.300000C613.900000,457.800000,616.100000,460.400000,617.900000,463.100000Z" fill="rgb(51,51,51)" stroke="none" stroke-width="1"/><ellipse id="esk2wzo58inb122" rx="7.200000" ry="19.400000" transform="matrix(0.63340000000000 -0.77390000000000 0.77390000000000 0.63340000000000 253.13990999999999 258.25312999999994)" fill="rgb(102,0,0)" stroke="none" stroke-width="1"/><ellipse id="esk2wzo58inb123" rx="7.200000" ry="19.400000" transform="matrix(0.63340000000000 -0.77390000000000 0.77390000000000 0.63340000000000 359.53834999999998 128.45284999999998)" fill="rgb(234,0,5)" stroke="none" stroke-width="1"/></g></g><g id="esk2wzo58inb124"><g id="esk2wzo58inb125_tr" transform="translate(633.376490,286.047709) rotate(-12.315898)"><g id="esk2wzo58inb125" transform="translate(-633.376490,-286.047709)"><path id="esk2wzo58inb126" d="M589.700000,400.500000C589.700000,400.500000,580,405,578.800000,406.300000C577.500000,407.500000,568.800000,417.100000,567.500000,418C566.100000,418.900000,558.700000,419.900000,557.700000,420.100000C556.600000,420.300000,555.200000,419.700000,554.100000,418.600000C551.600000,418.800000,551.100000,418.800000,550.500000,418.700000C549.400000,418.600000,548.300000,417.800000,548.100000,417.300000C546.600000,417.300000,543,417.500000,541.200000,415.300000C540.100000,414.200000,543.100000,413.700000,545.100000,413.500000C547.200000,413.400000,552.200000,412.900000,552.500000,412.700000C552.800000,412.500000,559.900000,405.600000,560,404.200000C560.100000,402.800000,558.600000,402.900000,557.900000,402.900000C557.200000,402.900000,549.600000,403.600000,549.600000,403.600000C549.600000,403.600000,555.900000,398.600000,557.800000,398.200000C559.700000,397.800000,565.800000,396.800000,570,396.600000C571.500000,396.400000,579.500000,392.100000,579.500000,392.100000L589.700000,400.500000Z" fill="rgb(179,116,75)" stroke="none" stroke-width="1"/><g id="esk2wzo58inb127"><path id="esk2wzo58inb128" d="M625.300000,318.200000C627.600000,330,629.800000,341.700000,626.400000,354.100000C623.300000,365.400000,573.500000,393.300000,573.500000,393.300000C579.400000,398.200000,582.600000,406.900000,582.600000,406.900000C582.600000,406.900000,626.100000,387.600000,635.400000,380.300000C645.800000,372.100000,658.900000,358.900000,658,344.900000C656.700000,326.700000,656,309,651.900000,291.100000C650.100000,283,644.300000,271.500000,634,273.200000C624.600000,274.800000,623.100000,284.800000,622.700000,292.400000C622.100000,301.400000,623.700000,309.800000,625.300000,318.200000Z" fill="rgb(45,161,196)" stroke="none" stroke-width="1"/></g><path id="esk2wzo58inb129" d="M583.800000,405.200000C583.900000,406.900000,579.800000,408.900000,578.700000,408.700000C577.600000,408.500000,568.700000,398.400000,568.700000,396.600000C568.700000,394.800000,572.800000,390.100000,574.900000,389.500000C577.100000,389,583.700000,402.500000,583.800000,405.200000Z" fill="rgb(106,181,207)" stroke="none" stroke-width="1"/></g></g><g id="esk2wzo58inb130" opacity="0.41"><path id="esk2wzo58inb131" d="M624,321.600000C624.100000,321.600000,624.100000,321.600000,624.200000,321.600000C624.600000,321.500000,624.900000,321.100000,624.800000,320.700000C620.400000,301.400000,620.800000,293.100000,623.100000,283.800000C623.200000,283.400000,623,283,622.600000,282.900000C622.200000,282.800000,621.800000,283,621.700000,283.400000C619.300000,293,618.800000,301.500000,623.400000,321C623.300000,321.300000,623.600000,321.600000,624,321.600000Z" fill="rgb(255,255,255)" stroke="none" stroke-width="1"/></g></g></svg>