<svg id="eejj46agblio1" xmlns="http://www.w3.org/2000/svg" xmlns:xlink="http://www.w3.org/1999/xlink" viewBox="0 0 446.300000 496.300000" shape-rendering="geometricPrecision" text-rendering="geometricPrecision"><style><![CDATA[#eejj46agblio13_ts {animation: eejj46agblio13_ts__ts 5000ms linear infinite normal forwards}@keyframes eejj46agblio13_ts__ts { 0% {transform: translate(93.763640px,102.033640px) rotate(-71.652017deg) scale(1.000040,1.000040);animation-timing-function: cubic-bezier(0.420000,0,0.580000,1)} 10% {transform: translate(93.763640px,102.033640px) rotate(-71.652017deg) scale(0.799940,0.799940);animation-timing-function: cubic-bezier(0.420000,0,0.580000,1)} 20% {transform: translate(93.763640px,102.033640px) rotate(-71.652017deg) scale(1.000040,1.000040);animation-timing-function: cubic-bezier(0.420000,0,0.580000,1)} 30% {transform: translate(93.763640px,102.033640px) rotate(-71.652017deg) scale(0.799940,0.799940);animation-timing-function: cubic-bezier(0.420000,0,0.580000,1)} 40% {transform: translate(93.763640px,102.033640px) rotate(-71.652017deg) scale(1.000040,1.000040);animation-timing-function: cubic-bezier(0.420000,0,0.580000,1)} 48% {transform: translate(93.763640px,102.033640px) rotate(-71.652017deg) scale(0.799940,0.799940);animation-timing-function: cubic-bezier(0.420000,0,0.580000,1)} 58% {transform: translate(93.763640px,102.033640px) rotate(-71.652017deg) scale(1.000040,1.000040);animation-timing-function: cubic-bezier(0.420000,0,0.580000,1)} 70% {transform: translate(93.763640px,102.033640px) rotate(-71.652017deg) scale(0.799940,0.799940);animation-timing-function: cubic-bezier(0.420000,0,0.580000,1)} 80% {transform: translate(93.763640px,102.033640px) rotate(-71.652017deg) scale(1.000040,1.000040);animation-timing-function: cubic-bezier(0.420000,0,0.580000,1)} 88% {transform: translate(93.763640px,102.033640px) rotate(-71.652017deg) scale(0.799940,0.799940);animation-timing-function: cubic-bezier(0.420000,0,0.580000,1)} 98% {transform: translate(93.763640px,102.033640px) rotate(-71.652017deg) scale(1.000040,1.000040)} 100% {transform: translate(93.763640px,102.033640px) rotate(-71.652017deg) scale(1.000040,1.000040)} }#eejj46agblio14_ts {animation: eejj46agblio14_ts__ts 5000ms linear infinite normal forwards}@keyframes eejj46agblio14_ts__ts { 0% {transform: translate(69.283060px,107.144520px) rotate(-71.652017deg) scale(0.799940,0.799940);animation-timing-function: cubic-bezier(0.420000,0,0.580000,1)} 12% {transform: translate(69.283060px,107.144520px) rotate(-71.652017deg) scale(1.000040,1.000040);animation-timing-function: cubic-bezier(0.420000,0,0.580000,1)} 22% {transform: translate(69.283060px,107.144520px) rotate(-71.652017deg) scale(0.799940,0.799940);animation-timing-function: cubic-bezier(0.420000,0,0.580000,1)} 32% {transform: translate(69.283060px,107.144520px) rotate(-71.652017deg) scale(1.000040,1.000040);animation-timing-function: cubic-bezier(0.420000,0,0.580000,1)} 42% {transform: translate(69.283060px,107.144520px) rotate(-71.652017deg) scale(0.799940,0.799940);animation-timing-function: cubic-bezier(0.420000,0,0.580000,1)} 52% {transform: translate(69.283060px,107.144520px) rotate(-71.652017deg) scale(1.000040,1.000040);animation-timing-function: cubic-bezier(0.420000,0,0.580000,1)} 60% {transform: translate(69.283060px,107.144520px) rotate(-71.652017deg) scale(0.799940,0.799940);animation-timing-function: cubic-bezier(0.420000,0,0.580000,1)} 70% {transform: translate(69.283060px,107.144520px) rotate(-71.652017deg) scale(1.000040,1.000040);animation-timing-function: cubic-bezier(0.420000,0,0.580000,1)} 82% {transform: translate(69.283060px,107.144520px) rotate(-71.652017deg) scale(0.799940,0.799940);animation-timing-function: cubic-bezier(0.420000,0,0.580000,1)} 92% {transform: translate(69.283060px,107.144520px) rotate(-71.652017deg) scale(1.000040,1.000040);animation-timing-function: cubic-bezier(0.420000,0,0.580000,1)} 100% {transform: translate(69.283060px,107.144520px) rotate(-71.652017deg) scale(0.799940,0.799940)} }#eejj46agblio15_ts {animation: eejj46agblio15_ts__ts 5000ms linear infinite normal forwards}@keyframes eejj46agblio15_ts__ts { 0% {transform: translate(43.735640px,112.382480px) rotate(-71.652017deg) scale(1.000040,1.000040);animation-timing-function: cubic-bezier(0.420000,0,0.580000,1)} 10% {transform: translate(43.735640px,112.382480px) rotate(-71.652017deg) scale(0.799940,0.799940);animation-timing-function: cubic-bezier(0.420000,0,0.580000,1)} 20% {transform: translate(43.735640px,112.382480px) rotate(-71.652017deg) scale(1.000040,1.000040);animation-timing-function: cubic-bezier(0.420000,0,0.580000,1)} 30% {transform: translate(43.735640px,112.382480px) rotate(-71.652017deg) scale(0.799940,0.799940);animation-timing-function: cubic-bezier(0.420000,0,0.580000,1)} 40% {transform: translate(43.735640px,112.382480px) rotate(-71.652017deg) scale(1.000040,1.000040);animation-timing-function: cubic-bezier(0.420000,0,0.580000,1)} 48% {transform: translate(43.735640px,112.382480px) rotate(-71.652017deg) scale(0.799940,0.799940);animation-timing-function: cubic-bezier(0.420000,0,0.580000,1)} 58% {transform: translate(43.735640px,112.382480px) rotate(-71.652017deg) scale(1.000040,1.000040);animation-timing-function: cubic-bezier(0.420000,0,0.580000,1)} 70% {transform: translate(43.735640px,112.382480px) rotate(-71.652017deg) scale(0.799940,0.799940);animation-timing-function: cubic-bezier(0.420000,0,0.580000,1)} 80% {transform: translate(43.735640px,112.382480px) rotate(-71.652017deg) scale(1.000040,1.000040);animation-timing-function: cubic-bezier(0.420000,0,0.580000,1)} 88% {transform: translate(43.735640px,112.382480px) rotate(-71.652017deg) scale(0.799940,0.799940);animation-timing-function: cubic-bezier(0.420000,0,0.580000,1)} 98% {transform: translate(43.735640px,112.382480px) rotate(-71.652017deg) scale(1.000040,1.000040)} 100% {transform: translate(43.735640px,112.382480px) rotate(-71.652017deg) scale(1.000040,1.000040)} }#eejj46agblio79_to {animation: eejj46agblio79_to__to 5000ms linear infinite normal forwards}@keyframes eejj46agblio79_to__to { 0% {transform: translate(199.412009px,283.310962px)} 18% {transform: translate(199.412009px,283.310962px);animation-timing-function: cubic-bezier(0.420000,0,0.580000,1)} 28% {transform: translate(199.412009px,289.899996px)} 100% {transform: translate(199.412009px,289.899996px)} }#eejj46agblio80 {animation: eejj46agblio80_f_p 5000ms linear infinite normal forwards}@keyframes eejj46agblio80_f_p { 0% {fill: rgb(229,136,23)} 20% {fill: rgb(229,136,23);animation-timing-function: cubic-bezier(0.420000,0,0.580000,1)} 28% {fill: rgb(21,85,7)} 100% {fill: rgb(21,85,7)} }#eejj46agblio81 {animation: eejj46agblio81_f_p 5000ms linear infinite normal forwards}@keyframes eejj46agblio81_f_p { 0% {fill: rgb(255,167,51)} 20% {fill: rgb(255,167,51);animation-timing-function: cubic-bezier(0.420000,0,0.580000,1)} 28% {fill: rgb(8,175,45)} 100% {fill: rgb(8,175,45)} }#eejj46agblio85 {animation: eejj46agblio85_f_p 5000ms linear infinite normal forwards}@keyframes eejj46agblio85_f_p { 0% {fill: rgb(204,106,0)} 20% {fill: rgb(204,106,0);animation-timing-function: cubic-bezier(0.420000,0,0.580000,1)} 28% {fill: rgb(21,85,7)} 100% {fill: rgb(21,85,7)} }#eejj46agblio89 {animation: eejj46agblio89_f_p 5000ms linear infinite normal forwards}@keyframes eejj46agblio89_f_p { 0% {fill: rgb(243,145,30)} 12% {fill: rgb(243,145,30)} 20% {fill: rgb(40,174,46)} 100% {fill: rgb(40,174,46)} }#eejj46agblio91 {animation: eejj46agblio91_f_p 5000ms linear infinite normal forwards}@keyframes eejj46agblio91_f_p { 0% {fill: rgb(243,145,30)} 12% {fill: rgb(243,145,30)} 20% {fill: rgb(40,174,46)} 100% {fill: rgb(40,174,46)} }#eejj46agblio93 {animation: eejj46agblio93_f_p 5000ms linear infinite normal forwards}@keyframes eejj46agblio93_f_p { 0% {fill: rgb(243,145,30)} 12% {fill: rgb(243,145,30)} 20% {fill: rgb(40,174,46)} 100% {fill: rgb(40,174,46)} }#eejj46agblio95 {animation: eejj46agblio95_f_p 5000ms linear infinite normal forwards}@keyframes eejj46agblio95_f_p { 0% {fill: rgb(243,145,30)} 12% {fill: rgb(243,145,30)} 20% {fill: rgb(40,174,46)} 100% {fill: rgb(40,174,46)} }#eejj46agblio97_ts {animation: eejj46agblio97_ts__ts 5000ms linear infinite normal forwards}@keyframes eejj46agblio97_ts__ts { 0% {transform: translate(256.806473px,148.087433px) scale(0,0);animation-timing-function: cubic-bezier(0.420000,0,0.580000,1)} 12% {transform: translate(256.806473px,148.087433px) scale(0,0);animation-timing-function: cubic-bezier(0.420000,0,0.580000,1)} 18% {transform: translate(256.806473px,148.087433px) scale(1,1)} 100% {transform: translate(256.806473px,148.087433px) scale(1,1)} }#eejj46agblio97 {animation: eejj46agblio97_f_p 5000ms linear infinite normal forwards}@keyframes eejj46agblio97_f_p { 0% {fill: rgb(243,145,30)} 12% {fill: rgb(243,145,30)} 20% {fill: rgb(40,174,46)} 100% {fill: rgb(40,174,46)} }#eejj46agblio98_to {animation: eejj46agblio98_to__to 5000ms linear infinite normal forwards}@keyframes eejj46agblio98_to__to { 0% {transform: translate(267.841080px,137.613117px);animation-timing-function: cubic-bezier(0.420000,0,0.580000,1)} 12% {transform: translate(285.841080px,137.613117px)} 100% {transform: translate(285.841080px,137.613117px)} }#eejj46agblio100 {animation: eejj46agblio100_f_p 5000ms linear infinite normal forwards}@keyframes eejj46agblio100_f_p { 0% {fill: rgb(243,145,30)} 12% {fill: rgb(243,145,30)} 20% {fill: rgb(40,174,46)} 100% {fill: rgb(40,174,46)} }#eejj46agblio102 {animation: eejj46agblio102_f_p 5000ms linear infinite normal forwards}@keyframes eejj46agblio102_f_p { 0% {fill: rgb(243,145,30)} 12% {fill: rgb(243,145,30)} 20% {fill: rgb(40,174,46)} 100% {fill: rgb(40,174,46)} }#eejj46agblio104 {animation: eejj46agblio104_f_p 5000ms linear infinite normal forwards}@keyframes eejj46agblio104_f_p { 0% {fill: rgb(243,145,30)} 12% {fill: rgb(243,145,30)} 20% {fill: rgb(40,174,46)} 100% {fill: rgb(40,174,46)} }#eejj46agblio106 {animation: eejj46agblio106_f_p 5000ms linear infinite normal forwards}@keyframes eejj46agblio106_f_p { 0% {fill: rgb(243,145,30)} 12% {fill: rgb(243,145,30)} 20% {fill: rgb(40,174,46)} 100% {fill: rgb(40,174,46)} }#eejj46agblio107_tr {animation: eejj46agblio107_tr__tr 5000ms linear infinite normal forwards}@keyframes eejj46agblio107_tr__tr { 0% {transform: translate(79.581540px,208.573987px) rotate(15.601684deg)} 18% {transform: translate(79.581540px,208.573987px) rotate(15.601684deg);animation-timing-function: cubic-bezier(0.420000,0,0.580000,1)} 42% {transform: translate(79.581540px,208.573987px) rotate(0deg);animation-timing-function: cubic-bezier(0.420000,0,0.580000,1)} 70% {transform: translate(79.581540px,208.573987px) rotate(0deg);animation-timing-function: cubic-bezier(0.420000,0,0.580000,1)} 84% {transform: translate(79.581540px,208.573987px) rotate(15.601684deg)} 100% {transform: translate(79.581540px,208.573987px) rotate(15.601684deg)} }#eejj46agblio116 {animation: eejj46agblio116_f_p 5000ms linear infinite normal forwards}@keyframes eejj46agblio116_f_p { 0% {fill: rgb(204,106,0)} 20% {fill: rgb(204,106,0);animation-timing-function: cubic-bezier(0.420000,0,0.580000,1)} 28% {fill: rgb(21,85,7)} 100% {fill: rgb(21,85,7)} }]]></style><defs><path id="eejj46agblio2" d="M136.700000,285.600000C136.700000,285.600000,151.300000,355.800000,152.100000,380.900000C152.500000,391.600000,146.900000,427.400000,151,446.100000C150.500000,449.600000,140.100000,450.400000,139.700000,448.500000C135.800000,432.600000,126,408.900000,125.200000,395C125,391.900000,128.300000,386.400000,130.200000,381.700000C126,369.800000,108.500000,325.600000,108.500000,325.600000L123.900000,271.800000L136.700000,285.600000Z"/><linearGradient id="eejj46agblio6-fill" x1="244.740766" y1="73.840465" x2="239.342317" y2="49.455019" spreadMethod="pad" gradientUnits="userSpaceOnUse"><stop id="eejj46agblio6-fill-0" offset="0%" stop-color="rgba(255,255,255,0)"/><stop id="eejj46agblio6-fill-1" offset="66.410000%" stop-color="rgba(83,83,83,0.3966)"/><stop id="eejj46agblio6-fill-2" offset="99.360000%" stop-color="rgba(0,0,0,0.6)"/></linearGradient><linearGradient id="eejj46agblio11-fill" x1="19.792100" y1="73.019700" x2="439.278200" y2="73.019700" spreadMethod="pad" gradientUnits="userSpaceOnUse"><stop id="eejj46agblio11-fill-0" offset="0%" stop-color="rgb(200,15,14)"/><stop id="eejj46agblio11-fill-1" offset="100%" stop-color="rgb(141,15,28)"/></linearGradient><linearGradient id="eejj46agblio23-fill" x1="140.489000" y1="463.030400" x2="173.360000" y2="463.030400" spreadMethod="pad" gradientUnits="userSpaceOnUse"><stop id="eejj46agblio23-fill-0" offset="0%" stop-color="rgb(20,66,135)"/><stop id="eejj46agblio23-fill-1" offset="85.140000%" stop-color="rgb(38,86,175)"/></linearGradient><linearGradient id="eejj46agblio26-fill" x1="60.374600" y1="464.118200" x2="81.587600" y2="464.118200" spreadMethod="pad" gradientUnits="userSpaceOnUse"><stop id="eejj46agblio26-fill-0" offset="0%" stop-color="rgb(20,66,135)"/><stop id="eejj46agblio26-fill-1" offset="85.140000%" stop-color="rgb(38,86,175)"/></linearGradient><linearGradient id="eejj46agblio76-fill" x1="262.065400" y1="255.980700" x2="213.655500" y2="361.981700" spreadMethod="pad" gradientUnits="userSpaceOnUse"><stop id="eejj46agblio76-fill-0" offset="0%" stop-color="rgba(255,255,255,0.2)"/><stop id="eejj46agblio76-fill-1" offset="100%" stop-color="rgba(255,255,255,0)"/></linearGradient></defs><g id="eejj46agblio3"><g id="eejj46agblio4"><g id="eejj46agblio5"><polygon id="eejj46agblio6" points="440.400000,9 25.300000,97.900000 48.300000,117.100000 457.700000,20.600000" transform="matrix(1 0 0 1 -11.94924859999998 327.09999999999974)" fill="url(#eejj46agblio6-fill)" stroke="none" stroke-width="1"/><path id="eejj46agblio7" d="M27.800000,427.600000C22.100000,428.800000,17.600000,424,17.700000,417L20.400000,127.200000C20.500000,120.100000,25.100000,113.400000,30.700000,112.200000L430.500000,25.200000C431.100000,25.100000,431.800000,25.300000,432.300000,26L438.500000,14.200000C436.200000,8.900000,429.800000,5.700000,425.600000,3.500000C423.300000,2.200000,419.700000,1.600000,416.800000,2.200000L23.700000,87.600000C23.700000,87.600000,18.900000,88.900000,15.200000,93.200000C11.500000,97.300000,10.500000,101.600000,10.400000,106.500000L10.300000,122.500000L10.300000,123L10.200000,132.400000L7.400000,411.100000C7.300000,418.200000,7.900000,421.600000,13.200000,425.200000C18.500000,428.900000,27.800000,427.600000,27.800000,427.600000Z" fill="rgb(127,3,3)" stroke="none" stroke-width="1"/><path id="eejj46agblio8" d="M427.500000,340.700000L27.700000,427.600000C22,428.800000,17.500000,424,17.600000,417L20.300000,127.200000C20.400000,120.100000,25,113.400000,30.600000,112.200000L439.400000,22L439,56.700000L436.400000,325.800000C436.600000,332.900000,433.200000,339.500000,427.500000,340.700000Z" opacity="0.9" fill="rgb(234,0,5)" stroke="none" stroke-width="1"/><path id="eejj46agblio9" d="M416,329.100000L39,411.100000C33.700000,412.300000,29.400000,407.700000,29.400000,401L32,162.800000C32,156.100000,36.400000,149.700000,41.800000,148.600000L415,66.300000C421.200000,64.900000,427.200000,69.700000,427,76.100000L424.400000,315.100000C424.400000,321.700000,421.300000,327.900000,416,329.100000Z" transform="matrix(1 0 0 1 0.59997998999998 -1.07317431000001)" fill="rgb(255,255,255)" stroke="none" stroke-width="1"/><path id="eejj46agblio10" d="M433.900000,12.200000C431.600000,9.500000,428.300000,8.200000,424.600000,9L33.400000,94C26.400000,95.600000,20.600000,103.800000,20.500000,112.600000L20.400000,128.500000L20.300000,138.500000L17.700000,415.900000C17.700000,420.200000,19.300000,423.500000,21.800000,425.300000L433.900000,12.200000Z" opacity="0.14" fill="rgb(204,204,204)" stroke="none" stroke-width="1"/><path id="eejj46agblio11" d="M439.100000,47.400000L20.100000,138.600000L19.800000,112.400000C19.900000,103.500000,25.700000,95.100000,32.700000,93.700000L427.400000,7.700000C434.500000,6.100000,439.400000,11.300000,439.300000,20.200000L439.100000,47.400000Z" fill="url(#eejj46agblio11-fill)" stroke="none" stroke-width="1"/><g id="eejj46agblio12"><g id="eejj46agblio13_ts" transform="translate(93.763640,102.033640) rotate(-71.652017) scale(1.000040,1.000040)"><ellipse id="eejj46agblio13" rx="10.100000" ry="7.500000" transform="translate(0,0)" fill="rgb(255,255,255)" stroke="none" stroke-width="1"/></g><g id="eejj46agblio14_ts" transform="translate(69.283060,107.144520) rotate(-71.652017) scale(0.799940,0.799940)"><ellipse id="eejj46agblio14" rx="10.100000" ry="7.500000" transform="translate(0,0)" fill="rgb(255,255,255)" stroke="none" stroke-width="1"/></g><g id="eejj46agblio15_ts" transform="translate(43.735640,112.382480) rotate(-71.652017) scale(1.000040,1.000040)"><ellipse id="eejj46agblio15" rx="10.100000" ry="7.500000" transform="translate(0,0)" fill="rgb(255,255,255)" stroke="none" stroke-width="1"/></g></g><path id="eejj46agblio16" d="M328.900000,59.300000L140.400000,101.600000C136.400000,102.500000,133.200000,99.100000,133.300000,94.100000L133.300000,94.100000C133.300000,89.100000,136.700000,84.400000,140.700000,83.500000L329.200000,41.200000C333.200000,40.300000,336.400000,43.700000,336.300000,48.700000L336.300000,48.700000C336.100000,53.800000,332.900000,58.500000,328.900000,59.300000Z" fill="rgb(255,255,255)" stroke="none" stroke-width="1"/></g></g></g><g id="eejj46agblio17"><ellipse id="eejj46agblio18" rx="64.100000" ry="25.700000" transform="matrix(1 0 0 1 115.34999999999999 464.59303396000001)" fill="rgb(216,216,216)" fill-opacity="0.54" stroke="none" stroke-width="1"/></g><g id="eejj46agblio19"><g id="eejj46agblio20"><path id="eejj46agblio21" d="M140.700000,465.500000C139.300000,465.300000,139.500000,468.600000,140,468.900000C143.300000,470.700000,151.500000,470.900000,157.900000,471.400000C165.400000,471.900000,173.100000,471.500000,173.800000,470.400000C174.400000,469.400000,175.100000,467.400000,172.500000,466.100000C171.300000,465.500000,154.200000,464.500000,153.800000,464.600000C153.400000,464.600000,140.700000,465.500000,140.700000,465.500000Z" fill="rgb(7,43,69)" stroke="none" stroke-width="1"/><path id="eejj46agblio22" d="M149.100000,442C149.400000,447,152.100000,456.300000,153,458.200000C153.300000,458.900000,157,463.100000,155,465.200000C151.900000,468.500000,144.200000,468.900000,142.200000,461.200000C144.200000,453,138.700000,445.700000,138.700000,443.200000C138.600000,440.700000,148.900000,439.400000,149.100000,442Z" fill="rgb(247,182,144)" stroke="none" stroke-width="1"/><path id="eejj46agblio23" d="M142.200000,457.300000C142.400000,461.900000,139.700000,462.900000,140.700000,466.500000C141.200000,468.400000,168.500000,471.500000,172.400000,468.900000C174.500000,467.500000,172.600000,466,170.300000,465C167.600000,463.900000,160.900000,461.100000,158.400000,460C155,458.500000,154.200000,455.500000,153.500000,456.100000C151.800000,457.300000,152.600000,462.800000,151.200000,463.500000C148.500000,464.900000,143.800000,458.300000,142.800000,457.100000C142.500000,456.800000,142.200000,457,142.200000,457.300000Z" fill="url(#eejj46agblio23-fill)" stroke="none" stroke-width="1"/><path id="eejj46agblio24" d="M74,443.700000C71.600000,449.800000,72.500000,458.200000,73.200000,460C73.600000,460.900000,76.700000,470.700000,68,468C62.300000,466.200000,61.200000,464.300000,61.900000,463.100000C65.400000,457.300000,63.500000,446.600000,63.500000,444.200000C63.400000,441.800000,74.800000,441.400000,74,443.700000Z" fill="rgb(247,182,144)" stroke="none" stroke-width="1"/><path id="eejj46agblio25" d="M60.400000,467.200000C59.300000,467,59.700000,470.800000,60,471.200000C60.300000,471.600000,66.200000,472.900000,72.600000,472.800000C78.400000,472.700000,82,472.300000,82.500000,471.300000C82.700000,470.800000,82.400000,468.200000,81.300000,467.500000C80.300000,466.900000,70.800000,466.300000,70.500000,466.400000C70.100000,466.500000,60.400000,467.200000,60.400000,467.200000Z" fill="rgb(7,43,69)" stroke="none" stroke-width="1"/><path id="eejj46agblio26" d="M71.600000,457C72.900000,457,74.700000,459.900000,75.700000,462.800000C76.900000,464,79,464.500000,80.200000,466.200000C81,467.400000,82,469.400000,81.500000,469.900000C80,471.800000,61.300000,471.500000,60.600000,469.800000C59.700000,467.600000,61.600000,465.500000,61.800000,463.300000C62,461.300000,61.800000,460.300000,62.500000,459.200000C62.700000,458.900000,63.300000,459.100000,63.300000,459.700000C63.300000,461.100000,63,463.600000,65.100000,463.900000C66.800000,458.700000,69.500000,456.900000,71.600000,457Z" fill="url(#eejj46agblio26-fill)" stroke="none" stroke-width="1"/><g id="eejj46agblio27"><g id="eejj46agblio28"><g id="eejj46agblio29" clip-path="url(#eejj46agblio39)"><rect id="eejj46agblio30" width="44" height="178.700000" rx="0" ry="0" transform="matrix(1 0 0 1 108.50000000000000 271.69999999999999)" fill="rgb(0,74,135)" stroke="none" stroke-width="1"/><path id="eejj46agblio31" d="M113.200000,349.500000C109.800000,350.400000,108,354.800000,109.100000,359.300000C110.300000,363.800000,114,366.800000,117.400000,365.900000C120.800000,365,122.600000,360.600000,121.500000,356.100000C120.300000,351.600000,116.600000,348.600000,113.200000,349.500000Z" fill="rgb(36,84,122)" stroke="none" stroke-width="1"/><path id="eejj46agblio32" d="M113.400000,350.500000C110.400000,351.300000,108.800000,355.100000,109.800000,359.100000C110.800000,363.100000,114.100000,365.700000,117,364.900000C120,364.100000,121.600000,360.300000,120.600000,356.300000C119.600000,352.300000,116.400000,349.700000,113.400000,350.500000Z" fill="rgb(36,83,121)" stroke="none" stroke-width="1"/><path id="eejj46agblio33" d="M113.700000,351.500000C111.100000,352.200000,109.800000,355.400000,110.700000,358.800000C111.600000,362.200000,114.300000,364.400000,116.900000,363.800000C119.500000,363.100000,120.800000,359.900000,119.900000,356.500000C119,353.100000,116.200000,350.900000,113.700000,351.500000Z" fill="rgb(35,82,120)" stroke="none" stroke-width="1"/><path id="eejj46agblio34" d="M114,352.600000C111.900000,353.100000,110.700000,355.900000,111.500000,358.700000C112.200000,361.500000,114.500000,363.400000,116.700000,362.800000C118.800000,362.300000,120,359.500000,119.200000,356.700000C118.400000,353.900000,116.100000,352,114,352.600000Z" fill="rgb(35,82,119)" stroke="none" stroke-width="1"/><path id="eejj46agblio35" d="M114.200000,353.600000C112.500000,354,111.600000,356.200000,112.200000,358.500000C112.800000,360.800000,114.600000,362.300000,116.300000,361.800000C118,361.400000,118.900000,359.200000,118.300000,356.900000C117.800000,354.600000,115.900000,353.100000,114.200000,353.600000Z" fill="rgb(35,81,118)" stroke="none" stroke-width="1"/><path id="eejj46agblio36" d="M114.500000,354.600000C113.200000,354.900000,112.500000,356.600000,113,358.300000C113.400000,360,114.800000,361.100000,116.100000,360.800000C117.400000,360.500000,118.100000,358.800000,117.600000,357.100000C117.100000,355.400000,115.800000,354.300000,114.500000,354.600000Z" fill="rgb(35,80,117)" stroke="none" stroke-width="1"/><path id="eejj46agblio37" d="M114.700000,355.600000C113.800000,355.800000,113.400000,356.900000,113.700000,358C114,359.100000,114.900000,359.900000,115.800000,359.700000C116.700000,359.500000,117.100000,358.400000,116.800000,357.300000C116.500000,356.200000,115.600000,355.400000,114.700000,355.600000Z" fill="rgb(34,80,116)" stroke="none" stroke-width="1"/><path id="eejj46agblio38" d="M115,356.700000C114.600000,356.800000,114.300000,357.400000,114.500000,357.900000C114.600000,358.500000,115.100000,358.800000,115.500000,358.700000C115.900000,358.600000,116.200000,358,116,357.500000C115.900000,356.900000,115.400000,356.500000,115,356.700000Z" fill="rgb(34,79,115)" stroke="none" stroke-width="1"/><clipPath id="eejj46agblio39"><use id="eejj46agblio40" width="43.620636" height="177.702759" xlink:href="#eejj46agblio2" fill="rgb(0,0,0)" stroke="none" stroke-width="1"/></clipPath></g></g></g><path id="eejj46agblio41" d="M82.500000,288.500000C77.800000,311.400000,75.200000,353.300000,75.200000,373.800000C68.600000,378.800000,64.300000,385.100000,63.500000,388C59.900000,402.600000,62.600000,445.400000,62.600000,447.100000C63.800000,449.400000,74.100000,451.700000,74,447.800000C87.300000,391.800000,92,391.700000,95.800000,381.600000C111.300000,340.700000,130.900000,294.500000,130.900000,294.500000L82.500000,288.500000Z" fill="rgb(0,87,158)" stroke="none" stroke-width="1"/></g><g id="eejj46agblio42"><g id="eejj46agblio43"><path id="eejj46agblio44" d="M123,185C119,177.900000,84.300000,177.300000,72.600000,192.100000C65.700000,200.800000,68.300000,216.700000,80.800000,215.400000C86.800000,214.800000,123,185,123,185Z" fill="rgb(106,181,207)" stroke="none" stroke-width="1"/><path id="eejj46agblio45" d="M103.400000,186.900000C101.100000,187.700000,83.100000,193.700000,75.800000,203.100000C68.500000,212.500000,83.600000,233,86.300000,242.800000C90.100000,256.800000,88.500000,287.300000,87,296.800000C86.100000,302.800000,132.300000,298.300000,132.300000,298.300000C132.300000,298.300000,150.700000,204.400000,135.200000,190.900000C132,188,106.200000,186,103.400000,186.900000Z" fill="rgb(255,255,255)" stroke="none" stroke-width="1"/><g id="eejj46agblio46"><path id="eejj46agblio47" d="M220.600000,220.500000C224.200000,222.100000,235.400000,226.500000,236.700000,227.600000C237.300000,228.100000,238,230.700000,239.200000,233.100000C240.400000,235.500000,242.200000,237.700000,242.300000,238.300000C242.500000,239.400000,241.200000,239.700000,239.100000,238C237.100000,236.400000,235.600000,232.800000,234.800000,232.300000C234,231.800000,237.400000,241.900000,237.700000,242.800000C238,243.700000,234.400000,243.700000,232.300000,240.900000C230.100000,238.100000,229.200000,235,228.800000,234.400000C228.500000,233.800000,228.500000,240.500000,228.700000,241.400000C228.900000,242.300000,227.500000,242.200000,226.700000,241C225.800000,239.900000,226,234.100000,225.600000,233.900000C225.200000,233.700000,220.400000,233.600000,219.100000,232.500000C216.200000,230,216.800000,229.100000,215.700000,228C213.900000,226,218.400000,219.500000,220.600000,220.500000Z" fill="rgb(179,116,75)" stroke="none" stroke-width="1"/><g id="eejj46agblio48"><path id="eejj46agblio49" d="M231,234.600000C230.300000,234.600000,229.600000,234.500000,229.100000,234.200000C228.300000,233.700000,227.600000,232.700000,226.900000,231.700000C226.600000,231.200000,226.300000,230.800000,226.100000,230.600000C226,230.500000,225.200000,230.500000,224.600000,230.500000C223,230.600000,220.900000,230.700000,219.200000,229.300000C216.900000,227.400000,217,223.800000,217,223.600000C217,223.400000,217.200000,223.200000,217.500000,223.200000C217.700000,223.200000,217.900000,223.400000,217.900000,223.700000C217.900000,223.700000,217.800000,227,219.800000,228.700000C221.200000,229.900000,223.100000,229.800000,224.500000,229.700000C225.500000,229.600000,226.300000,229.600000,226.700000,230C227,230.300000,227.300000,230.700000,227.600000,231.200000C228.200000,232,228.800000,233,229.500000,233.400000C230,233.700000,230.700000,233.800000,231.500000,233.600000C231.900000,233.500000,232.200000,233.300000,232.300000,233.300000C232.200000,233.100000,231.900000,232.800000,231.700000,232.500000C231,231.600000,229.900000,230.300000,229.400000,228.500000C229.100000,227.300000,225.200000,224.200000,222.600000,222.400000C222.400000,222.300000,222.300000,222,222.500000,221.800000C222.600000,221.600000,222.900000,221.500000,223.100000,221.700000C223.200000,221.700000,229.800000,226.200000,230.300000,228.300000C230.700000,229.900000,231.700000,231.100000,232.400000,232C232.900000,232.600000,233.200000,233,233.200000,233.400000C233.200000,233.600000,233.100000,234,232.500000,234.300000C232.200000,234.400000,231.600000,234.600000,231,234.600000ZM232.300000,233.400000L232.300000,233.400000L232.300000,233.400000Z" fill="rgb(135,88,57)" stroke="none" stroke-width="1"/></g></g><path id="eejj46agblio50" d="M93.600000,189C87.700000,194.800000,106.800000,203.700000,106.900000,220.600000C107.100000,247.600000,101.300000,281.600000,104.800000,296.100000C110,317.900000,76.300000,311.600000,75.200000,309.100000C73.800000,306.200000,76.600000,298.700000,77.200000,295.800000C78.700000,287.800000,80.300000,279.800000,81.700000,271.800000C82.800000,265.700000,84.600000,258.900000,84.300000,252.700000C83.700000,242.200000,73.400000,234.100000,70.500000,224.100000C68.200000,216.200000,69.600000,206.300000,75.500000,200.500000C78.600000,197.400000,82.700000,194.400000,86.400000,192C87.800000,190.900000,92.700000,189.900000,93.600000,189Z" fill="rgb(42,149,191)" stroke="none" stroke-width="1"/><path id="eejj46agblio51" d="M117,186.400000C122.500000,189,125.100000,199.900000,128,214.600000C130.300000,226.200000,130.600000,238.100000,130.800000,249.900000C130.900000,257,131.300000,263.900000,130.500000,270.900000C129.900000,276.300000,129.700000,281.800000,130.200000,287.200000C130.700000,293.200000,128.800000,310.800000,140.700000,306.400000C149,303.300000,147.800000,306.800000,147.200000,300C146.400000,290.700000,144.900000,268.700000,143.400000,259.600000C141.400000,247.400000,141.600000,235.800000,141,223.500000C140.800000,219.800000,161.700000,231.800000,183.400000,231.600000C205.100000,231.400000,213.100000,230.400000,214.600000,229C216.100000,227.600000,217.300000,218.600000,213.900000,218.200000C205.600000,217.100000,182.500000,213.500000,177.800000,212.600000C173.200000,211.800000,138.800000,189.400000,134.100000,188.100000C129.600000,186.900000,114.100000,185,117,186.400000Z" fill="rgb(42,149,191)" stroke="none" stroke-width="1"/><path id="eejj46agblio52" d="M74.100000,199C76.700000,205,82.300000,201.800000,92.400000,202.400000C97.500000,202.700000,104.600000,213.200000,104.500000,210.900000C104.400000,209.600000,102.200000,200,97.100000,196.900000C89.400000,192.200000,95.700000,189.100000,98.100000,187.300000C97,185.800000,94.600000,186,94.600000,186L81.500000,192L74.100000,199Z" fill="rgb(106,181,207)" stroke="none" stroke-width="1"/><path id="eejj46agblio53" d="M115.800000,186.300000C122,188.200000,122.600000,196.800000,125.500000,203.800000C127.300000,208.200000,127.400000,190,123.100000,184.900000C119,180.200000,115.800000,186.300000,115.800000,186.300000Z" fill="rgb(106,181,207)" stroke="none" stroke-width="1"/><path id="eejj46agblio54" d="M80.300000,188.700000C83,186,98.200000,181.800000,98.200000,183.200000C98.200000,183.800000,88.100000,187,85.400000,188.300000C75.900000,192.800000,83.900000,195.600000,82.400000,196C78,197.300000,75.800000,193.100000,80.300000,188.700000Z" fill="rgb(60,121,167)" stroke="none" stroke-width="1"/><g id="eejj46agblio55"><path id="eejj46agblio56" d="M103.800000,249.600000C103.800000,249.600000,103.700000,249.600000,103.800000,249.600000C103.400000,249.600000,103.200000,249.300000,103.200000,249C103.200000,248.700000,103,247.900000,102.800000,246.800000C102.200000,243.700000,101,237.800000,101.400000,231.200000C101.600000,228.800000,101.800000,226.300000,102,223.900000C102.600000,217.500000,103.300000,211,101.900000,208.100000C101.800000,207.800000,101.900000,207.500000,102.200000,207.300000C102.500000,207.200000,102.800000,207.300000,103,207.600000C104.500000,210.700000,103.900000,217.200000,103.200000,224C103,226.400000,102.700000,228.900000,102.600000,231.300000C102.200000,237.700000,103.300000,243.500000,104,246.600000C104.200000,247.800000,104.400000,248.600000,104.400000,249C104.300000,249.300000,104.100000,249.500000,103.800000,249.600000Z" fill="rgb(0,77,82)" stroke="none" stroke-width="1"/></g><g id="eejj46agblio57"><path id="eejj46agblio58" d="M134.400000,242.400000C134.300000,242.400000,134.300000,242.400000,134.200000,242.400000C133.900000,242.300000,133.700000,242,133.800000,241.700000C134.200000,239.700000,133.800000,238.100000,133.200000,236.100000C132.500000,233.700000,131.700000,230.800000,132.300000,226.300000C133.400000,218.300000,129.600000,207.800000,125.400000,202.700000C125.200000,202.500000,125.200000,202.100000,125.500000,201.900000C125.700000,201.700000,126.100000,201.700000,126.300000,202C130.700000,207.400000,134.600000,218,133.400000,226.400000C132.800000,230.600000,133.600000,233.300000,134.300000,235.700000C134.900000,237.800000,135.400000,239.600000,134.900000,241.800000C134.900000,242.200000,134.700000,242.400000,134.400000,242.400000Z" fill="rgb(0,77,82)" stroke="none" stroke-width="1"/></g><path id="eejj46agblio59" d="M103.600000,248.100000C102.800000,248.500000,102.600000,252.500000,103,253.200000C103.400000,253.800000,105.300000,253.600000,105.400000,253.200000C105.700000,252.900000,104.800000,247.600000,103.600000,248.100000Z" fill="rgb(0,72,77)" stroke="none" stroke-width="1"/><path id="eejj46agblio60" d="M134.600000,240.800000C133.700000,241,132.700000,244.900000,133,245.700000C133.200000,246.400000,135.200000,246.500000,135.400000,246.200000C135.600000,245.900000,135.800000,240.600000,134.600000,240.800000Z" fill="rgb(0,72,77)" stroke="none" stroke-width="1"/><g id="eejj46agblio61" opacity="0.34"><path id="eejj46agblio62" d="M140.900000,220.700000C140.600000,220.700000,140.300000,220.500000,140.300000,220.200000C139.700000,212,138.300000,206.100000,135.800000,202.100000C135.600000,201.800000,135.700000,201.500000,136,201.300000C136.300000,201.100000,136.600000,201.200000,136.800000,201.500000C139.300000,205.700000,140.800000,211.800000,141.400000,220.100000C141.500000,220.400000,141.200000,220.700000,140.900000,220.700000C140.900000,220.700000,140.900000,220.700000,140.900000,220.700000Z" fill="rgb(0,77,82)" stroke="none" stroke-width="1"/></g><path id="eejj46agblio63" d="M214.700000,218.700000C216.600000,218.800000,221.100000,219.800000,221.200000,220.400000C221.200000,221.100000,218.300000,230.400000,217.600000,230.800000C216.800000,231.300000,213,230.700000,211.900000,230C210.800000,229.400000,214.200000,218.700000,214.700000,218.700000Z" fill="rgb(106,181,207)" stroke="none" stroke-width="1"/></g></g><g id="eejj46agblio64"><g id="eejj46agblio65"><path id="eejj46agblio66" d="M107.500000,148.300000C112.200000,146.600000,117.700000,146.900000,122.700000,147.300000C126.200000,147.600000,129.900000,143,131.100000,139.700000C131,141,129,147.400000,129,148.700000C131.800000,147.700000,135.600000,142.300000,138.400000,140.800000C137,146.100000,136.200000,153.900000,132,157.600000C128.900000,160.300000,128,162.200000,127,166.200000C124.700000,175.100000,112.200000,178.100000,105,172.800000C98.700000,168.200000,97.200000,157.400000,101.200000,152.700000C103.800000,149.600000,107.800000,147.800000,111.700000,147.200000C113.800000,146.900000,115.700000,146.200000,117.700000,145.500000C118.600000,145.200000,119.400000,144.900000,120.300000,144.600000C122.600000,143.800000,124.900000,142.400000,126.400000,139.800000C125.400000,141.800000,124.700000,146,123.200000,147.600000" fill="rgb(43,71,139)" stroke="none" stroke-width="1"/><path id="eejj46agblio67" d="M126,158.800000C126,158.800000,126,158.800000,126,158.800000C123.500000,161.400000,118.900000,164.500000,110.500000,165.300000C108.900000,165.400000,111.200000,170.600000,110.100000,170.800000C109.200000,170.900000,107.900000,167.200000,107.200000,166.100000C105.700000,163.500000,103.900000,164.800000,105.500000,168.700000C106.300000,170.700000,107.200000,171,107.600000,171.800000C108,172.500000,100.200000,192.100000,101.100000,193.200000C103,195.700000,116,195.800000,118.200000,192.700000C119,191.600000,118,185.500000,118,183.100000C119.400000,184,122.400000,184.800000,125.800000,183.400000C129,182,130.400000,167.500000,126,158.800000Z" fill="rgb(179,116,75)" stroke="none" stroke-width="1"/></g><path id="eejj46agblio68" d="M119.700000,177.600000C119.700000,177.600000,121.100000,179,123.600000,179C126.100000,179,126.300000,177,126.300000,177C126.300000,177,124,176.700000,119.700000,177.600000Z" fill="rgb(255,255,255)" stroke="none" stroke-width="1"/></g></g><g id="eejj46agblio69"><path id="eejj46agblio70" d="M159.800000,240.300000C126.900000,316.300000,144.300000,343,171.300000,383.400000C172.500000,385.100000,174.500000,385.900000,176.500000,385.700000C224.600000,378.500000,255.800000,375.700000,291.200000,296.600000C291.900000,295.300000,291.700000,293.800000,290.900000,292.400000C276.200000,267.700000,247.800000,241.500000,241.500000,235.600000C240.700000,234.800000,239.500000,234.400000,238.500000,234.300000C229.700000,233.500000,190.100000,232,163.200000,237.600000C161.600000,238,160.500000,239,159.800000,240.300000Z" fill="rgb(137,151,229)" stroke="none" stroke-width="1"/><path id="eejj46agblio71" d="M158.500000,242.500000C125.600000,318.300000,141.300000,346,165.800000,385.400000C166.800000,387.100000,168.800000,387.900000,170.600000,387.600000C216.200000,379.300000,245.700000,375.700000,281.100000,296.600000C281.800000,295.300000,281.600000,293.800000,280.900000,292.400000C267.500000,268.400000,241.500000,243,235.500000,237.500000C234.700000,236.800000,233.700000,236.300000,232.700000,236.200000C224.500000,235.700000,187,233.500000,161.600000,239.700000C160.300000,240.200000,159.100000,241.200000,158.500000,242.500000Z" fill="rgb(82,94,204)" stroke="none" stroke-width="1"/><g id="eejj46agblio72" opacity="0.5"><path id="eejj46agblio73" d="M178.300000,368.900000C185.300000,367.400000,192.500000,365.900000,199.500000,363.900000C206.500000,361.900000,213.200000,359.200000,219.400000,355.600000C225.600000,351.800000,231.100000,347.100000,235.800000,341.600000C236.500000,340.900000,237,340.300000,237.600000,339.600000L239.300000,337.400000C240.500000,335.900000,241.500000,334.600000,242.600000,333.100000L245.600000,328.600000L247.100000,326.400000L248.400000,324.100000C250.200000,320.900000,252.100000,317.900000,253.700000,314.800000C255.400000,311.600000,257,308.500000,258.500000,305.100000L260.800000,300.300000C261.100000,299.500000,261.600000,298.600000,262,298C262.300000,297.300000,262.300000,296.500000,262,295.800000C260.300000,292.800000,258.500000,289.600000,256.500000,286.600000C252.500000,280.600000,248,274.900000,243.300000,269.400000C238.600000,263.900000,233.800000,258.500000,228.600000,253.400000C239.300000,263.200000,249.100000,273.900000,257.500000,286C259.700000,289,261.500000,292,263.300000,295.300000C263.800000,296.300000,263.800000,297.500000,263.300000,298.500000C263,299.500000,262.500000,300.200000,262.100000,301L259.800000,306C258.300000,309.300000,256.600000,312.500000,255,315.700000C253.300000,319,251.500000,322,249.700000,325.200000L248.400000,327.500000L246.900000,329.800000L243.900000,334.300000C242.900000,335.800000,241.700000,337.100000,240.600000,338.600000L238.900000,340.800000C238.200000,341.500000,237.700000,342.100000,237.100000,342.800000C232.300000,348.300000,226.800000,353.100000,220.400000,356.800000C214.100000,360.500000,207.200000,363,200.200000,364.800000C192.500000,366.400000,185.300000,367.700000,178.300000,368.900000Z" fill="rgb(255,255,255)" stroke="none" stroke-width="1"/></g><g id="eejj46agblio74" opacity="0.5"><path id="eejj46agblio75" d="M281,292.400000C280.200000,291.200000,279.300000,289.900000,278.500000,288.700000C277.700000,287.400000,276.800000,286.200000,276,285C275.200000,283.800000,274.300000,282.500000,273.500000,281.300000C272.700000,280.100000,271.800000,279,270.800000,277.800000C267.100000,273.100000,263.500000,268.500000,259.600000,263.900000C255.800000,259.400000,251.800000,254.900000,247.700000,250.500000C245.700000,248.300000,243.700000,246.200000,241.700000,244C239.700000,241.800000,237.700000,239.700000,235.500000,237.500000C240,241.300000,244.300000,245.500000,248.500000,249.700000C252.700000,253.900000,256.700000,258.400000,260.700000,262.900000C264.500000,267.400000,268.200000,272.100000,271.700000,277.100000C275.300000,282.100000,278.500000,287.100000,281,292.400000Z" fill="rgb(255,255,255)" stroke="none" stroke-width="1"/></g><path id="eejj46agblio76" d="M170.600000,387.600000C216.200000,379.300000,245.700000,375.700000,281.100000,296.600000C281.800000,295.300000,281.600000,293.800000,280.900000,292.400000C267.500000,268.400000,241.500000,243,235.500000,237.500000C234.800000,237,234.200000,236.500000,233.300000,236.300000L167,386.700000C168.100000,387.600000,169.500000,387.900000,170.600000,387.600000Z" transform="matrix(1 0 0 1 -0.00000000000003 -0.16627824999995)" fill="url(#eejj46agblio76-fill)" stroke="none" stroke-width="1"/></g><path id="eejj46agblio77" d="M237.400000,305.500000C239.300000,305.700000,240.800000,307.400000,241.300000,309.300000C241.800000,311.200000,241.600000,313.100000,241.300000,315C240,323.300000,237.700000,331.500000,234.400000,339.300000C231.100000,347.100000,226.800000,354.700000,220.500000,360.400000C203.500000,375.900000,176.900000,373,162.600000,355.300000C159,350.800000,156.400000,345.600000,155,340C152.500000,330.200000,151.200000,316.300000,159.500000,308.700000C160.100000,313.400000,160.700000,318,161.200000,322.700000C161.700000,326.800000,162.200000,331,163.700000,334.900000C167.200000,344.300000,176,351.600000,186.500000,350C191.200000,349.300000,195.400000,346.700000,199.100000,343.900000C211.800000,334.300000,221.200000,320.900000,228.400000,306.800000C230.700000,302.400000,232.800000,297.900000,233.700000,293.100000C234.600000,288.400000,234.500000,283.600000,233.800000,278.900000C233.200000,274.600000,232.300000,272.200000,228.900000,269.300000C222.600000,263.900000,216.200000,258.500000,209.900000,253.200000C218.300000,253.700000,226.400000,257.400000,232.400000,263.200000C239.500000,270,242.200000,278.600000,241.800000,288.300000C242,290.200000,239.900000,305.800000,237.400000,305.500000Z" opacity="0.48" fill="rgb(0,87,158)" stroke="none" stroke-width="1"/><g id="eejj46agblio78"><g id="eejj46agblio79_to" transform="translate(199.412009,283.310962)"><path id="eejj46agblio79" d="M166.900000,312C166.600000,312,166.200000,312,165.900000,311.900000C164,311.300000,163,309.400000,163.500000,307.500000L175,269C180,252.200000,197.700000,242.600000,214.600000,247.600000C231.400000,252.600000,241,270.300000,236,287.200000L234.600000,291.800000C234,293.700000,232.100000,294.700000,230.200000,294.200000C228.300000,293.600000,227.300000,291.700000,227.800000,289.800000L229.200000,285.200000C233.100000,272.100000,225.600000,258.200000,212.500000,254.300000C199.400000,250.400000,185.500000,257.900000,181.600000,271L170.100000,309.600000C169.800000,311.100000,168.400000,312,166.900000,312Z" transform="translate(-200.348061,-279.137970)" fill="rgb(255,255,255)" stroke="none" stroke-width="1"/></g><path id="eejj46agblio80" d="M183,362L183,362C162.700000,355.900000,151.100000,334.500000,157.100000,314.100000L162.800000,294.700000C163.100000,293.900000,163.900000,293.400000,164.600000,293.700000L235.300000,314.900000C236.100000,315.200000,236.600000,316,236.300000,316.700000L230.800000,336.100000C224.800000,356.500000,203.400000,368.200000,183,362Z" transform="matrix(1 0 0 1 0.44664558500000 0.23658334999999)" fill="rgb(229,136,23)" stroke="none" stroke-width="1"/><path id="eejj46agblio81" d="M185.700000,351.800000L185.700000,351.800000C165.400000,345.700000,153.800000,324.300000,159.800000,303.900000L165.500000,284.500000C165.800000,283.700000,166.600000,283.200000,167.300000,283.500000L238,304.700000C238.800000,305,239.300000,305.800000,239,306.500000L233.500000,325.900000C227.500000,346.300000,206,358,185.700000,351.800000Z" fill="rgb(255,167,51)" stroke="none" stroke-width="1"/><g id="eejj46agblio82" opacity="0.5"><path id="eejj46agblio83" d="M212.700000,350C210.800000,351.100000,208.600000,351.900000,206.400000,352.600000C204.100000,353.300000,201.900000,353.700000,199.600000,353.900000C195,354.500000,190.200000,353.900000,185.800000,352.700000C181.300000,351.300000,177.100000,349.200000,173.400000,346.400000C171.500000,345,169.900000,343.300000,168.300000,341.700000C166.900000,340,165.500000,338.100000,164.400000,336.100000C165.800000,337.800000,167.300000,339.600000,168.800000,341.200000C170.300000,342.800000,172.200000,344.200000,173.900000,345.600000C177.600000,348.200000,181.700000,350.100000,185.900000,351.300000C190.300000,352.600000,194.700000,353.100000,199.200000,353C204,352.600000,208.500000,351.600000,212.700000,350Z" fill="rgb(255,255,255)" stroke="none" stroke-width="1"/></g><g id="eejj46agblio84"><circle id="eejj46agblio85" r="6.700000" transform="matrix(1 0 0 1 196.40000000500009 314.89999999999998)" fill="rgb(204,106,0)" stroke="none" stroke-width="1"/></g></g><g id="eejj46agblio86"><g id="eejj46agblio87"><g id="eejj46agblio88"><path id="eejj46agblio89" d="M172.900000,145.900000L173.800000,159.500000L173.900000,159.500000C174.500000,158.300000,175.300000,157.200000,176.300000,156.400000C177.200000,155.600000,178.400000,154.900000,179.600000,154.600000C183.800000,153.600000,187.100000,156,187.600000,163.200000L188.500000,177.100000L182,178.700000L181.200000,165.600000C181,162.500000,179.900000,160.600000,177.500000,161.200000C175.800000,161.600000,174.800000,163.200000,174.400000,164.600000C174.300000,165.100000,174.200000,165.700000,174.300000,166.300000L175.200000,180.400000L168.700000,182L166.500000,147.500000L172.900000,145.900000Z" fill="rgb(243,145,30)" stroke="none" stroke-width="1"/></g><g id="eejj46agblio90"><path id="eejj46agblio91" d="M214.600000,139.900000L215,146.300000L219.700000,145.100000L220.100000,150.600000L215.400000,151.800000L216,160.400000C216.200000,163.300000,216.900000,164.400000,218.800000,163.900000C219.700000,163.700000,220.100000,163.500000,220.700000,163.200000L221.100000,168.800000C220.300000,169.300000,218.700000,170,216.900000,170.500000C214.800000,171,213,170.600000,211.800000,169.700000C210.500000,168.600000,209.800000,166.500000,209.500000,163.100000L208.900000,153.400000L206.100000,154.100000L205.700000,148.600000L208.500000,147.900000L208.200000,143.500000L214.600000,139.900000Z" fill="rgb(243,145,30)" stroke="none" stroke-width="1"/></g><g id="eejj46agblio92"><path id="eejj46agblio93" d="M198.900000,143.900000L199.300000,150.300000L204,149.100000L204.400000,154.600000L199.700000,155.800000L200.300000,164.400000C200.500000,167.300000,201.200000,168.400000,203.100000,167.900000C204,167.700000,204.400000,167.500000,205,167.200000L205.400000,172.800000C204.600000,173.300000,203,174,201.200000,174.500000C199.100000,175,197.300000,174.600000,196.100000,173.700000C194.800000,172.600000,194.100000,170.500000,193.800000,167.100000L193.200000,157.400000L190.400000,158.100000L190,152.600000L192.800000,151.900000L192.500000,147.500000L198.900000,143.900000Z" fill="rgb(243,145,30)" stroke="none" stroke-width="1"/></g><g id="eejj46agblio94"><path id="eejj46agblio95" d="M236.300000,140.500000C240.900000,139.400000,245.300000,142.900000,245.800000,150.400000C246.400000,159.100000,241.800000,164.400000,237.100000,165.500000C234.600000,166.100000,232.500000,165.500000,231.500000,164.100000L231.400000,164.100000L232.200000,175.900000L225.700000,177.500000L224.100000,152C223.900000,148.900000,223.600000,146.300000,223.400000,144.100000L229.100000,142.700000L229.600000,145.900000L229.700000,145.900000C231,143.200000,233.300000,141.300000,236.300000,140.500000ZM235.200000,160.300000C238,159.600000,239.500000,156.500000,239.300000,152.500000C239.100000,148.700000,237.400000,146.200000,234.400000,146.900000C232.600000,147.400000,231,149.300000,230.700000,151.600000C230.600000,152,230.600000,152.500000,230.700000,152.900000L230.900000,156.200000C230.900000,156.800000,231,157.300000,231.100000,157.700000C231.700000,159.600000,233.300000,160.800000,235.200000,160.300000" fill="rgb(243,145,30)" stroke="none" stroke-width="1"/></g><g id="eejj46agblio96"><g id="eejj46agblio97_ts" transform="translate(256.806473,148.087433) scale(0,0)"><path id="eejj46agblio97" d="M256.900000,135.300000C259.400000,134.700000,261.500000,134.800000,262.900000,135.300000L262.100000,140.700000C261.100000,140.400000,259.200000,140,257.500000,140.500000C255.900000,140.900000,255.100000,141.800000,255.100000,143C255.200000,144.200000,256,144.500000,258.700000,144.900000C262.800000,145.500000,264.600000,147.400000,264.800000,150.800000C265.100000,155.300000,262.300000,159.300000,256.200000,160.800000C253.400000,161.500000,251,161.400000,249.300000,160.800000L250.100000,155.300000C251.400000,155.800000,253.900000,156.100000,255.800000,155.700000C257.800000,155.200000,258.500000,154.300000,258.500000,153.100000C258.400000,151.800000,257.700000,151.400000,255.300000,151.100000C250.800000,150.500000,249,148.300000,248.800000,145.400000C248.600000,140.800000,251.800000,136.600000,256.900000,135.300000Z" transform="translate(-256.806473,-148.087433)" fill="rgb(243,145,30)" stroke="none" stroke-width="1"/></g></g><g id="eejj46agblio98_to" transform="translate(267.841080,137.613117)"><g id="eejj46agblio98" transform="translate(-267.841080,-137.613117)"><g id="eejj46agblio99"><polygon id="eejj46agblio100" points="304.100000,114.400000 297.200000,152 292.800000,153.100000 299.700000,115.500000" transform="matrix(1 0 0 1 -18 2)" fill="rgb(243,145,30)" stroke="none" stroke-width="1"/></g><g id="eejj46agblio101"><polygon id="eejj46agblio102" points="289.900000,118 283,155.500000 278.600000,156.600000 285.500000,119" transform="matrix(1 0 0 1 -18 2)" fill="rgb(243,145,30)" stroke="none" stroke-width="1"/></g><g id="eejj46agblio103"><path id="eejj46agblio104" d="M272.100000,147.800000C274.400000,147.200000,276,148.700000,276.200000,151.300000C276.400000,153.800000,275,156.100000,272.600000,156.700000C270.400000,157.300000,268.700000,155.700000,268.500000,153.200000C268.400000,150.600000,269.900000,148.400000,272.100000,147.800000Z" transform="matrix(1 0 0 1 -18 2)" fill="rgb(243,145,30)" stroke="none" stroke-width="1"/></g><g id="eejj46agblio105"><path id="eejj46agblio106" d="M271.700000,141C269.500000,141.600000,267.800000,140,267.600000,137.500000C267.400000,134.900000,268.900000,132.600000,271.100000,132.100000C273.400000,131.500000,275,133,275.200000,135.600000C275.400000,138.100000,274,140.400000,271.700000,141Z" transform="matrix(1 0 0 1 -18 2)" fill="rgb(243,145,30)" stroke="none" stroke-width="1"/></g></g></g></g></g><g id="eejj46agblio107_tr" transform="translate(79.581540,208.573987) rotate(15.601684)"><g id="eejj46agblio107" transform="translate(-79.581540,-208.573987)"><g id="eejj46agblio108"><path id="eejj46agblio109" d="M116.200000,296.200000C116.200000,296.200000,123.500000,299.600000,124.400000,300.500000C125.400000,301.400000,131.900000,308.600000,132.900000,309.300000C133.900000,310,139.500000,310.800000,140.300000,310.900000C141.100000,311,142.200000,310.600000,143,309.800000C144.900000,309.900000,145.200000,309.900000,145.700000,309.900000C146.500000,309.800000,147.300000,309.200000,147.500000,308.800000C148.600000,308.800000,151.300000,308.900000,152.600000,307.300000C153.400000,306.500000,151.200000,306.100000,149.700000,306C148.200000,305.900000,144.400000,305.600000,144.200000,305.400000C144,305.300000,138.600000,300.100000,138.600000,299C138.500000,298,139.700000,298,140.200000,298C140.700000,298,146.400000,298.500000,146.400000,298.500000C146.400000,298.500000,141.700000,294.700000,140.200000,294.500000C138.800000,294.200000,134.200000,293.400000,131,293.300000C129.900000,293.100000,123.900000,289.900000,123.900000,289.900000L116.200000,296.200000Z" fill="rgb(179,116,75)" stroke="none" stroke-width="1"/><g id="eejj46agblio110"><path id="eejj46agblio111" d="M89.500000,234.400000C87.800000,243.300000,86.100000,252,88.700000,261.400000C91.100000,269.900000,128.400000,290.800000,128.400000,290.800000C124,294.500000,121.600000,301,121.600000,301C121.600000,301,88.900000,286.600000,82,281.100000C74.200000,274.900000,64.300000,265,65.100000,254.600000C66.100000,240.900000,66.600000,227.600000,69.600000,214.200000C71,208.100000,75.300000,199.500000,83,200.800000C90.100000,202,91.200000,209.500000,91.500000,215.200000C91.900000,221.800000,90.700000,228.100000,89.500000,234.400000Z" fill="rgb(45,161,196)" stroke="none" stroke-width="1"/></g><g id="eejj46agblio112" opacity="0.41"><path id="eejj46agblio113" d="M89.700000,237.600000C89.600000,237.600000,89.600000,237.600000,89.500000,237.600000C89.200000,237.500000,89,237.200000,89.100000,236.900000C93,222.600000,93,216.400000,91.500000,209.300000C91.400000,209,91.600000,208.700000,91.900000,208.600000C92.200000,208.500000,92.500000,208.700000,92.600000,209C94.100000,216.300000,94.200000,222.600000,90.200000,237.200000C90.200000,237.400000,89.900000,237.600000,89.700000,237.600000Z" fill="rgb(0,77,82)" stroke="none" stroke-width="1"/></g></g><path id="eejj46agblio114" d="M120.700000,299.700000C120.700000,301,123.700000,302.500000,124.500000,302.300000C125.300000,302.100000,132,294.500000,132,293.200000C132,291.800000,128.900000,288.300000,127.300000,287.900000C125.700000,287.500000,120.700000,297.700000,120.700000,299.700000Z" fill="rgb(106,181,207)" stroke="none" stroke-width="1"/></g></g><g id="eejj46agblio115" transform="matrix(1 0 0 1 152.93602157500013 172.10051232500024)"><path id="eejj46agblio116" d="M27.020698,98.714449C26.820698,98.714449,26.620698,98.714449,26.520698,98.614449C25.420698,98.314449,24.820698,97.214449,25.120698,96.114449L28.620698,83.314449C28.920698,82.214449,30.020698,81.614449,31.120698,81.914449C32.220698,82.214449,32.820698,83.314449,32.520698,84.414449L28.920698,97.214449C28.620698,98.114449,27.820698,98.714449,27.020698,98.714449Z" transform="matrix(1 0 0 1 13.11967176499979 59.22352021500001)" fill="rgb(204,106,0)" stroke="none" stroke-width="1"/></g></svg>