<?xml version="1.0" encoding="utf-8"?>
<!-- Generator: Adobe Illustrator 23.0.3, SVG Export Plug-In . SVG Version: 6.00 Build 0)  -->
<svg version="1.1" id="Layer_1" xmlns="http://www.w3.org/2000/svg" xmlns:xlink="http://www.w3.org/1999/xlink" x="0px" y="0px"
	 viewBox="0 0 150 150" style="enable-background:new 0 0 150 150;" xml:space="preserve">
<style type="text/css">
	.st0{fill:url(#SVGID_1_);}
	.st1{fill:url(#SVGID_2_);}
	.st2{fill:url(#SVGID_3_);}
	.st3{fill:url(#SVGID_4_);}
	.st4{fill:#CCCCCC;}
	.st5{fill:#0268AD;}
	.st6{fill:#00579E;}
	.st7{fill:#FFFFFF;}
	.st8{fill:#F0F1F2;}
	.st9{fill:none;stroke:#999999;stroke-width:0.75;stroke-miterlimit:10;}
	.st10{fill:none;stroke:#999999;stroke-width:0.75;stroke-miterlimit:10;stroke-dasharray:6.0624,6.0624;}
	.st11{fill:none;stroke:#999999;stroke-width:0.75;stroke-miterlimit:10;stroke-dasharray:4.2406,4.2406;}
	.st12{fill:none;stroke:#999999;stroke-width:0.75;stroke-miterlimit:10;stroke-dasharray:4.9497,4.9497;}
	.st13{fill:#0677B5;}
	.st14{fill:#0991CE;}
</style>
<g>
	<linearGradient id="SVGID_1_" gradientUnits="userSpaceOnUse" x1="22.5" y1="55.6" x2="74.1" y2="55.6">
		<stop  offset="0" style="stop-color:#C80F0E"/>
		<stop  offset="1" style="stop-color:#8D0F1C"/>
	</linearGradient>
	<path class="st0" d="M22.5,33.4c14.9,23.5,51.6,44.4,51.6,44.4s-29.2-2.4-43.7-21.2l5.3-4.3c0,0-4.2,0.4-7.7,0.8
		C24.8,47.7,22.7,41.2,22.5,33.4z"/>
	<linearGradient id="SVGID_2_" gradientUnits="userSpaceOnUse" x1="22.5" y1="55.1431" x2="74.1" y2="55.1431">
		<stop  offset="0" style="stop-color:#8D0F1C"/>
		<stop  offset="1" style="stop-color:#C80F0E"/>
	</linearGradient>
	<path class="st1" d="M61.6,43.1c-2.3,1-5.6,2.6-5.6,2.6l3.2-4.6c-3.8-2.9-7.9-4.9-12-6.2c-1.7,2.4-3.6,5.1-3.6,5.1l-0.4-6.2
		c-11-2.4-20.7-0.5-20.7-0.5c14.9,23.5,51.6,44.4,51.6,44.4C74,60.5,68.7,49.8,61.6,43.1z"/>
</g>
<g>
	
		<linearGradient id="SVGID_3_" gradientUnits="userSpaceOnUse" x1="-2417.1729" y1="32.6361" x2="-2402.4026" y2="32.6361" gradientTransform="matrix(-1 0 0 -1 -2306.6597 150)">
		<stop  offset="0" style="stop-color:#C80F0E"/>
		<stop  offset="1" style="stop-color:#8D0F1C"/>
	</linearGradient>
	<path class="st2" d="M95.7,121.6c0.1-1.1,0.7-1.4,1.6-0.9c0.6,0.3,0.8,0.9,1.1,1.6c0.4,1,0.7,2,0.6,3.1c0.1-0.4,0.2-0.8,0.3-1.2
		c0.2-0.7,0.4-1.4,0.7-2.1c-0.5-3.3-3-2.8-3.5-4.5c-0.1-0.3,0-0.5,0-0.7c0.2-0.6,0.8-1,1.3-1c0.9-0.1,1.6,0.7,1.9,1
		c0.9,1,1.1,2.6,0.8,3.9c0.5-1.1,1-2.2,1.4-2.9c-0.3-1.8-1-2.6-1.6-3c-0.3-0.2-0.8-0.5-1.3-1.1c-0.5-0.7-0.6-1.3,0-1.9
		c0.4-0.4,1-0.7,1.5-0.6c1.1,0.2,1.5,2,1.8,3.2c0.2,0.8,0.2,1.5,0.1,2.2c0.7-1.3,1.3-2.4,2-3.8c-0.5-0.9-2.3-4-2.4-5.2
		c-0.1-0.9,0.7-1.9,1.3-1.9c0.7,0,1.2,0.9,1.4,1.3c0.7,1.2,0.7,2.7,0.4,4.1c0.1-0.1,0.1-0.3,0.2-0.4c0.5-1.2,0.8-2.3,1.1-3.5
		c-0.5-1.5-1.8-6.4-0.1-7.4c0.4-0.3,1.2-0.4,1.7-0.1c0.9,0.5,0.8,2.2,0.7,2.9c-0.2,2-1.1,3.6-2,4.7c-0.4,1.7-1,3.2-1.6,4.7
		c2.6-1.8,2.3-3.9,3.5-4.3c0.6-0.2,1.5,0.2,1.8,0.8c0.5,1-0.8,2.3-1.1,2.6c-1.5,1.5-3.5,1.7-4.6,1.8c-0.6,1.2-1.2,2.3-1.8,3.5
		c0.6-0.6,1.4-1,2.3-1.1c0.9-0.2,2.6-0.3,3,0.6c0.2,0.4,0.1,1.1-0.3,1.4c-0.5,0.5-1.3,0.3-2.2,0.2c-0.8-0.1-2,0-3.4,0.4
		c-0.5,1-1,1.9-1.4,2.9c0.4-0.4,0.9-0.6,1.6-0.8c0.8-0.2,3.2-0.9,4,0.1c0.2,0.3,0.3,0.7,0.2,1.1c-0.2,0.5-0.9,0.5-1.9,0.6
		c-1.4,0.1-2.4-0.2-4.3,0.2c-0.6,1.7-1.1,3.5-1.2,5.5c0.7-1.7,2.6-2.6,3.7-2.3c0.1,0,1,0.3,1.1,1c0.1,0.5-0.3,1-0.6,1.2
		c-0.9,0.6-2-0.7-4.2,0.9c-0.1,2,0.2,4.1,0.8,6.5c0.1,0.2-0.3,0.3-0.3,0.1c-0.8-3-1-5.9-0.7-8.5c-1-1.6-1.7-2.4-2.1-2.9
		C96.3,123.3,95.7,122.3,95.7,121.6z"/>
	
		<linearGradient id="SVGID_4_" gradientUnits="userSpaceOnUse" x1="-2437.8889" y1="25.5553" x2="-2408.335" y2="25.5553" gradientTransform="matrix(-1 0 0 -1 -2306.6597 150)">
		<stop  offset="0" style="stop-color:#8D0F1C"/>
		<stop  offset="1" style="stop-color:#C80F0E"/>
	</linearGradient>
	<path class="st3" d="M101.7,139.3c1-3.4,2.5-6.3,4.5-8.7c0-2.1-0.1-3.3-0.3-4c-0.2-0.8-0.2-2.1,0.3-2.7c0.7-1.1,1.5-0.9,2.1,0.1
		c0.4,0.7,0.3,1.3,0.1,2.2c-0.2,1.3-0.6,2.4-1.3,3.4c0.3-0.3,0.6-0.7,1-1c0.6-0.5,1.3-1.1,1.9-1.6c1.5-3.5-1.2-4.6-0.7-6.4
		c0.1-0.4,0.3-0.6,0.4-0.7c0.5-0.5,1.4-0.5,1.9-0.2c1,0.5,1.2,1.7,1.2,2.1c0.2,1.5-0.5,3.1-1.6,4.3c1.2-0.8,2.3-1.5,3.1-2
		c0.7-1.9,0.6-3.1,0.3-3.8c-0.1-0.3-0.5-1-0.5-1.9c0-1,0.2-1.6,1.1-1.8c0.6-0.2,1.4,0,1.8,0.4c0.9,0.8,0.3,2.8-0.2,4.2
		c-0.3,0.9-0.7,1.6-1.2,2.2c1.5-0.9,2.7-1.5,4.2-2.5c0-1.2,0.2-5.3,0.8-6.5c0.5-0.9,1.8-1.4,2.4-1.1c0.7,0.4,0.6,1.6,0.6,2.2
		c-0.1,1.6-1,3.1-2.1,4.2c0.1-0.1,0.3-0.2,0.4-0.3c1.2-0.9,2.2-1.8,3.2-2.7c0.5-1.7,2.1-7.2,4.4-7.3c0.6,0,1.4,0.3,1.7,0.9
		c0.5,1.1-0.6,2.6-1.1,3.3c-1.3,1.8-3.2,2.8-4.7,3.3c-1.4,1.4-2.9,2.5-4.4,3.6c3.6-0.2,4.6-2.4,5.9-2.1c0.7,0.2,1.4,1.1,1.3,1.8
		c-0.1,1.2-2.1,1.7-2.6,1.9c-2.3,0.6-4.5-0.4-5.5-1c-1.2,0.8-2.5,1.5-3.8,2.2c0.9-0.2,1.9-0.1,2.8,0.3c1,0.4,2.7,1.3,2.5,2.3
		c-0.1,0.6-0.6,1.1-1.2,1.2c-0.8,0.2-1.4-0.5-2.3-1.2c-0.8-0.5-1.9-1.2-3.6-1.7c-1,0.6-2.1,1.3-3.1,2c0.6-0.1,1.2,0,2,0.2
		c0.9,0.3,3.7,1,3.8,2.5c0,0.4-0.1,0.9-0.5,1.1c-0.5,0.3-1.2-0.1-2.2-0.6c-1.5-0.8-2.2-1.6-4.3-2.3c-1.6,1.3-3.1,2.7-4.5,4.6
		c1.7-1.3,4.1-1,5,0c0.1,0.1,0.8,0.9,0.5,1.6c-0.2,0.5-0.8,0.8-1.3,0.8c-1.3,0-1.5-1.9-4.6-1.6c-1.2,1.9-2.3,4.1-3.2,6.8
		C102,139.6,101.6,139.5,101.7,139.3z"/>
	<path class="st4" d="M60.1,142c20.8,0,41.5,0,62.3,0c-1.4-2.2-3.8-5-7.5-6.4c-4.4-1.6-6.2,0.6-10.2-1.1c-4-1.7-3.3-4.3-9.3-7.8
		c-2.7-1.6-4.7-2.1-6.4-2.3c-0.8-0.1-2.8-0.2-5.2,0.6c-4.2,1.4-4.3,3.8-7.8,5.8c-4.9,2.8-8.1-0.3-11.8,2.3
		C62.5,134.3,60.7,136.7,60.1,142z"/>
</g>
<g>
	<g>
		<g>
			<path class="st5" d="M275.7,9.1L275.7,9.1C275.7,9.1,275.6,9.1,275.7,9.1L275.7,9.1z"/>
			<path class="st5" d="M236.6-36.9h-8.2C231.6-36.7,234.6-36.5,236.6-36.9z"/>
			<path class="st5" d="M279.1,7.2c0,0.1-0.1,0.1-0.1,0.2C279,7.3,279.1,7.3,279.1,7.2z"/>
			<path class="st5" d="M278.7,7.8l-0.1,0.1C278.6,7.9,278.6,7.8,278.7,7.8z"/>
			<path class="st5" d="M279.8-32.8c0-2.3-1.8-4.1-4.1-4.1h-38.5l42,44c0.4-0.6,0.6-1.4,0.6-2.2V-32.8z"/>
			<path class="st6" d="M279,7.4c-0.1,0.1-0.2,0.3-0.3,0.4C278.8,7.7,278.9,7.5,279,7.4z"/>
			<path class="st6" d="M279.2,7.1L279.2,7.1C279.2,7.1,279.1,7.2,279.2,7.1C279.1,7.2,279.2,7.1,279.2,7.1z"/>
			<path class="st6" d="M278.5,7.9c-0.7,0.7-1.7,1.1-2.8,1.2C276.8,9,277.7,8.7,278.5,7.9z"/>
			<path class="st6" d="M275.8,28.4c-1.8-5-4.8-13.3-7-19.3h-19.6C260.5,17.3,275.8,28.4,275.8,28.4z"/>
			<path class="st6" d="M237.1-37c-0.1,0-0.3,0.1-0.5,0.1L237.1-37L237.1-37z"/>
			<path class="st6" d="M236.6-36.9c-2,0.4-5,0.3-8.2,0h-5.5c-2.3,0-4.1,1.8-4.1,4.1V4.9c0,2.3,1.8,4.1,4.1,4.1h26.4h19.5h6.9h0.1
				c1.1,0,2.1-0.5,2.8-1.2l0.1-0.1c0.1-0.1,0.2-0.2,0.3-0.4c0-0.1,0.1-0.1,0.1-0.2V7l-42-44L236.6-36.9L236.6-36.9z"/>
			<g>
				<rect x="228.2" y="-23.2" class="st7" width="41.7" height="2.5"/>
				<rect x="227.9" y="-16.7" class="st7" width="41.7" height="2.5"/>
				<rect x="227.7" y="-10.1" class="st7" width="41.7" height="2.5"/>
			</g>
		</g>
		<g>
			<g>
				<path class="st8" d="M69.8,66.3C50.6,66.3,35,78.1,35,92.7c0,7.2,3.8,13.8,10,18.5c-2.3,6.3-5.9,16.1-7.9,21.8
					c0,0,10.8-7.8,21.2-15.4c3.6,1,7.5,1.5,11.5,1.5c19.2,0,34.8-11.8,34.8-26.4C104.5,78.1,89,66.3,69.8,66.3z"/>
				<g>
					<path class="st9" d="M43.1,109.6c0.6,0.6,1.3,1.1,1.9,1.6c-0.3,0.7-0.6,1.5-0.9,2.3"/>
					<path class="st10" d="M42.1,119.2c-1.1,2.9-2.1,5.9-3.1,8.5"/>
					<path class="st9" d="M38,130.6c-0.3,0.8-0.6,1.6-0.8,2.4c0,0,0.7-0.5,2-1.5"/>
					<path class="st11" d="M42.6,129c3.2-2.3,7.5-5.5,12-8.7"/>
					<path class="st9" d="M56.3,119c0.7-0.5,1.3-1,2-1.5c0.8,0.2,1.6,0.4,2.4,0.6"/>
					<path class="st12" d="M65.6,118.9c1.4,0.1,2.8,0.2,4.2,0.2c19.2,0,34.8-11.8,34.8-26.4C104.5,78.1,89,66.3,69.8,66.3
						S35,78.1,35,92.7c0,5.6,2.3,10.9,6.3,15.2"/>
				</g>
			</g>
			<g>
				<g>
					<g>
						<path class="st4" d="M56.7,96.7c0,2-1.6,3.5-3.5,3.5s-3.5-1.6-3.5-3.5c0-2,1.6-3.5,3.5-3.5C55.1,93.1,56.7,94.7,56.7,96.7z"/>
					</g>
					<g>
						<path class="st4" d="M72.4,96.7c0,2.5-2,4.5-4.5,4.5s-4.5-2-4.5-4.5s2-4.5,4.5-4.5C70.4,92.1,72.4,94.2,72.4,96.7z"/>
					</g>
				</g>
				<g>
					<circle class="st4" cx="82.4" cy="96.7" r="5.1"/>
				</g>
			</g>
		</g>
	</g>
</g>
<g>
	<path id="path2993" class="st13" d="M79.8,88.5c-2.3,0-1.9-0.9-2.7-3.1l-6.8-22.3l42-26.2l4.9,1.3l-4.1,11.2L79.8,88.5z"/>
	<path id="path2989" class="st14" d="M79.8,88.5c1.8,0,2.6-0.8,3.6-1.8c1.5-1.5,21.4-20.8,21.4-20.8l-12.2-3l-11.3,7.1l-1.5,17.8
		V88.5z"/>
	<path id="path2991" class="st5" d="M81,70.3l28.7,21.2c3.3,1.8,5.6,0.9,6.5-3l11.7-55.1c1.2-4.8-1.8-6.9-5-5.5L54.3,54.3
		c-4.7,1.9-4.6,4.5-0.8,5.6l17.6,5.5l40.8-25.7c1.9-1.2,3.7-0.5,2.3,0.8L81,70.3z"/>
</g>
</svg>
